<svg width="521" height="293" viewBox="0 0 521 293" fill="none" xmlns="http://www.w3.org/2000/svg">
<mask id="mask0_2521_3397" style="mask-type:alpha" maskUnits="userSpaceOnUse" x="0" y="16" width="505" height="277">
<g clip-path="url(#clip0_2521_3397)">
<path d="M71.843 16.297C65.6009 16.8618 59.4777 18.5263 54.5732 21.0231C44.1697 26.3141 36.9467 35.6178 33.8553 47.5966C32.6069 52.5309 32.4286 55.325 31.953 76.9345C31.3585 105.767 31.0315 110.166 28.8617 117.211C26.5432 124.731 23.0357 128.566 11.5324 136.264C5.82535 140.069 3.5663 142.209 2.10981 145.152C0.623599 148.184 0.177734 150.353 0.177734 154.515C0.207459 162.838 1.90174 165.364 11.7702 172.052C19.2013 177.076 22.144 179.572 24.5219 182.902C27.5835 187.182 29.902 193.543 30.5857 199.547C31.0613 203.738 31.4774 214.38 31.953 234.027C32.4286 253.467 32.6069 255.726 33.8851 260.809C37.3331 274.452 46.6665 284.796 59.8938 289.552C67.1465 292.138 77.9364 293.089 84.7433 291.692C94.2551 289.731 98.8326 283.637 98.2976 273.709C97.9706 268.27 96.5438 264.703 93.4525 261.582C91.0746 259.204 89.2317 258.371 84.2974 257.45C78.5012 256.35 75.8557 255.488 74.3993 254.27C70.7729 251.148 69.1678 245.471 68.8111 234.325C68.7219 231.382 68.5138 223.356 68.3652 216.49C68.068 203.887 67.6518 197.883 66.552 191.076C65.0361 181.623 62.034 173.657 57.9023 168.218C54.9001 164.294 49.6389 159.36 45.4775 156.596C44.4075 155.882 43.2482 155.08 42.8618 154.782L42.2079 154.277L44.9425 152.345C59.8938 141.882 65.5711 130.825 67.4735 108.442C67.6221 106.391 67.8302 104.043 67.9194 103.181C68.0085 102.349 68.2761 95.0366 68.5138 86.9813C68.9894 71.1086 69.3461 65.2231 70.0298 61.8048C71.516 54.5521 74.0723 52.5903 84.565 50.6582C89.2614 49.7962 91.3421 48.8748 93.6309 46.6157C96.9303 43.4055 98.5948 38.174 98.2976 32.0508C98.1192 28.2759 97.3464 25.6601 95.7116 23.193C93.5714 20.0125 89.8262 17.7535 85.0108 16.7726C82.1573 16.2078 75.5882 15.97 71.843 16.297Z" fill="#6331D8"/>
<path d="M422.946 16.2975C411.562 17.3379 405.884 23.4908 406.419 34.2807C406.746 40.7309 408.5 44.5653 412.632 47.8053C414.594 49.3807 416.674 50.094 421.846 50.956C427.761 51.937 429.248 52.5017 431.328 54.6121C435.014 58.3871 435.638 62.3404 436.054 86.001C436.352 102.855 436.649 107.819 437.719 115.131C438.819 122.71 440.424 128.209 443.188 133.887C446.904 141.556 452.076 147.203 460.696 152.999L462.569 154.278L460.993 155.377C454.87 159.569 448.628 165.395 446.042 169.288C441.791 175.768 439.294 182.575 438.016 191.225C436.857 199.102 436.411 206.265 436.054 223.773C435.906 231.709 435.638 239.586 435.46 241.31C434.657 249.098 432.755 253.349 429.248 255.132C427.494 256.024 426.216 256.351 420.717 257.361C417.239 257.986 415.753 258.431 414.385 259.145C409.808 261.582 406.836 267.022 406.419 273.561C406.122 278.555 407.103 282.389 409.451 285.54C413.375 290.772 421.044 293.031 431.834 292.139C438.967 291.574 444.645 290.058 450.114 287.264C460.696 281.884 468.097 272.313 471.07 260.185C472.378 254.894 472.496 253.081 473.061 227.429C473.299 216.936 473.626 206.711 473.804 204.69C475.291 186.915 478.263 182.04 494.017 171.666C496.395 170.091 499.04 168.129 499.873 167.297C503.558 163.611 505.223 157.726 504.42 151.157C504.034 147.738 503.321 145.509 502.072 143.726C500.645 141.615 497.524 138.94 493.333 136.176C487.804 132.549 485.308 130.587 482.543 127.704C478.976 123.989 476.925 120.184 475.201 114.209C473.953 109.959 473.477 101.487 472.913 74.1113C472.496 53.9285 472.229 51.0452 470.089 44.6248C466.67 34.3996 459.596 26.1066 450.114 21.2615C446.101 19.2403 443.664 18.3485 439.324 17.3973C433.587 16.1192 428.683 15.7922 422.946 16.2975Z" fill="#6331D8"/>
<path d="M283.866 54.7901L252.507 86.1492H283.956H315.374V54.7901C315.374 37.55 315.344 23.431 315.285 23.431C315.255 23.431 301.107 37.55 283.866 54.7901Z" fill="#6331D8"/>
<path d="M318.941 54.7901V86.1492H350.36H381.808L350.449 54.7901C333.209 37.55 319.06 23.431 319.031 23.431C318.971 23.431 318.941 37.55 318.941 54.7901Z" fill="#6331D8"/>
<path d="M147.58 54.9387L116.37 86.1492H147.818H179.236V54.9387C179.236 37.7581 179.147 23.7282 178.999 23.7282C178.88 23.7282 164.731 37.7581 147.58 54.9387Z" fill="#6331D8"/>
<path d="M182.804 54.9387V86.1492H214.074H245.373L214.163 54.9387C197.012 37.7581 182.923 23.7282 182.893 23.7282C182.833 23.7282 182.804 37.7581 182.804 54.9387Z" fill="#6331D8"/>
<path d="M262.316 98.3958C288.236 124.523 314.958 151.246 315.136 151.246C315.285 151.246 315.374 137.127 315.374 119.886V88.5274H283.956H252.507L262.316 98.3958Z" fill="#6331D8"/>
<path d="M319.447 88.7355C319.15 89.003 319.179 151.246 319.477 151.246C319.744 151.246 381.957 89.0327 381.957 88.7355C381.957 88.4679 319.714 88.4382 319.447 88.7355Z" fill="#6331D8"/>
<path d="M116.519 89.6285C116.519 89.9258 178.731 152.139 179.029 152.139C179.148 152.139 179.207 138.049 179.177 120.839L179.088 89.5691L147.818 89.4799C130.608 89.4502 116.519 89.5096 116.519 89.6285Z" fill="#6331D8"/>
<path d="M182.804 120.838V152.286L214.163 120.927C231.403 103.687 245.522 89.5384 245.522 89.5087C245.522 89.4493 231.403 89.4195 214.163 89.4195H182.804V120.838Z" fill="#6331D8"/>
<path d="M251.467 124.048V155.407H282.885H314.334L282.975 124.048C265.734 106.808 251.586 92.6885 251.556 92.6885C251.497 92.6885 251.467 106.808 251.467 124.048Z" fill="#6331D8"/>
<path d="M216.69 124.641L185.331 156H216.779H248.197V124.641C248.197 107.401 248.168 93.2815 248.108 93.2815C248.079 93.2815 233.93 107.401 216.69 124.641Z" fill="#6331D8"/>
<path d="M351.222 125.534L320.071 156.893H351.46H382.848V125.534C382.848 108.294 382.73 94.1746 382.611 94.1746C382.492 94.1746 368.373 108.294 351.222 125.534Z" fill="#6331D8"/>
<path d="M116.221 126.127V157.486H147.639H179.088L147.728 126.127C130.488 108.887 116.34 94.7679 116.31 94.7679C116.25 94.7679 116.221 108.887 116.221 126.127Z" fill="#6331D8"/>
<path d="M212.826 186.825C227.747 201.836 241.837 215.985 244.096 218.273L248.198 222.435V190.987V159.568H216.928H185.658L212.826 186.825Z" fill="#6331D8"/>
<path d="M251.467 190.987V222.435L282.826 191.076C300.066 173.836 314.185 159.687 314.185 159.657C314.185 159.598 300.066 159.568 282.826 159.568H251.467V190.987Z" fill="#6331D8"/>
<path d="M146.838 191.816C164.078 209.057 178.227 223.176 178.257 223.176C178.316 223.176 178.346 209.057 178.346 191.816V160.457H146.927H115.479L146.838 191.816Z" fill="#6331D8"/>
<path d="M287.196 191.848L255.866 223.326L287.166 223.415C304.376 223.445 318.495 223.445 318.555 223.385C318.614 223.326 318.614 209.118 318.584 191.818L318.495 160.37L287.196 191.848Z" fill="#6331D8"/>
<path d="M321.021 191.877V223.326L352.38 191.967C369.62 174.726 383.739 160.578 383.739 160.548C383.739 160.489 369.62 160.459 352.38 160.459H321.021V191.877Z" fill="#6331D8"/>
<path d="M181.615 192.114V223.473H213.033H244.482L213.122 192.114C195.882 174.874 181.734 160.755 181.704 160.755C181.644 160.755 181.615 174.874 181.615 192.114Z" fill="#6331D8"/>
<path d="M216.095 259.292C233.336 276.532 247.484 290.651 247.514 290.651C247.573 290.651 247.603 276.532 247.603 259.292V227.933H216.185H184.736L216.095 259.292Z" fill="#6331D8"/>
<path d="M252.655 259.351V290.799L284.014 259.44C301.254 242.2 315.373 228.051 315.373 228.021C315.373 227.962 301.254 227.932 284.014 227.932H252.655V259.351Z" fill="#6331D8"/>
</g>
</mask>
<g mask="url(#mask0_2521_3397)">
<rect x="-45.8892" y="-18.4172" width="619.512" height="390.063" fill="#FFB8B8"/>
</g>
<mask id="mask1_2521_3397" style="mask-type:alpha" maskUnits="userSpaceOnUse" x="16" y="0" width="505" height="277">
<g clip-path="url(#clip1_2521_3397)">
<path d="M87.843 0.296967C81.6009 0.861755 75.4777 2.52631 70.5732 5.02313C60.1697 10.3141 52.9467 19.6178 49.8553 31.5966C48.6069 36.5309 48.4286 39.325 47.953 60.9345C47.3585 89.767 47.0315 94.1662 44.8617 101.211C42.5432 108.731 39.0357 112.566 27.5324 120.264C21.8253 124.069 19.5663 126.209 18.1098 129.152C16.6236 132.184 16.1777 134.353 16.1777 138.515C16.2075 146.838 17.9017 149.364 27.7702 156.052C35.2013 161.076 38.144 163.572 40.5219 166.902C43.5835 171.182 45.902 177.543 46.5857 183.547C47.0613 187.738 47.4774 198.38 47.953 218.027C48.4286 237.467 48.6069 239.726 49.8851 244.809C53.3331 258.452 62.6665 268.796 75.8938 273.552C83.1465 276.138 93.9364 277.089 100.743 275.692C110.255 273.731 114.833 267.637 114.298 257.709C113.971 252.27 112.544 248.703 109.453 245.582C107.075 243.204 105.232 242.371 100.297 241.45C94.5012 240.35 91.8557 239.488 90.3993 238.27C86.7729 235.148 85.1678 229.471 84.8111 218.325C84.7219 215.382 84.5138 207.356 84.3652 200.49C84.068 187.887 83.6518 181.883 82.552 175.076C81.0361 165.623 78.034 157.657 73.9023 152.218C70.9001 148.294 65.6389 143.36 61.4775 140.596C60.4075 139.882 59.2482 139.08 58.8618 138.782L58.2079 138.277L60.9425 136.345C75.8938 125.882 81.5711 114.825 83.4735 92.4422C83.6221 90.3913 83.8302 88.043 83.9194 87.181C84.0085 86.3488 84.2761 79.0366 84.5138 70.9813C84.9894 55.1086 85.3461 49.2231 86.0298 45.8048C87.516 38.5521 90.0723 36.5903 100.565 34.6582C105.261 33.7962 107.342 32.8748 109.631 30.6157C112.93 27.4055 114.595 22.174 114.298 16.0508C114.119 12.2759 113.346 9.66013 111.712 7.19302C109.571 4.01251 105.826 1.75348 101.011 0.772583C98.1573 0.207794 91.5882 -0.0299988 87.843 0.296967Z" fill="#6331D8"/>
<path d="M438.946 0.297546C427.562 1.33789 421.884 7.49081 422.419 18.2807C422.746 24.7309 424.5 28.5653 428.632 31.8053C430.594 33.3807 432.674 34.094 437.846 34.956C443.761 35.937 445.248 36.5017 447.328 38.6121C451.014 42.3871 451.638 46.3404 452.054 70.001C452.352 86.8546 452.649 91.8186 453.719 99.1308C454.819 106.71 456.424 112.209 459.188 117.887C462.904 125.556 468.076 131.203 476.696 136.999L478.569 138.278L476.993 139.377C470.87 143.569 464.628 149.395 462.042 153.288C457.791 159.768 455.294 166.575 454.016 175.225C452.857 183.102 452.411 190.265 452.054 207.773C451.906 215.709 451.638 223.586 451.46 225.31C450.657 233.098 448.755 237.349 445.248 239.132C443.494 240.024 442.216 240.351 436.717 241.361C433.239 241.986 431.753 242.431 430.385 243.145C425.808 245.582 422.836 251.022 422.419 257.561C422.122 262.555 423.103 266.389 425.451 269.54C429.375 274.772 437.044 277.031 447.834 276.139C454.967 275.574 460.645 274.058 466.114 271.264C476.696 265.884 484.097 256.313 487.07 244.185C488.378 238.894 488.496 237.081 489.061 211.429C489.299 200.936 489.626 190.711 489.804 188.69C491.291 170.915 494.263 166.04 510.017 155.666C512.395 154.091 515.04 152.129 515.873 151.297C519.558 147.611 521.223 141.726 520.42 135.157C520.034 131.738 519.321 129.509 518.072 127.726C516.645 125.615 513.524 122.94 509.333 120.176C503.804 116.549 501.308 114.587 498.543 111.704C494.976 107.989 492.925 104.184 491.201 98.2093C489.953 93.9587 489.477 85.4873 488.913 58.1113C488.496 37.9285 488.229 35.0452 486.089 28.6248C482.67 18.3996 475.596 10.1066 466.114 5.26151C462.101 3.24026 459.664 2.34854 455.324 1.39734C449.587 0.119202 444.683 -0.207764 438.946 0.297546Z" fill="#6331D8"/>
<path d="M299.866 38.7901L268.507 70.1492H299.956H331.374V38.7901C331.374 21.55 331.344 7.43095 331.285 7.43095C331.255 7.43095 317.107 21.55 299.866 38.7901Z" fill="#6331D8"/>
<path d="M334.941 38.7901V70.1492H366.36H397.808L366.449 38.7901C349.209 21.55 335.06 7.43095 335.031 7.43095C334.971 7.43095 334.941 21.55 334.941 38.7901Z" fill="#6331D8"/>
<path d="M163.58 38.9387L132.37 70.1492H163.818H195.236V38.9387C195.236 21.7581 195.147 7.7282 194.999 7.7282C194.88 7.7282 180.731 21.7581 163.58 38.9387Z" fill="#6331D8"/>
<path d="M198.804 38.9387V70.1492H230.074H261.373L230.163 38.9387C213.012 21.7581 198.923 7.7282 198.893 7.7282C198.833 7.7282 198.804 21.7581 198.804 38.9387Z" fill="#6331D8"/>
<path d="M278.316 82.3958C304.236 108.523 330.958 135.246 331.136 135.246C331.285 135.246 331.374 121.127 331.374 103.886V72.5274H299.956H268.507L278.316 82.3958Z" fill="#6331D8"/>
<path d="M335.447 72.7355C335.15 73.003 335.179 135.246 335.477 135.246C335.744 135.246 397.957 73.0327 397.957 72.7355C397.957 72.4679 335.714 72.4382 335.447 72.7355Z" fill="#6331D8"/>
<path d="M132.519 73.6285C132.519 73.9258 194.731 136.139 195.029 136.139C195.148 136.139 195.207 122.049 195.177 104.839L195.088 73.5691L163.818 73.4799C146.608 73.4502 132.519 73.5096 132.519 73.6285Z" fill="#6331D8"/>
<path d="M198.804 104.838V136.286L230.163 104.927C247.403 87.6872 261.522 73.5384 261.522 73.5087C261.522 73.4493 247.403 73.4195 230.163 73.4195H198.804V104.838Z" fill="#6331D8"/>
<path d="M267.467 108.048V139.407H298.885H330.334L298.975 108.048C281.734 90.8076 267.586 76.6885 267.556 76.6885C267.497 76.6885 267.467 90.8076 267.467 108.048Z" fill="#6331D8"/>
<path d="M232.69 108.641L201.331 140H232.779H264.197V108.641C264.197 91.4006 264.168 77.2815 264.108 77.2815C264.079 77.2815 249.93 91.4006 232.69 108.641Z" fill="#6331D8"/>
<path d="M367.222 109.534L336.071 140.893H367.46H398.848V109.534C398.848 92.2936 398.73 78.1746 398.611 78.1746C398.492 78.1746 384.373 92.2936 367.222 109.534Z" fill="#6331D8"/>
<path d="M132.221 110.127V141.486H163.639H195.088L163.728 110.127C146.488 92.8869 132.34 78.7679 132.31 78.7679C132.25 78.7679 132.221 92.8869 132.221 110.127Z" fill="#6331D8"/>
<path d="M228.826 170.825C243.747 185.836 257.837 199.985 260.096 202.273L264.198 206.435V174.987V143.568H232.928H201.658L228.826 170.825Z" fill="#6331D8"/>
<path d="M267.467 174.987V206.435L298.826 175.076C316.066 157.836 330.185 143.687 330.185 143.657C330.185 143.598 316.066 143.568 298.826 143.568H267.467V174.987Z" fill="#6331D8"/>
<path d="M162.838 175.816C180.078 193.057 194.227 207.176 194.257 207.176C194.316 207.176 194.346 193.057 194.346 175.816V144.457H162.927H131.479L162.838 175.816Z" fill="#6331D8"/>
<path d="M303.196 175.848L271.866 207.326L303.166 207.415C320.376 207.445 334.495 207.445 334.555 207.385C334.614 207.326 334.614 193.118 334.584 175.818L334.495 144.37L303.196 175.848Z" fill="#6331D8"/>
<path d="M337.021 175.877V207.326L368.38 175.967C385.62 158.726 399.739 144.578 399.739 144.548C399.739 144.489 385.62 144.459 368.38 144.459H337.021V175.877Z" fill="#6331D8"/>
<path d="M197.615 176.114V207.473H229.033H260.482L229.122 176.114C211.882 158.874 197.734 144.755 197.704 144.755C197.644 144.755 197.615 158.874 197.615 176.114Z" fill="#6331D8"/>
<path d="M232.095 243.292C249.336 260.532 263.484 274.651 263.514 274.651C263.573 274.651 263.603 260.532 263.603 243.292V211.933H232.185H200.736L232.095 243.292Z" fill="#6331D8"/>
<path d="M268.655 243.351V274.799L300.014 243.44C317.254 226.2 331.373 212.051 331.373 212.021C331.373 211.962 317.254 211.932 300.014 211.932H268.655V243.351Z" fill="#6331D8"/>
</g>
</mask>
<g mask="url(#mask1_2521_3397)">
<rect x="-29.8892" y="-34.4172" width="619.512" height="390.063" fill="#6331D8"/>
</g>
<defs>
<clipPath id="clip0_2521_3397">
<rect width="504.718" height="276.436" fill="white" transform="translate(0 16)"/>
</clipPath>
<clipPath id="clip1_2521_3397">
<rect width="504.718" height="276.436" fill="white" transform="translate(16)"/>
</clipPath>
</defs>
</svg>
