<svg width="72" height="75" viewBox="0 0 72 75" fill="none" xmlns="http://www.w3.org/2000/svg">
<path d="M36 0C16.2 0 0 16.8238 0 37.5445C0 56.2793 13.176 71.8292 30.384 74.6394V48.4107H21.24V37.5445H30.384V29.2637C30.384 19.8589 35.748 14.6881 43.9919 14.6881C47.9159 14.6881 52.0199 15.4 52.0199 15.4V24.655H47.4839C43.0199 24.655 41.616 27.5401 41.616 30.5002V37.5445H51.6239L50.0039 48.4107H41.616V74.6394C50.0991 73.245 57.8239 68.7399 63.3957 61.9374C68.9675 55.135 72.0192 46.4834 71.9999 37.5445C71.9999 16.8238 55.7999 0 36 0Z" fill="#BEA9EF"/>
</svg>
