<svg width="658" height="437" viewBox="0 0 658 437" fill="none" xmlns="http://www.w3.org/2000/svg">
<g clip-path="url(#clip0)">
<path d="M439.263 0.19281H97.2496V201.316H439.263V0.19281Z" stroke="black" stroke-miterlimit="10"/>
<path d="M97.2496 10.8803H439.258" stroke="black" stroke-miterlimit="10"/>
<path d="M329.645 28.7964H123.1V120.699H329.645V28.7964Z" fill="#F2F2F2"/>
<path d="M127.743 135.389H284.855" stroke="black" stroke-miterlimit="10"/>
<path d="M127.743 149.264H284.855" stroke="black" stroke-miterlimit="10"/>
<path d="M127.743 163.138H284.855" stroke="black" stroke-miterlimit="10"/>
<path d="M127.743 177.013H284.855" stroke="black" stroke-miterlimit="10"/>
<path d="M104.682 8.29545C106.281 8.29545 107.577 7.1278 107.577 5.68743C107.577 4.24706 106.281 3.07941 104.682 3.07941C103.082 3.07941 101.786 4.24706 101.786 5.68743C101.786 7.1278 103.082 8.29545 104.682 8.29545Z" fill="#AB8DE5"/>
<path d="M114.711 8.29545C116.31 8.29545 117.607 7.1278 117.607 5.68743C117.607 4.24706 116.31 3.07941 114.711 3.07941C113.112 3.07941 111.816 4.24706 111.816 5.68743C111.816 7.1278 113.112 8.29545 114.711 8.29545Z" fill="#F58EA6"/>
<path d="M124.737 8.29545C126.336 8.29545 127.633 7.1278 127.633 5.68743C127.633 4.24706 126.336 3.07941 124.737 3.07941C123.138 3.07941 121.842 4.24706 121.842 5.68743C121.842 7.1278 123.138 8.29545 124.737 8.29545Z" fill="#FC9803"/>
<path d="M242.576 74.659L211.395 58.5781V90.763L242.576 74.659Z" fill="#6331D8"/>
<path d="M428.247 28.7346H340.987V72.2286H428.247V28.7346Z" fill="#F2F2F2"/>
<path d="M428.247 84.411H340.987V127.905H428.247V84.411Z" fill="#F2F2F2"/>
<path d="M428.247 140.087H340.987V183.581H428.247V140.087Z" fill="#F2F2F2"/>
<path d="M646.923 232.307C647.432 233.829 652.625 240.915 654.547 244.057C656.469 247.198 659.739 256.421 656.86 257.897C653.981 259.372 649.24 258.325 647.713 253.473C646.186 248.62 641.055 237.682 639.304 235.313C637.553 232.945 646.923 232.307 646.923 232.307Z" fill="#FCC963"/>
<path d="M453.483 88.3791C450.999 85.999 430.735 64.8335 430.568 64.8335C428.703 65.3087 427.461 66.2128 428.817 68.164C429.326 68.9367 432.543 72.445 436.265 76.4401C434.818 77.6939 433.925 79.4224 433.769 81.2763C433.612 83.1303 434.203 84.9714 435.422 86.4279C436.074 87.2182 436.907 87.8566 437.859 88.2939C438.81 88.7313 439.855 88.956 440.912 88.9509C441.485 88.943 442.055 88.8625 442.606 88.7113L445.823 92.5171L450.62 90.5852L450.001 89.8743L453.483 88.3791Z" fill="#FCC963"/>
<path d="M484.982 333.618C485.039 334.665 486.957 343.37 486.11 344.464C484.587 346.461 471.319 346.272 470.635 345.7C469.951 345.128 469.564 343.845 470.069 343.463C470.574 343.08 475.827 341.705 476.507 341.179C477.188 340.654 478.03 337.996 477.578 336.616" fill="#1F161E"/>
<path d="M576.925 208.959C582.737 213 640.819 384.04 639.862 386.752C638.905 389.464 632.296 391.002 629.926 389.457C627.556 387.911 582.407 306.553 579.98 304.126C577.553 301.7 542.161 264.932 537.306 250.474C532.452 236.016 576.925 208.959 576.925 208.959Z" fill="#1F161E"/>
<path d="M568.805 199.249C572.47 201.154 583.14 211.663 583.14 222.795C583.14 254.28 554.072 260.659 543.741 260.466C533.409 260.273 490.569 262.081 474.37 256.602C475.046 262.688 480.523 317.815 485.601 333.877C484.379 336.16 477.982 338.158 476.854 337.208C467.65 329.785 440.558 251.162 441.067 245.637C442.252 233.184 562.086 200.868 568.805 199.249Z" fill="#FC9803"/>
<path d="M533.58 144.457C533.071 146.741 545.549 149.785 546.111 147.359L549.67 132.186L537.135 129.331L533.58 144.457Z" fill="#FCC963"/>
<path d="M547.52 141.227C547.858 139.894 545.826 134.52 543.227 134.759C546.392 134.373 548.705 131.189 549.609 132.19L547.52 141.227Z" fill="black"/>
<path d="M540.409 134.949C549.637 134.949 557.118 127.495 557.118 118.3C557.118 109.105 549.637 101.651 540.409 101.651C531.182 101.651 523.701 109.105 523.701 118.3C523.701 127.495 531.182 134.949 540.409 134.949Z" fill="#FCC963"/>
<path d="M526.072 117.248C526.278 116.476 525.231 115.559 523.733 115.2C522.235 114.84 520.854 115.174 520.648 115.946C520.442 116.717 521.49 117.634 522.987 117.994C524.485 118.354 525.866 118.02 526.072 117.248Z" fill="#FA9E9F"/>
<path d="M543.149 121.216C543.355 120.445 542.307 119.528 540.809 119.168C539.311 118.808 537.93 119.142 537.725 119.914C537.519 120.686 538.566 121.603 540.064 121.962C541.562 122.322 542.943 121.988 543.149 121.216Z" fill="#FA9E9F"/>
<path d="M530.701 115.302C530.025 115.92 526.694 118.342 529.178 120.201" stroke="#1F161E" stroke-width="0.69" stroke-miterlimit="10" stroke-linecap="round"/>
<path d="M533.861 125C534.708 125.143 536.178 124.478 537.082 123.717" stroke="#1F161E" stroke-width="0.69" stroke-miterlimit="10" stroke-linecap="round"/>
<path d="M548.538 115.842C548.595 112.087 535.331 103.382 528.954 106.09C535.726 99.8621 546.339 100.295 552.602 107.091C557.57 112.466 558.417 120.456 554.748 126.796C552.997 125.146 548.538 119.343 548.538 115.842Z" fill="black"/>
<path d="M552.04 123.771C554.066 123.771 555.709 122.131 555.709 120.108C555.709 118.085 554.066 116.445 552.04 116.445C550.013 116.445 548.371 118.085 548.371 120.108C548.371 122.131 550.013 123.771 552.04 123.771Z" fill="#FCC963"/>
<path d="M452.131 87.1349C453.878 88.7036 489.156 123.377 495.085 124.806C515.125 129.655 579.979 149.017 602.108 166.709C625.194 180.885 649.754 230.777 648.846 232.539C647.937 234.301 638.176 238.532 636.144 237.627C634.112 236.723 606.734 198.99 602.503 196.579C598.272 194.168 565.36 177.983 565.36 177.983C566.883 181.739 571.342 197.719 570.723 199.956C570.043 202.193 555.709 211.798 529.593 214.132C526.942 212.56 519.152 167.566 519.152 167.566C513.561 165.094 476.76 145.543 468.632 135.412C465.472 131.464 441.706 95.0788 441.706 93.2706C441.706 91.4623 452.131 87.1349 452.131 87.1349Z" fill="#FC5D03"/>
<path d="M536.524 176.275C534.211 175.325 519.25 167.574 519.25 167.574" stroke="#1F161E" stroke-width="0.55" stroke-miterlimit="10" stroke-linecap="round"/>
<path d="M550.048 142.363C551.629 144.268 562.803 167.334 565.401 178.323" stroke="#1F161E" stroke-width="0.55" stroke-miterlimit="10" stroke-linecap="round"/>
<path d="M638.628 386.605C639.532 387.413 641.731 391.076 641.845 392.455C642.407 398.973 635.297 409.15 634.169 409.15C630.838 409.15 629.144 407.392 629.144 405.344C629.144 403.297 631.628 400.777 631.628 399.398C631.628 398.019 631.347 389.839 631.062 388.603" fill="#1F161E"/>
<path d="M32.4356 363.357C50.3448 363.357 64.863 360.261 64.863 356.441C64.863 352.621 50.3448 349.525 32.4356 349.525C14.5264 349.525 0.00817871 352.621 0.00817871 356.441C0.00817871 360.261 14.5264 363.357 32.4356 363.357Z" fill="black"/>
<path d="M32.4356 356.441L14.2285 411.306" stroke="black" stroke-width="4" stroke-miterlimit="10" stroke-linecap="round"/>
<path d="M32.4355 356.441L50.6915 411.306" stroke="black" stroke-width="4" stroke-miterlimit="10" stroke-linecap="round"/>
<path d="M20.1863 393.301L40.5069 380.783" stroke="black" stroke-width="2" stroke-miterlimit="10" stroke-linecap="round"/>
<path d="M24.2666 380.783L44.5913 393.301" stroke="black" stroke-width="2" stroke-miterlimit="10" stroke-linecap="round"/>
<path d="M139.499 422.067C139.499 423.581 138.705 433.214 140.314 434.094C141.922 434.975 159.763 435.512 160.614 434.632C161.465 433.751 161.917 431.892 161.18 431.355C160.443 430.818 153.581 429.303 152.628 428.62C151.675 427.936 150.413 424.118 150.869 422.117" fill="#1F161E"/>
<path d="M86.1365 296.24L96.1746 292.28C95.7226 272.142 91.4671 227.164 85.3424 220.469C83.9252 218.923 55.6149 216.164 50.5815 216.164C20.4713 216.164 11.5693 219.932 9.24403 222.424C2.21124 230.151 0 265.933 0 278.494C0 291.055 32.2075 297.512 32.2075 297.512L69.9777 300.348C69.9777 300.348 78.2566 301.279 85.4523 301.766C85.6844 299.412 86.1365 296.24 86.1365 296.24Z" fill="#BEA9EF"/>
<path d="M116.08 307.916C118.8 307.039 146.19 302.121 152.087 308.554C157.983 314.987 176.813 407.303 176.813 409.397H161.746L141.385 361.244" fill="#1F161E"/>
<path d="M16.5008 299.718C15.8208 303.481 11.6833 307.538 11.6833 328.02C11.6833 356.375 32.8347 356.998 40.4335 356.998C64.0771 356.998 102.413 349.27 104.963 347.856C106.665 350.986 138.306 421.87 138.42 423.485H153.003C153.003 423.485 143.987 317.499 127.71 305.424C122.485 301.611 28.6362 297.399 16.5008 299.718Z" fill="#FED4DD"/>
<path d="M101.733 278.977C97.9338 278.977 94.7575 279.955 86.0795 281.859L85.6274 300.046C93.8493 296.43 95.7226 291.345 98.1008 291.345C104.059 291.345 107.178 294.718 110.692 294.718C113.136 294.718 117.554 292.616 117.554 289.73C117.574 283.718 106.494 278.977 101.733 278.977Z" fill="#CC9C80"/>
<path d="M162.577 408.184C162.577 409.699 161.762 419.331 163.391 420.208C165.02 421.085 182.845 421.626 183.696 420.745C184.547 419.864 184.999 418.01 184.262 417.473C183.525 416.936 176.663 415.417 175.71 414.733C174.757 414.049 173.499 410.236 173.951 408.231" fill="#1F161E"/>
<path d="M55.9122 220.461C55.9122 222.903 43.0968 222.953 43.0968 220.461V200.709H55.9122V220.461Z" fill="#CC9C80"/>
<path d="M51.7748 207.212C50.5816 207.212 43.0968 210.829 43.0968 212.884V202.178C44.97 202.178 51.7748 207.212 51.7748 207.212Z" fill="#1F161E"/>
<path d="M54.21 208.093C62.7901 208.093 69.7457 200.454 69.7457 191.031C69.7457 181.608 62.7901 173.969 54.21 173.969C45.6299 173.969 38.6743 181.608 38.6743 191.031C38.6743 200.454 45.6299 208.093 54.21 208.093Z" fill="#CC9C80"/>
<path d="M70.2587 177.685C68.3326 181.058 64.3051 182.573 59.9396 182.573C56.2746 182.573 50.8096 181.414 46.9532 183.794C44.856 185.065 42.4737 187.998 42.0217 193.867C42.0217 194.891 40.9996 198.754 40.9996 200.026C40.9996 200.906 40.0914 201.444 38.6743 201.444C37.9372 201.444 36.406 200.076 36.406 198.02C36.406 195.625 37.2571 194.794 37.2571 192.789C37.2571 190.784 34.9889 188.832 34.9889 183.211C34.9889 175.143 39.6964 170.155 42.9827 170.155C45.9881 170.155 46.9532 170.928 47.3482 171.279C47.3482 163.938 56.1402 160.623 59.6546 160.623C63.625 160.623 65.4983 162.431 65.4983 164.68C65.4983 168.347 63.9101 171.426 63.116 172.11C63.963 171.241 64.9885 170.546 66.1293 170.066C67.2701 169.587 68.5022 169.335 69.7497 169.324C74.3432 169.324 75.8581 172.601 75.8581 174.9C75.8581 179.787 70.5275 184.335 68.4873 184.335C67.9988 183.182 67.4104 182.069 66.7281 181.008" fill="#1F161E"/>
<path d="M42.5307 196.896C44.348 196.896 45.8211 195.277 45.8211 193.279C45.8211 191.282 44.348 189.663 42.5307 189.663C40.7135 189.663 39.2404 191.282 39.2404 193.279C39.2404 195.277 40.7135 196.896 42.5307 196.896Z" fill="#CC9C80"/>
<path d="M69.9207 194.16C71.3309 194.16 72.474 193.503 72.474 192.692C72.474 191.881 71.3309 191.224 69.9207 191.224C68.5106 191.224 67.3674 191.881 67.3674 192.692C67.3674 193.503 68.5106 194.16 69.9207 194.16Z" fill="#FA9E9F"/>
<path d="M53.7579 194.16C55.1681 194.16 56.3112 193.503 56.3112 192.692C56.3112 191.881 55.1681 191.224 53.7579 191.224C52.3477 191.224 51.2046 191.881 51.2046 192.692C51.2046 193.503 52.3477 194.16 53.7579 194.16Z" fill="#FA9E9F"/>
<path d="M63.625 189.663C64.077 190.393 66.5733 193.573 63.9671 194.844" stroke="#1F161E" stroke-miterlimit="10" stroke-linecap="round"/>
<path d="M58.8034 198.526C57.9889 198.526 56.8202 197.499 56.1971 196.521" stroke="#1F161E" stroke-miterlimit="10" stroke-linecap="round"/>
<path d="M79.295 244.366C80.4882 247.101 86.0998 273.502 86.0998 281.844" stroke="#1F161E" stroke-miterlimit="10" stroke-linecap="round"/>
<path d="M0.0570068 276.385C0.0570068 306.058 0.285057 314.663 11.1702 314.663C36.178 314.663 73.9441 292.125 80.6918 292.125C86.6495 292.125 89.7648 295.502 93.2833 295.502C95.7266 295.502 100.145 293.397 100.145 290.514C100.145 284.502 89.0278 279.758 84.3243 279.758C73.6631 279.758 31.1894 291.051 30.1632 291.051C29.137 291.051 27.3859 290.564 27.3859 288.656C27.3859 285.178 29.4221 277.119 29.7112 276.435L0.0570068 276.385Z" fill="#CC9C80"/>
<path d="M35.897 250.525C35.1599 252.773 29.6012 276.141 28.9741 278.977" stroke="#1F161E" stroke-miterlimit="10" stroke-linecap="round"/>
<path d="M175.861 300.807H119.138L129.421 260.481C129.921 258.461 131.575 257.097 133.383 257.147H181.476C183.732 257.097 185.589 259.168 185.589 261.695C185.59 262.136 185.54 262.577 185.439 263.008L175.861 300.807Z" fill="#595959"/>
<path d="M154.445 282.918C156.356 282.918 157.906 281.154 157.906 278.977C157.906 276.801 156.356 275.036 154.445 275.036C152.533 275.036 150.983 276.801 150.983 278.977C150.983 281.154 152.533 282.918 154.445 282.918Z" fill="white"/>
<path d="M125.861 297.585H86.0917V300.807H125.861V297.585Z" fill="#595959"/>
<path d="M356.489 38.5922H413.104C414.664 38.6346 415.892 39.8697 415.855 41.3594V61.9268C415.892 63.4165 414.664 64.6563 413.104 64.6987H356.489C354.929 64.6563 353.701 63.4165 353.742 61.9268V41.3782C353.693 39.898 354.913 38.6582 356.464 38.6111L356.489 38.5922Z" fill="#6331D8"/>
<path d="M362.69 52.213C365.306 52.213 367.427 49.9261 367.427 47.1052C367.427 44.2842 365.306 41.9974 362.69 41.9974C360.073 41.9974 357.952 44.2842 357.952 47.1052C357.952 49.9261 360.073 52.213 362.69 52.213Z" fill="white"/>
<path d="M371.02 50.1976H403.541" stroke="white" stroke-width="1.5" stroke-miterlimit="10" stroke-linecap="round"/>
<path d="M371.785 53.4779H396.899" stroke="white" stroke-width="1.5" stroke-miterlimit="10" stroke-linecap="round"/>
<path d="M372.302 58.3385H376.322" stroke="#AB92DE" stroke-width="3" stroke-miterlimit="10" stroke-linecap="round"/>
<path d="M409.018 44.8545L411.645 48.2445L409.468 51.0779L406.842 47.6879C406.698 47.5214 406.582 47.307 406.502 47.0613C406.422 46.8156 406.381 46.5452 406.381 46.2712C406.381 45.9971 406.422 45.7268 406.502 45.4811C406.582 45.2354 406.698 45.021 406.842 44.8545C407.142 44.4847 407.516 44.2783 407.903 44.2679C408.29 44.2576 408.668 44.444 408.977 44.7975L409.018 44.8545Z" fill="#AB92DE"/>
<path d="M412.239 47.6675L409.621 51.0779L407.434 48.2569L410.052 44.8465C410.349 44.4859 410.719 44.2825 411.104 44.2683C411.488 44.2542 411.864 44.4301 412.174 44.7683L412.239 44.8465C412.382 45.0155 412.497 45.2301 412.577 45.4743C412.656 45.7184 412.698 45.986 412.698 46.257C412.698 46.528 412.656 46.7955 412.577 47.0397C412.497 47.2839 412.382 47.4984 412.239 47.6675Z" fill="#AB92DE"/>
<path d="M419.014 93.0753H357.952V115.777H419.014V93.0753Z" fill="#6331D8"/>
<path d="M369.533 111.236C373.022 111.236 375.85 108.441 375.85 104.993C375.85 101.546 373.022 98.7506 369.533 98.7506C366.044 98.7506 363.216 101.546 363.216 104.993C363.216 108.441 366.044 111.236 369.533 111.236Z" fill="white"/>
<path d="M381.114 99.8857H413.916" stroke="white" stroke-width="1.5" stroke-miterlimit="10" stroke-linecap="round"/>
<path d="M381.114 103.093H413.916" stroke="white" stroke-width="1.5" stroke-miterlimit="10" stroke-linecap="round"/>
<path d="M381.114 106.315H413.916" stroke="white" stroke-width="1.5" stroke-miterlimit="10" stroke-linecap="round"/>
<path d="M381.114 109.541H413.916" stroke="white" stroke-width="1.5" stroke-miterlimit="10" stroke-linecap="round"/>
<path d="M370.586 156.546C370.586 154.71 372.214 153.234 374.218 153.234C376.222 153.234 377.855 154.71 377.855 156.546C377.855 158.382 376.226 159.858 374.218 159.858C372.21 159.858 370.586 158.373 370.586 156.546Z" stroke="#AB8FE2" stroke-width="1.5" stroke-linecap="round" stroke-linejoin="round"/>
<path d="M383.059 157.959H403.62" stroke="#AB8FE2" stroke-width="1.5" stroke-linecap="round" stroke-linejoin="round"/>
<path d="M378.909 161.451H405.465" stroke="#AB8FE2" stroke-width="1.5" stroke-linecap="round" stroke-linejoin="round"/>
<path d="M369.509 148.693C367.42 148.693 365.718 149.873 365.718 151.308V164.502C365.718 165.938 367.436 167.117 369.509 167.117H396.117L403.158 173.219L403.105 167.094H404.734C406.823 167.094 408.525 165.915 408.525 164.48V151.317C408.525 149.882 406.811 148.729 404.734 148.729H369.521L369.509 148.693Z" stroke="#AB8FE2" stroke-width="2" stroke-linecap="round" stroke-linejoin="round"/>
<path d="M360.383 428.202C360.444 429.137 361.152 434.57 360.265 435.543C358.672 437.274 344.664 437.182 344.012 436.702C343.361 436.223 342.831 435.064 343.422 434.736C344.012 434.407 349.453 433.19 350.161 432.719C350.87 432.248 351.754 429.91 351.281 428.693" fill="#1F161E"/>
<path d="M291.179 277.432C288.813 281.929 268.781 330.828 269.25 337.945C269.718 345.062 315.999 418.504 318.524 419.3C321.049 420.096 331.706 417.368 332.533 415.46C333.359 413.551 316.398 369.69 315.926 358.462" fill="#1F161E"/>
<path d="M291.179 277.432C292.36 282.725 312.277 355.649 312.277 355.649L348.74 429.091C351.754 430.308 360.68 430.447 362.276 430.072C363.812 429.686 356.364 359.366 353.35 349.421C350.337 339.475 342.595 270.268 342.595 270.268C342.595 270.268 301.693 270.778 291.179 277.432Z" fill="#ED315D"/>
<path d="M300.989 199.404C294.958 201.745 256.601 217.436 253.295 217.436C249.988 217.436 214.877 200.949 212.808 199.825C210.858 201.463 207.844 204.04 208.553 204.882C209.261 205.725 249.512 236.951 252.94 236.951C256.369 236.951 290.943 228.192 293.602 225.804" fill="#F58EA6"/>
<path d="M314.049 195.984C279.532 191.301 287.75 274.256 291.179 277.432C294.608 280.608 341.117 273.031 344.118 270.033C347.119 267.034 338.222 196.78 314.049 195.984Z" fill="#F58EA6"/>
<path d="M330.554 415.931C330.961 416.773 333.628 421.831 333.156 422.955C332.268 425.015 318.903 428.481 318.088 428.152C317.274 427.824 316.374 426.889 316.789 426.421C317.205 425.954 321.99 423.423 322.462 422.766C322.934 422.109 322.934 419.675 322.055 418.647" fill="#1F161E"/>
<path d="M307.961 200.292C307.961 202.259 318.601 202.402 318.601 200.292V187.04H307.961V200.292Z" fill="#FFDCB1"/>
<path d="M318.602 193.453C318.602 192.518 314.7 187.318 312.689 187.882C315.173 187.132 317.714 186.522 318.602 187.04V193.453Z" fill="black"/>
<path d="M311.569 188.396C319.175 188.396 325.341 183.258 325.341 176.92C325.341 170.583 319.175 165.445 311.569 165.445C303.962 165.445 297.796 170.583 297.796 176.92C297.796 183.258 303.962 188.396 311.569 188.396Z" fill="#FFDCB1"/>
<path d="M297.621 179.405C298.894 179.405 299.926 178.964 299.926 178.42C299.926 177.875 298.894 177.434 297.621 177.434C296.348 177.434 295.316 177.875 295.316 178.42C295.316 178.964 296.348 179.405 297.621 179.405Z" fill="#FA9E9F"/>
<path d="M312.098 179.405C313.371 179.405 314.403 178.964 314.403 178.42C314.403 177.875 313.371 177.434 312.098 177.434C310.825 177.434 309.793 177.875 309.793 178.42C309.793 178.964 310.825 179.405 312.098 179.405Z" fill="#FA9E9F"/>
<path d="M303.233 176.379C302.826 176.893 300.574 179.049 302.94 179.892" stroke="#1F161E" stroke-width="0.69" stroke-miterlimit="10" stroke-linecap="round"/>
<path d="M307.606 182.403C308.502 182.218 309.299 181.735 309.854 181.043" stroke="#1F161E" stroke-width="0.69" stroke-miterlimit="10" stroke-linecap="round"/>
<path d="M319.958 179.969C321.622 179.969 322.971 178.836 322.971 177.438C322.971 176.04 321.622 174.907 319.958 174.907C318.293 174.907 316.944 176.04 316.944 177.438C316.944 178.836 318.293 179.969 319.958 179.969Z" fill="#FFDCB1"/>
<path d="M343.483 273.313C358.791 272.984 369.782 264.086 369.782 241.182C369.782 231.72 350.87 203.244 347.087 192.499C345.136 186.924 346.733 170.626 336.805 162.288C332.016 158.309 311.035 159.244 305.599 161.129C300.162 163.015 300.826 168.671 301.343 169.548C302.642 168.66 305.481 166.786 306.01 166.879C308.669 167.161 315.942 173.953 318.129 177.044C319.901 179.571 317.18 195.204 320.67 199.713C324.16 204.222 336.552 201.818 336.552 201.818" fill="#1F161E"/>
<path d="M314.167 229.332C316.297 231.534 331.897 254.952 331.897 258.465C331.897 261.977 327.296 286.94 326.343 288.165C328.469 289.479 334.027 293.13 334.027 293.13C334.027 293.13 350.988 268.259 350.988 254.303C350.988 249.338 337.513 209.098 324.518 199.825" fill="#F58EA6"/>
<path d="M314.167 229.332C316.297 231.534 331.897 254.952 331.897 258.465C331.897 260.195 330.773 267.224 329.454 274.012" stroke="#1F161E" stroke-linecap="round" stroke-linejoin="round"/>
<path d="M319.249 195.938C318.601 200.574 334.911 216.825 341.296 221.558C347.677 214.905 343.837 198.418 343.837 198.418L330.892 193.453L319.249 195.938Z" fill="#1F161E"/>
<path d="M334.027 161.558C337.716 161.558 340.706 158.623 340.706 155.001C340.706 151.38 337.716 148.445 334.027 148.445C330.339 148.445 327.349 151.38 327.349 155.001C327.349 158.623 330.339 161.558 334.027 161.558Z" fill="#1F161E"/>
<path d="M295.255 206.617C292.124 212.332 290.173 219.87 289.049 227.786" stroke="#1F161E" stroke-linecap="round" stroke-linejoin="round"/>
<path d="M206.366 204.6C209.924 204.6 212.808 202.63 212.808 200.199C212.808 197.769 209.924 195.799 206.366 195.799C202.808 195.799 199.924 197.769 199.924 200.199C199.924 202.63 202.808 204.6 206.366 204.6Z" fill="#FFDCB1"/>
<path d="M210.031 187.04L202.229 207.506" stroke="black" stroke-width="3" stroke-miterlimit="10" stroke-linecap="round"/>
</g>
<defs>
<clipPath id="clip0">
<rect width="658" height="437" fill="white"/>
</clipPath>
</defs>
</svg>
