<svg width="76" height="76" viewBox="0 0 76 76" fill="none" xmlns="http://www.w3.org/2000/svg">
<path fill-rule="evenodd" clip-rule="evenodd" d="M53 0.494141H23C10.5736 0.494141 0.5 10.5596 0.5 22.9759V52.9515C0.5 65.3678 10.5736 75.4332 23 75.4332H53C65.4264 75.4332 75.5 65.3678 75.5 52.9515V22.9759C75.5 10.5596 65.4264 0.494141 53 0.494141ZM8 22.9759C8 14.6983 14.7157 7.98805 23 7.98805H53C61.2843 7.98805 68 14.6983 68 22.9759V52.9515C68 61.229 61.2843 67.9393 53 67.9393H23C14.7157 67.9393 8 61.229 8 52.9515V22.9759ZM38 56.6984C27.6447 56.6984 19.25 48.3106 19.25 37.9637C19.25 27.6167 27.6447 19.2289 38 19.2289C48.3553 19.2289 56.75 27.6167 56.75 37.9637C56.75 48.3106 48.3553 56.6984 38 56.6984ZM38 49.2045C44.2132 49.2045 49.25 44.1718 49.25 37.9637C49.25 31.7555 44.2132 26.7228 38 26.7228C31.7868 26.7228 26.75 31.7555 26.75 37.9637C26.75 44.1718 31.7868 49.2045 38 49.2045ZM60.5 19.2289C60.5 21.2983 58.8211 22.9759 56.75 22.9759C54.6789 22.9759 53 21.2983 53 19.2289C53 17.1595 54.6789 15.482 56.75 15.482C58.8211 15.482 60.5 17.1595 60.5 19.2289Z" fill="#BEA9EF"/>
</svg>
