<svg width="543" height="453" viewBox="0 0 543 453" fill="none" xmlns="http://www.w3.org/2000/svg">
<path d="M277.403 373.842C249.578 373.842 227.022 369.089 227.022 363.225C227.022 357.362 249.578 352.609 277.403 352.609C305.228 352.609 327.784 357.362 327.784 363.225C327.784 369.089 305.228 373.842 277.403 373.842Z" fill="black"/>
<path d="M277.403 363.225L305.703 447.663" stroke="black" stroke-width="4" stroke-miterlimit="10" stroke-linecap="round"/>
<path d="M277.403 363.225L249.103 447.663" stroke="black" stroke-width="4" stroke-miterlimit="10" stroke-linecap="round"/>
<path d="M296.411 419.938L264.862 400.653" stroke="black" stroke-width="2" stroke-miterlimit="10" stroke-linecap="round"/>
<path d="M290.072 400.653L258.515 419.938" stroke="black" stroke-width="2" stroke-miterlimit="10" stroke-linecap="round"/>
<path d="M227.82 271.824C227.948 275.569 227.892 288.681 228.539 294.29" stroke="#1F161E" stroke-miterlimit="10" stroke-linecap="round"/>
<path d="M394.953 101.176C394.29 101.175 393.632 101.299 393.018 101.541C392.405 101.782 391.847 102.137 391.378 102.585C390.908 103.032 390.536 103.564 390.283 104.149C390.029 104.733 389.899 105.36 389.9 105.993V122.622C389.899 123.255 390.029 123.882 390.283 124.467C390.536 125.052 390.908 125.583 391.378 126.031C391.847 126.478 392.405 126.833 393.018 127.075C393.632 127.317 394.29 127.44 394.953 127.439C395.617 127.44 396.275 127.317 396.888 127.075C397.502 126.833 398.06 126.478 398.529 126.031C398.998 125.583 399.371 125.052 399.624 124.467C399.878 123.882 400.008 123.255 400.007 122.622V106.024C400.012 105.388 399.885 104.758 399.633 104.17C399.382 103.581 399.01 103.046 398.54 102.595C398.07 102.145 397.512 101.787 396.896 101.543C396.28 101.3 395.62 101.175 394.953 101.176Z" fill="#6331D8"/>
<path d="M394.953 155.392C389.354 155.392 384.815 151.065 384.815 145.727C384.815 140.389 389.354 136.062 394.953 136.062C400.553 136.062 405.092 140.389 405.092 145.727C405.092 151.065 400.553 155.392 394.953 155.392Z" fill="#FBDC8E"/>
<path d="M472.173 327.487C457.006 330.227 459.712 416.529 488.826 411.308C516.32 406.331 490.678 324.131 472.173 327.487Z" fill="black"/>
<path d="M538.768 338.141C526.698 331.627 476.173 392.236 499.284 404.702C521.118 416.529 553.465 346.087 538.768 338.141Z" fill="#FED4DD"/>
<path d="M477.259 452.998H507.738C508.966 452.997 510.15 452.566 511.065 451.785C511.979 451.004 512.56 449.93 512.695 448.766L516.543 415.829C516.626 415.204 516.578 414.571 516.402 413.965C516.227 413.358 515.927 412.791 515.52 412.296C515.113 411.801 514.608 411.387 514.033 411.079C513.457 410.771 512.824 410.575 512.169 410.501C511.975 410.49 511.78 410.49 511.586 410.501H473.571C472.247 410.501 470.978 411.002 470.043 411.894C469.107 412.786 468.581 413.996 468.581 415.258C468.581 415.433 468.581 415.6 468.581 415.768L472.261 448.705C472.385 449.886 472.965 450.979 473.889 451.773C474.813 452.567 476.015 453.004 477.259 452.998Z" fill="#969696"/>
<path d="M463.608 293.879C452.056 297.076 460.91 363.69 483.031 357.556C503.914 351.772 477.666 289.983 463.608 293.879Z" fill="#ED315D"/>
<path d="M444.56 346.878C436.577 353.438 469.052 403.621 484.395 391.019C498.885 379.169 454.307 338.902 444.56 346.878Z" fill="#FED4DD"/>
<path d="M492.419 300.805C475.127 300.805 459.297 406.057 492.419 406.057C523.696 406.057 513.47 300.805 492.419 300.805Z" fill="#F58EA6"/>
<path d="M462.075 403.378H522.906C524.691 403.378 526.139 404.758 526.139 406.46V412.077C526.139 413.779 524.691 415.159 522.906 415.159H462.075C460.289 415.159 458.842 413.779 458.842 412.077V406.46C458.842 404.758 460.289 403.378 462.075 403.378Z" fill="#D8D8D8"/>
<path d="M394.954 116.587C398.968 116.586 402.943 117.339 406.652 118.802C410.361 120.266 413.731 122.411 416.57 125.117C419.409 127.822 421.662 131.034 423.199 134.569C424.736 138.104 425.528 141.893 425.529 145.72H364.379C364.379 137.991 367.599 130.579 373.332 125.114C379.064 119.65 386.839 116.579 394.946 116.579L394.954 116.587Z" fill="#BEA9EF"/>
<path d="M394.953 106.724V1" stroke="#6331D8" stroke-width="2" stroke-linecap="round" stroke-linejoin="round"/>
<path d="M155.142 437.594C155.142 439.398 156.252 450.775 154.041 451.826C151.83 452.876 127.521 453.515 126.419 452.457C125.318 451.4 124.655 449.193 125.621 448.561C126.587 447.929 135.999 446.141 137.276 445.296C138.554 444.451 140.318 439.969 139.671 437.594" fill="#1F161E"/>
<path d="M227.82 288.864L214.137 284.184C214.728 260.386 220.563 207.212 228.85 199.305C230.798 197.455 269.324 194.228 276.197 194.228C317.214 194.228 329.38 198.688 332.47 201.641C342.05 210.773 345.035 253.087 345.035 267.905C345.035 282.722 301.128 290.409 301.128 290.409L249.662 293.78C249.662 293.78 238.374 294.891 228.61 295.439C228.395 292.585 227.82 288.864 227.82 288.864Z" fill="#FC5D03"/>
<path d="M187.051 302.662C183.307 301.604 146.074 295.812 137.963 303.423C129.852 311.033 104.322 420.144 104.322 422.655H124.879L152.628 365.722" fill="#1F161E"/>
<path d="M322.611 292.958C323.545 297.41 329.157 302.19 329.157 326.444C329.157 359.983 300.338 360.691 289.992 360.691C257.757 360.691 205.603 351.559 202.083 349.884C199.744 353.613 156.691 437.404 156.492 439.276H136.67C136.67 439.276 148.956 313.917 171.125 299.701C178.325 295.135 306.078 290.249 322.611 292.958Z" fill="#FC9803"/>
<path d="M206.537 268.438C211.742 268.438 216.037 269.617 227.82 271.824L228.435 293.316C217.258 289.024 214.664 283.057 211.423 283.057C203.328 283.057 199.097 287.037 194.315 287.037C190.978 287.037 184.975 284.541 184.975 281.147C184.975 274.039 200.087 268.438 206.537 268.438Z" fill="#EAC086"/>
<path d="M123.713 421.148C123.713 422.959 124.823 434.329 122.612 435.387C120.4 436.445 96.0919 437.069 94.9903 436.019C93.8886 434.969 93.226 432.754 94.192 432.122C95.1579 431.491 104.57 429.695 105.847 428.85C107.125 428.005 108.889 423.523 108.242 421.148" fill="#1F161E"/>
<path d="M268.941 199.289C268.941 202.159 286.416 202.242 286.416 199.289V175.956H268.941V199.289Z" fill="#EAC086"/>
<path d="M274.633 183.65C276.23 183.65 286.416 187.942 286.416 190.34V177.676C283.877 177.676 274.633 183.65 274.633 183.65Z" fill="#1F161E"/>
<path d="M271.256 184.639C259.572 184.639 250.101 175.61 250.101 164.472C250.101 153.333 259.572 144.304 271.256 144.304C282.94 144.304 292.411 153.333 292.411 164.472C292.411 175.61 282.94 184.639 271.256 184.639Z" fill="#EAC086"/>
<path d="M249.422 148.642C252.041 152.607 257.517 154.426 263.449 154.426C268.502 154.426 275.862 153.026 281.099 155.872C283.933 157.394 287.182 160.857 287.837 167.79C287.837 168.977 289.25 173.581 289.25 175.065C289.25 176.078 290.447 176.74 292.443 176.74C293.473 176.74 295.509 175.149 295.509 172.721C295.509 169.913 294.335 168.916 294.335 166.534C294.335 164.152 297.393 161.861 297.393 155.24C297.393 145.704 291.006 139.829 286.488 139.829C282.368 139.829 281.075 140.742 280.556 141.131C280.556 132.462 268.582 128.505 263.792 128.505C258.363 128.505 255.809 130.628 255.809 133.33C255.809 137.637 257.964 141.298 259.058 142.12C256.583 139.996 253.367 138.826 250.037 138.84C243.818 138.84 241.727 142.736 241.727 145.4C241.727 151.192 249.015 156.557 251.729 156.557C252.413 155.18 253.214 153.859 254.124 152.607" fill="#1F161E"/>
<path d="M287.182 171.435C284.691 171.435 282.672 169.51 282.672 167.135C282.672 164.761 284.691 162.835 287.182 162.835C289.673 162.835 291.692 164.761 291.692 167.135C291.692 169.51 289.673 171.435 287.182 171.435Z" fill="#EAC086"/>
<path d="M249.893 168.17C247.962 168.17 246.396 167.393 246.396 166.435C246.396 165.477 247.962 164.7 249.893 164.7C251.824 164.7 253.39 165.477 253.39 166.435C253.39 167.393 251.824 168.17 249.893 168.17Z" fill="#FA9E9F"/>
<path d="M271.887 168.17C269.956 168.17 268.39 167.393 268.39 166.435C268.39 165.477 269.956 164.7 271.887 164.7C273.818 164.7 275.383 165.477 275.383 166.435C275.383 167.393 273.818 168.17 271.887 168.17Z" fill="#FA9E9F"/>
<path d="M258.435 162.835C257.78 163.726 254.444 167.463 257.964 168.977" stroke="#1F161E" stroke-miterlimit="10" stroke-linecap="round"/>
<path d="M265.013 173.338C266.067 173.338 267.687 172.09 268.542 170.971" stroke="#1F161E" stroke-miterlimit="10" stroke-linecap="round"/>
<path d="M237.12 227.501C235.524 230.736 227.82 261.938 227.82 271.824" stroke="#1F161E" stroke-miterlimit="10" stroke-linecap="round"/>
<path d="M345.035 265.393C345.035 300.47 344.692 310.645 329.923 310.645C295.883 310.645 244.425 284.008 235.252 284.008C227.149 284.008 222.918 287.996 218.137 287.996C214.808 287.996 208.804 285.493 208.804 282.106C208.804 274.99 223.916 269.389 230.359 269.389C244.864 269.389 302.749 282.722 304.162 282.722C305.575 282.722 307.954 282.136 307.954 279.868C307.954 275.751 305.128 266.238 304.761 265.409L345.035 265.393Z" fill="#EAC086"/>
<path d="M296.259 234.8C297.233 237.471 304.825 265.074 305.703 268.438" stroke="#1F161E" stroke-miterlimit="10" stroke-linecap="round"/>
<path d="M3.04937 451.08C4.09739 451.342 5.21161 451.196 6.14719 450.676C7.08276 450.155 7.76313 449.301 8.03878 448.302L48.912 300.089C49.0491 299.595 49.0825 299.079 49.0102 298.572C48.9379 298.065 48.7613 297.576 48.4906 297.135C48.22 296.693 47.8604 296.306 47.4327 295.997C47.005 295.688 46.5175 295.462 45.9982 295.333C44.9502 295.071 43.8359 295.216 42.9004 295.737C41.9648 296.258 41.2844 297.112 41.0088 298.111L0.135593 446.316C-0.00164795 446.811 -0.0351295 447.327 0.0370712 447.835C0.109272 448.342 0.285748 448.831 0.556377 449.274C0.827011 449.716 1.18646 450.104 1.61424 450.413C2.04202 450.723 2.5297 450.95 3.04937 451.08Z" fill="#969696"/>
<path d="M52.233 295.34C51.7136 295.47 51.2261 295.695 50.7984 296.004C50.3706 296.314 50.0111 296.7 49.7404 297.142C49.4697 297.584 49.2932 298.072 49.2209 298.579C49.1486 299.087 49.182 299.602 49.3191 300.097L90.1924 448.31C90.4697 449.307 91.1508 450.159 92.0862 450.678C93.0216 451.198 94.1348 451.342 95.1818 451.08C95.7011 450.951 96.1887 450.725 96.6164 450.416C97.0441 450.107 97.4036 449.72 97.6743 449.278C97.945 448.836 98.1215 448.348 98.1938 447.841C98.2661 447.334 98.2327 446.818 98.0956 446.323L57.2224 298.118C57.0868 297.623 56.8501 297.158 56.5258 296.751C56.2015 296.343 55.7959 296 55.3324 295.742C54.8689 295.484 54.3565 295.316 53.8246 295.247C53.2928 295.178 52.7519 295.21 52.233 295.34Z" fill="#969696"/>
<path d="M24.1563 288.019H419.453C421.45 288.019 423.069 289.563 423.069 291.467V296.101C423.069 298.005 421.45 299.549 419.453 299.549H24.1563C22.159 299.549 20.54 298.005 20.54 296.101V291.467C20.54 289.563 22.159 288.019 24.1563 288.019Z" fill="#D8D8D8"/>
<path d="M402.289 298.12L443.161 446.327C443.735 448.408 442.43 450.539 440.247 451.086C438.064 451.633 435.829 450.39 435.255 448.308L394.383 300.101C393.809 298.02 395.113 295.889 397.296 295.342C399.48 294.795 401.715 296.039 402.289 298.12Z" fill="#D8D8D8"/>
<path d="M386.766 298.122C387.34 296.041 389.575 294.797 391.758 295.345C393.942 295.892 395.246 298.022 394.672 300.104L353.8 448.311C353.226 450.392 350.991 451.636 348.808 451.088C346.625 450.541 345.32 448.41 345.894 446.329L386.766 298.122Z" fill="#D8D8D8"/>
<path d="M127.13 288.019H200.981L187.602 244.153C187.269 243.094 186.585 242.166 185.652 241.509C184.719 240.852 183.589 240.5 182.429 240.507H119.762C119.068 240.496 118.378 240.616 117.733 240.859C117.087 241.102 116.498 241.464 115.999 241.924C115.5 242.384 115.101 242.933 114.825 243.54C114.549 244.147 114.401 244.8 114.389 245.462C114.384 245.95 114.451 246.437 114.589 246.908L127.13 288.019Z" fill="black"/>
<path d="M154.991 268.567C152.496 268.567 150.473 266.638 150.473 264.259C150.473 261.88 152.496 259.952 154.991 259.952C157.487 259.952 159.51 261.88 159.51 264.259C159.51 266.638 157.487 268.567 154.991 268.567Z" fill="white"/>
<path d="M192.207 284.937H244.025V288.019H192.207V284.937Z" fill="black"/>
</svg>
