<svg width="80" height="79" viewBox="0 0 80 79" fill="none" xmlns="http://www.w3.org/2000/svg">
<path fill-rule="evenodd" clip-rule="evenodd" d="M13.3332 6.55713H66.6665C70.3484 6.55713 73.3332 9.49287 73.3332 13.1143V65.5717C73.3332 69.1931 70.3484 72.1288 66.6665 72.1288H13.3332C9.65127 72.1288 6.6665 69.1931 6.6665 65.5717V13.1143C6.6665 9.49287 9.65127 6.55713 13.3332 6.55713ZM13.3332 13.1143V65.5717H66.6665V13.1143H13.3332ZM43.3332 29.5072C41.6074 29.5072 39.784 30.0261 38.1737 30.9896L36.6665 29.5072H33.3332V52.4573H39.9998V39.343C39.9998 37.4553 41.9797 36.0644 43.3332 36.0644H46.6665C48.02 36.0644 49.9998 37.4553 49.9998 39.343V52.4573H56.6665V39.343C56.6665 33.2683 51.313 29.5072 46.6665 29.5072H43.3332ZM26.6665 26.2286C28.5075 26.2286 29.9998 24.7608 29.9998 22.9501C29.9998 21.1393 28.5075 19.6715 26.6665 19.6715C24.8256 19.6715 23.3332 21.1393 23.3332 22.9501C23.3332 24.7608 24.8256 26.2286 26.6665 26.2286ZM23.3332 29.5072V52.4573H29.9998V29.5072H23.3332Z" fill="#000000"/>
</svg>
