<svg width="75" height="62" viewBox="0 0 75 62" fill="none" xmlns="http://www.w3.org/2000/svg">
<path d="M8.89535 12.638C8.94148 12.1654 8.88027 11.6883 8.71665 11.2449C8.55304 10.8016 8.29162 10.4045 7.95349 10.0858L0.950582 1.31239V0H22.6744L39.4796 38.3816L54.2529 0H75V1.31239L69.0087 7.28851C68.756 7.49078 68.5605 7.76053 68.443 8.06913C68.3256 8.37774 68.2905 8.7137 68.3416 9.04139V52.9632C68.2889 53.2902 68.3233 53.6261 68.4409 53.9343C68.5585 54.2425 68.7549 54.5113 69.0087 54.7115L74.8561 60.6876V62H45.4491V60.6876L51.5058 54.5662C52.0988 53.9486 52.0988 53.7624 52.0988 52.8178V17.3153L35.2587 61.8547H32.9826L13.3605 17.3153V47.1505C13.2803 47.7696 13.3363 48.3996 13.5244 48.9928C13.7125 49.586 14.0278 50.1269 14.4462 50.5745L22.3212 60.5241V61.8365H0V60.5241L7.87936 50.5745C8.29499 50.127 8.60356 49.5838 8.78007 48.9889C8.95658 48.394 8.99608 47.7642 8.89535 47.1505V12.638Z" fill="#000000"/>
</svg>
