<svg width="123" height="123" viewBox="0 0 123 123" fill="none" xmlns="http://www.w3.org/2000/svg">
<circle cx="61.5" cy="61.5" r="58" fill="#FFB7E3" stroke="white" stroke-width="7"/>
<path d="M83.5752 49.2325C82.8553 47.5655 81.8172 46.0549 80.519 44.7852C79.2199 43.5117 77.6883 42.4997 76.0073 41.8042C74.2643 41.0802 72.3948 40.7096 70.5073 40.7139C67.8594 40.7139 65.2759 41.439 63.0308 42.8086C62.4937 43.1363 61.9834 43.4961 61.5 43.8882C61.0166 43.4961 60.5063 43.1363 59.9692 42.8086C57.7241 41.439 55.1406 40.7139 52.4927 40.7139C50.5859 40.7139 48.7383 41.0791 46.9927 41.8042C45.3062 42.5025 43.7861 43.5069 42.481 44.7852C41.1811 46.0534 40.1428 47.5644 39.4248 49.2325C38.6782 50.9673 38.2969 52.8096 38.2969 54.7056C38.2969 56.4942 38.6621 58.3579 39.3872 60.2539C39.9941 61.8384 40.8643 63.482 41.9761 65.1416C43.7378 67.7681 46.1602 70.5074 49.168 73.2842C54.1523 77.8872 59.0884 81.0669 59.2979 81.1958L60.5708 82.0122C61.1348 82.3721 61.8599 82.3721 62.4238 82.0122L63.6968 81.1958C63.9063 81.0616 68.8369 77.8872 73.8267 73.2842C76.8345 70.5074 79.2568 67.7681 81.0186 65.1416C82.1304 63.482 83.0059 61.8384 83.6074 60.2539C84.3325 58.3579 84.6978 56.4942 84.6978 54.7056C84.7031 52.8096 84.3218 50.9673 83.5752 49.2325V49.2325ZM61.5 77.7637C61.5 77.7637 42.3789 65.5122 42.3789 54.7056C42.3789 49.2325 46.9067 44.7959 52.4927 44.7959C56.4189 44.7959 59.8242 46.9873 61.5 50.1885C63.1758 46.9873 66.5811 44.7959 70.5073 44.7959C76.0933 44.7959 80.6211 49.2325 80.6211 54.7056C80.6211 65.5122 61.5 77.7637 61.5 77.7637Z" fill="#E772B9"/>
<path d="M70.5073 44.7959C66.5811 44.7959 63.1758 46.9873 61.5 50.1885C59.8242 46.9873 56.4189 44.7959 52.4927 44.7959C46.9067 44.7959 42.3789 49.2324 42.3789 54.7056C42.3789 65.5122 61.5 77.7637 61.5 77.7637C61.5 77.7637 80.6211 65.5122 80.6211 54.7056C80.6211 49.2324 76.0933 44.7959 70.5073 44.7959Z" fill="#FFDAF1"/>
</svg>
