<svg width="483" height="530" viewBox="0 0 483 530" fill="none" xmlns="http://www.w3.org/2000/svg">
<mask id="mask0_2634_2419" style="mask-type:alpha" maskUnits="userSpaceOnUse" x="-483" y="0" width="966" height="530">
<g clip-path="url(#clip0_2634_2419)">
<path d="M326.493 0.569092C304.704 2.5603 293.838 14.3366 294.862 34.9879C295.488 47.3331 298.844 54.6719 306.752 60.873C310.507 63.8882 314.489 65.2535 324.388 66.9034C335.709 68.7807 338.554 69.8617 342.536 73.9009C349.591 81.126 350.785 88.6924 351.582 133.977C352.151 166.234 352.72 175.735 354.768 189.73C356.873 204.237 359.945 214.762 365.235 225.628C372.347 240.305 382.246 251.115 398.744 262.208L402.328 264.655L399.313 266.76C387.593 274.781 375.646 285.932 370.697 293.384C362.562 305.786 357.783 318.814 355.336 335.369C353.118 350.445 352.264 364.156 351.582 397.664C351.297 412.854 350.785 427.93 350.444 431.23C348.908 446.135 345.267 454.27 338.554 457.684C335.197 459.391 332.751 460.016 322.226 461.951C315.57 463.145 312.726 463.999 310.109 465.364C301.347 470.029 295.658 480.44 294.862 492.956C294.293 502.514 296.17 509.852 300.665 515.883C308.174 525.896 322.852 530.219 343.503 528.512C357.157 527.432 368.023 524.53 378.491 519.182C398.744 508.885 412.91 490.567 418.599 467.355C421.102 457.229 421.329 453.758 422.41 404.662C422.865 384.58 423.491 365.009 423.833 361.141C426.677 327.12 432.366 317.79 462.518 297.935C467.069 294.92 472.133 291.166 473.726 289.573C480.78 282.518 483.966 271.254 482.43 258.681C481.69 252.139 480.325 247.872 477.935 244.458C475.205 240.419 469.231 235.299 461.21 230.008C450.628 223.068 445.849 219.313 440.558 213.794C433.732 206.683 429.806 199.401 426.506 187.966C424.117 179.831 423.207 163.617 422.126 111.221C421.329 72.5924 420.817 67.0741 416.721 54.7857C410.179 35.2154 396.639 19.343 378.491 10.0698C370.811 6.20129 366.146 4.49457 357.84 2.67407C346.86 0.227783 337.473 -0.39801 326.493 0.569092Z" fill="#6331D8"/>
<path d="M60.3033 74.2416L0.283813 134.261H60.4739H120.607V74.2416C120.607 41.2451 120.55 14.2222 120.436 14.2222C120.38 14.2222 93.2997 41.2451 60.3033 74.2416Z" fill="#6331D8"/>
<path d="M127.434 74.2416V134.261H187.567H247.758L187.738 74.2416C154.742 41.2451 127.662 14.2222 127.605 14.2222C127.491 14.2222 127.434 41.2451 127.434 74.2416Z" fill="#6331D8"/>
<path d="M-133.125 74.5263V134.261H-73.2764H-13.3707L-73.1057 74.5263C-105.931 41.6436 -132.898 14.7913 -132.954 14.7913C-133.068 14.7913 -133.125 41.6436 -133.125 74.5263Z" fill="#6331D8"/>
<path d="M19.0577 157.7C68.6662 207.707 119.811 258.852 120.152 258.852C120.436 258.852 120.607 231.829 120.607 198.832L120.607 138.813H60.4739H0.283813L19.0577 157.7Z" fill="#6331D8"/>
<path d="M128.402 139.211C127.833 139.723 127.89 258.852 128.459 258.852C128.971 258.852 248.042 139.78 248.042 139.211C248.042 138.699 128.914 138.642 128.402 139.211Z" fill="#6331D8"/>
<path d="M-133.125 200.653V260.843L-73.1057 200.824C-40.1092 167.827 -13.0863 140.748 -13.0863 140.691C-13.0863 140.577 -40.1092 140.52 -73.1057 140.52H-133.125V200.653Z" fill="#6331D8"/>
<path d="M-1.70886 206.796L-1.70886 266.816H58.4244H118.614L58.595 206.796C25.5986 173.8 -1.4813 146.777 -1.53819 146.777C-1.65197 146.777 -1.70886 173.8 -1.70886 206.796Z" fill="#6331D8"/>
<path d="M-68.2688 207.932L-128.288 267.951H-68.0981H-7.96487V207.932C-7.96487 174.935 -8.02176 147.912 -8.13554 147.912C-8.19243 147.912 -35.2723 174.935 -68.2688 207.932Z" fill="#6331D8"/>
<path d="M189.217 209.64L129.595 269.66H189.672H249.748V209.64C249.748 176.644 249.52 149.621 249.293 149.621C249.065 149.621 222.042 176.644 189.217 209.64Z" fill="#6331D8"/>
<path d="M-75.6647 326.949C-47.1057 355.678 -20.1396 382.758 -15.8159 387.139L-7.96507 395.103V334.913L-7.96507 274.78H-67.8138H-127.663L-75.6647 326.949Z" fill="#6331D8"/>
<path d="M-1.70886 334.913L-1.70886 395.103L58.3106 335.083C91.307 302.087 118.33 275.007 118.33 274.95C118.33 274.836 91.307 274.779 58.3106 274.779H-1.70886L-1.70886 334.913Z" fill="#6331D8"/>
<path d="M66.6743 336.562L6.71179 396.809L66.6174 396.98C99.557 397.037 126.58 397.037 126.694 396.923C126.808 396.809 126.808 369.615 126.751 336.505L126.58 276.315L66.6743 336.562Z" fill="#6331D8"/>
<path d="M131.414 336.618V396.808L191.433 336.789C224.43 303.792 251.453 276.713 251.453 276.656C251.453 276.542 224.43 276.485 191.433 276.485H131.414V336.618Z" fill="#6331D8"/>
<path d="M-135.4 337.071V397.091H-75.2664H-15.0763L-75.0958 337.071C-108.092 304.075 -135.172 277.052 -135.229 277.052C-135.343 277.052 -135.4 304.075 -135.4 337.071Z" fill="#6331D8"/>
<path d="M-69.4061 465.646C-36.4096 498.643 -9.32976 525.666 -9.27287 525.666C-9.15909 525.666 -9.1022 498.643 -9.1022 465.646L-9.1022 405.627H-69.2354H-129.426L-69.4061 465.646Z" fill="#6331D8"/>
<path d="M0.565796 465.758L0.565796 525.948L60.5852 465.929C93.5817 432.933 120.605 405.853 120.605 405.796C120.605 405.682 93.5817 405.625 60.5852 405.625H0.565796L0.565796 465.758Z" fill="#6331D8"/>
</g>
</mask>
<g mask="url(#mask0_2634_2419)">
<rect x="-570.829" y="-65.8726" width="1185.71" height="746.557" fill="#DFD1FF"/>
</g>
<defs>
<clipPath id="clip0_2634_2419">
<rect width="966" height="529.081" fill="white" transform="translate(-483)"/>
</clipPath>
</defs>
</svg>
