<svg width="665" height="360" viewBox="0 0 665 360" fill="none" xmlns="http://www.w3.org/2000/svg">
<g clip-path="url(#clip0)">
<path d="M326.509 58.8423C324.711 57.9608 322.455 54.1245 322.455 48.9223C322.455 35.4469 337.736 35.6697 339.318 35.1756C340.9 34.6815 343.983 33.4609 344.711 33.4609C347.245 33.4609 348.306 40.8525 348.306 42.0441C348.306 46.7038 344.711 49.2129 343.641 49.3679C343.148 48.0563 342.546 46.7951 341.843 45.5994C341.151 45.9966 330.922 50.017 329.161 50.4432C329.745 52.4776 326.257 57.0986 326.509 58.8423Z" fill="#1F161E"/>
<path d="M383.479 163.41H387.398C389.249 163.41 390.75 165.473 390.75 168.012V177.67C390.75 180.208 389.249 182.272 387.398 182.272H383.479C381.627 182.272 380.126 180.208 380.126 177.67V167.983C380.126 165.473 381.627 163.41 383.479 163.41Z" stroke="#6050A1" stroke-width="4" stroke-miterlimit="10"/>
<path d="M385.088 156.813V181.865C385.088 185.74 387.362 188.83 390.166 188.84H405.24C408.036 188.84 410.31 185.711 410.319 181.865V156.813H385.088Z" fill="#BBA9D2"/>
<path d="M383.29 155.214H412.116C412.53 155.214 412.862 156.096 412.862 157.152C412.862 158.237 412.53 159.089 412.116 159.089H383.29C382.877 159.089 382.544 158.208 382.544 157.152C382.544 156.096 382.877 155.214 383.29 155.214Z" fill="#1F171E"/>
<path d="M397.707 177.05C399.708 177.05 401.33 175.159 401.33 172.826C401.33 170.494 399.708 168.603 397.707 168.603C395.707 168.603 394.085 170.494 394.085 172.826C394.085 175.159 395.707 177.05 397.707 177.05Z" fill="white"/>
<path d="M291.652 179.927C291.742 183.55 292.685 231.146 296.056 244.204C290.951 252.759 253.873 312.792 253.765 314.12C253.657 315.447 259.94 322.684 261.064 322.684C262.187 322.684 319.058 264.946 321.961 261.167C324.864 257.389 326.195 241.676 326.195 241.676" fill="#1F161E"/>
<path d="M290.024 164.95C290.024 209.513 335.731 253.214 344.756 259.443C346.553 264.132 375.712 339.346 376.404 341.4C377.928 341.515 379.454 341.21 380.838 340.514C382.222 339.817 383.418 338.752 384.314 337.418C383.748 334.512 370.014 248.36 368.216 243.158C366.418 237.956 343.506 184.355 336.981 173.989" fill="#ED335D"/>
<path d="M255.257 315.679C254.7 316.377 251.041 320.523 250.951 321.831C250.799 324.272 258.556 332.807 259.239 332.817C259.922 332.826 260.848 332.187 260.749 331.548C260.65 330.908 258.349 326.549 258.232 325.735C258.335 324.194 258.978 322.754 260.03 321.705" fill="#1F161E"/>
<path d="M376.729 340.518C377.034 341.487 378.616 347.251 379.569 347.881C381.304 349.014 390.643 343.473 390.912 342.688C391.182 341.904 391.083 340.586 390.571 340.46C390.059 340.334 385.942 341.245 385.286 341.051C384.629 340.857 383.155 338.842 383.038 337.418" fill="#1F161E"/>
<path d="M322.096 74.3134C333.538 74.3134 338.275 97.3795 338.275 104.248C338.275 115.137 333.286 158.14 336.981 173.999C332.423 174.967 295.795 171.092 290.024 164.96C290.024 121.482 311.228 74.3134 322.096 74.3134Z" fill="#F48EA6"/>
<path d="M336.397 127.895C329.557 132.836 317.449 134.56 312.883 133.398C324.11 163.623 357.996 174.338 367.938 177.593C369.556 174.454 371.812 168.389 371.992 163.778C367.794 161.288 343.633 149.838 336.397 127.895Z" fill="#F1C27D"/>
<path d="M332.972 83.3422C335.156 82.5866 387.191 69.7796 388.359 69.4115C389.141 71.349 391.002 78.9344 391.002 81.7438C388.755 83.3229 338.275 104.248 338.275 104.248" fill="#F1C27D"/>
<path d="M388.359 69.4115C390.957 68.743 410.022 63.2502 410.489 63.1339C410.957 63.0177 411.388 62.7658 411.433 63.1339C412.197 67.0767 406.471 68.4524 403.802 69.4115C404.566 72.6277 404.853 75.1659 402.975 76.4156C401.294 77.549 398.292 78.8665 390.589 78.2562" fill="#F1C27D"/>
<path d="M336.397 127.895C335.218 124.333 334.543 120.601 334.393 116.822" stroke="#1F161E" stroke-linecap="round" stroke-linejoin="round"/>
<path d="M321.394 87.9244C312.927 87.9244 309.233 105.575 309.233 112.308C309.184 119.515 310.42 126.665 312.873 133.369" stroke="#1F161E" stroke-linecap="round" stroke-linejoin="round"/>
<path d="M338.275 104.248L347.398 100.431C346.221 89.9588 342.832 82.8385 341.7 81.0559C336.864 82.2766 333.502 83.1581 332.972 83.3325" fill="#F48EA6"/>
<path d="M374.247 180.586C378.869 180.586 382.616 176.756 382.616 172.032C382.616 167.308 378.869 163.478 374.247 163.478C369.626 163.478 365.879 167.308 365.879 172.032C365.879 176.756 369.626 180.586 374.247 180.586Z" fill="#F1C27D"/>
<path d="M337.421 96.992C337.845 99.3892 338.13 101.813 338.275 104.248C339.317 103.802 344.252 101.768 344.252 101.768C344.252 101.768 339.452 101.303 337.421 96.992Z" fill="#1F161E"/>
<path d="M328.559 156.357C329.188 159.167 333.332 173.882 324.361 173.485C328.235 173.844 334.734 174.531 336.945 174.018C336.32 170.098 335.908 166.142 335.714 162.17C334.653 161.405 328.559 156.357 328.559 156.357Z" fill="#1F161E"/>
<path d="M328.442 80.2713C327.633 81.9375 320.209 76.5416 321.072 74.7494L326.465 63.5311L333.835 69.0531L328.442 80.2713Z" fill="#F1C27D"/>
<path d="M323.22 70.2446C323.696 69.2758 328.154 66.7958 329.287 68.4233C327.921 66.3696 327.336 63.5214 326.438 63.5796L323.22 70.2446Z" fill="#1F161E"/>
<path d="M336.235 71.4459C342.401 71.4459 347.399 65.2089 347.399 57.5151C347.399 49.8214 342.401 43.5844 336.235 43.5844C330.07 43.5844 325.071 49.8214 325.071 57.5151C325.071 65.2089 330.07 71.4459 336.235 71.4459Z" fill="#F1C27D"/>
<path d="M348.384 62.204C348.468 61.5414 347.708 60.8813 346.685 60.7295C345.662 60.5777 344.764 60.9917 344.68 61.6542C344.595 62.3168 345.356 62.9769 346.378 63.1287C347.401 63.2805 348.299 62.8665 348.384 62.204Z" fill="#F69EA0"/>
<path d="M336.732 60.6999C336.816 60.0374 336.056 59.3772 335.033 59.2254C334.01 59.0736 333.112 59.4876 333.027 60.1502C332.943 60.8127 333.703 61.4729 334.726 61.6247C335.749 61.7765 336.647 61.3624 336.732 60.6999Z" fill="#F69EA0"/>
<path d="M342.212 58.8423C342.509 59.5495 344.073 62.3492 342.104 63.1339" stroke="#1F161E" stroke-width="0.69" stroke-miterlimit="10" stroke-linecap="round"/>
<path d="M338.122 65.6818C337.565 65.5849 336.774 64.6355 336.388 63.7927" stroke="#1F161E" stroke-width="0.69" stroke-miterlimit="10" stroke-linecap="round"/>
<path d="M327.21 58.852C328.57 58.852 329.673 57.4771 329.673 55.7811C329.673 54.085 328.57 52.7101 327.21 52.7101C325.85 52.7101 324.747 54.085 324.747 55.7811C324.747 57.4771 325.85 58.852 327.21 58.852Z" fill="#F1C27D"/>
<path d="M9.49134 322.984L22.0753 317.956C22.8933 317.627 23.9719 318.586 24.4932 320.078C25.0056 321.579 24.7629 323.061 23.9449 323.391L11.361 328.409C10.543 328.738 9.45538 327.789 8.94304 326.287C8.43069 324.786 8.67338 323.304 9.49134 322.984Z" fill="#9F9E9F"/>
<path d="M9.38335 341.235C8.15273 341.783 7.17292 342.832 6.65765 344.155C6.14238 345.478 6.13346 346.967 6.63285 348.297L9.38335 356.28C9.81177 357.637 10.7193 358.757 11.909 359.397C13.0987 360.037 14.4746 360.146 15.7382 359.7L9.38335 341.235Z" fill="#DCDBDB"/>
<path d="M33.3203 331.703L39.6842 350.109C40.9051 349.551 41.8727 348.496 42.3774 347.174C42.8821 345.853 42.8833 344.37 42.3808 343.047L39.6303 335.064C39.1928 333.728 38.2882 332.629 37.1095 332.001C35.9308 331.373 34.5711 331.266 33.3203 331.703Z" fill="#DCDBDB"/>
<path d="M16.4492 358.314L15.3706 358.75L9.67188 342.214L10.7505 341.778C11.3168 341.555 11.8741 341.69 12.0089 342.078L17.2223 357.2C17.3571 357.598 17.0065 358.092 16.4492 358.314Z" fill="#F8981D"/>
<path d="M38.4343 349.528L39.3961 349.14L33.6974 332.594L32.7356 332.981C32.2412 333.185 31.9446 333.659 32.0794 334.057L37.2838 349.14C37.4026 349.34 37.5854 349.486 37.7975 349.551C38.0096 349.615 38.2362 349.593 38.4343 349.489V349.528Z" fill="#F8981D"/>
<path d="M9.38353 341.235C9.14238 341.326 8.91046 341.443 8.69141 341.584L14.9834 359.913C15.2338 359.862 15.4802 359.791 15.7205 359.7L9.36555 341.235H9.38353Z" fill="#F15F22"/>
<path d="M33.293 331.703C33.532 331.605 33.7787 331.53 34.03 331.48L40.322 349.818C40.0993 349.952 39.868 350.069 39.6299 350.167L33.293 331.703Z" fill="#F15F22"/>
<path d="M4.7187 347.987C0.772728 336.537 5.61755 324.011 15.5948 320.029C25.5721 316.047 36.8168 322.112 40.7628 333.592" stroke="#BCBCBC" stroke-width="4" stroke-linecap="round" stroke-linejoin="round"/>
<path d="M4.74609 347.987L6.76852 353.868" stroke="#BCBCBC" stroke-width="4" stroke-linecap="round" stroke-linejoin="round"/>
<path d="M40.79 333.563L42.8215 339.453" stroke="#BCBCBC" stroke-width="4" stroke-linecap="round" stroke-linejoin="round"/>
<path d="M492.187 2.76096L504.771 0L509.112 28.3846L496.528 31.1456L492.187 2.76096Z" fill="#1F161E"/>
<path d="M183.259 202.732L140.5 203.497L147.772 172.303C147.927 171.575 148.301 170.922 148.836 170.446C149.371 169.969 150.036 169.696 150.729 169.668L187.007 169.019C187.426 169.023 187.84 169.116 188.226 169.292C188.612 169.468 188.961 169.725 189.255 170.047C189.549 170.369 189.781 170.75 189.938 171.169C190.095 171.588 190.174 172.036 190.171 172.487C190.183 172.83 190.15 173.172 190.072 173.505L183.259 202.732Z" fill="#524E51"/>
<path d="M167.246 190.032C169.003 190.001 170.403 188.414 170.374 186.488C170.344 184.563 168.896 183.027 167.139 183.058C165.381 183.09 163.981 184.676 164.011 186.602C164.04 188.528 165.489 190.064 167.246 190.032Z" fill="white"/>
<path d="M145.517 199.818L115.517 200.331L115.575 203.954L145.575 203.441L145.517 199.818Z" fill="#524E51"/>
<path d="M619.446 314.371V313.819L618.25 312.163L615.554 308.443L612.623 304.5C612.623 304.5 609.801 302.33 609.082 301.952C606.507 300.469 603.649 299.65 600.731 299.559C598.826 299.559 591.68 299.879 591.671 301.216C591.671 303.153 601.666 310.69 609.001 314.333C612.165 314.372 619.446 314.371 619.446 314.371Z" fill="#1F161E"/>
<path d="M617.927 314.371C607.752 305.653 586.979 258.184 592.31 240.581C603.653 247.004 616.093 269.169 621.972 287.886C622.284 289.103 622.533 290.339 622.718 291.586L625.1 303.725L625.693 314.381L617.927 314.371Z" fill="#6051A2"/>
<path d="M624.875 314.371C621.441 311.271 620.381 302.088 620.318 298.658C620.264 292.264 621.145 287.556 626.061 280.523C630.978 273.49 629.657 261.816 636.2 253.95C642.744 246.084 647.059 243.885 654.807 243.885C662.555 243.885 665.018 257.854 665 261.322C664.91 275.495 656.91 277.491 651.984 284.263C648.389 289.174 648.146 293.194 647.068 295.481C641.288 307.842 636.605 312.502 633.126 314.323" fill="#FBD4DD"/>
<path d="M626.727 313.345C626.825 289.126 649.746 252.846 654.636 247.401" stroke="white" stroke-width="0.4" stroke-linecap="round" stroke-linejoin="round"/>
<path d="M628.003 302.369C625.468 299.298 623.167 290.588 623.508 288.322" stroke="white" stroke-width="0.4" stroke-linecap="round" stroke-linejoin="round"/>
<path d="M621.513 312.327C617.918 305.236 600.84 270.671 594.503 245.289" stroke="white" stroke-width="0.4" stroke-linecap="round" stroke-linejoin="round"/>
<path d="M633.127 314.371H643.805L634.871 351.359H610.979L602.197 314.371H633.127Z" fill="#B47462"/>
<path d="M595.114 301.971C600.319 302.369 606.862 302.63 611.509 306.137" stroke="white" stroke-width="0.4" stroke-linecap="round" stroke-linejoin="round"/>
<path d="M544.876 339.075C545.011 340.266 546.099 347.193 545.344 348.491C543.987 350.845 530.962 351.775 530.252 351.165C529.542 350.555 529.039 349.179 529.533 348.685C530.027 348.191 535.043 346.244 535.681 345.585C536.319 344.926 536.957 341.865 536.4 340.344" fill="#1F161E"/>
<path d="M484.222 329.901C484.357 331.083 485.436 338.019 484.69 339.317C483.332 341.661 470.308 342.591 469.598 341.991C468.888 341.39 468.384 340.053 468.879 339.501C469.373 338.949 474.389 337.06 475.018 336.401C475.647 335.742 476.303 332.681 475.746 331.17" fill="#1F161E"/>
<path d="M505.561 148.268C504.609 151.514 489.058 249.746 488.079 255.074C487.099 260.402 472.169 327.343 473.463 329.562C474.758 331.78 483.863 334.744 486.128 333.262C488.393 331.78 528.024 231.146 530.954 218.6C533.884 206.055 530.954 140.45 530.954 140.45L505.561 148.268Z" fill="#1F161E"/>
<path d="M517.417 149.005C518.019 154.381 527.134 242.974 529.821 257.011C532.509 271.049 530.046 338.707 532.032 339.763C534.594 342.165 547.897 342.165 547.897 342.165C550.306 339.763 558.845 155.573 558.845 155.573C558.845 155.573 537.641 133.882 517.417 149.005Z" fill="#F8981D"/>
<path d="M525.246 77.549C525.246 79.4866 534.432 79.5544 534.423 77.549V64.8486H525.246V77.549Z" fill="#F8CDBB"/>
<path d="M534.414 72.405C534.414 71.2715 531.394 66.4374 529.65 67.0962C531.808 66.2243 533.596 64.1899 534.387 64.8196L534.414 72.405Z" fill="#1F161E"/>
<path d="M525.516 69.8474C532.098 69.8474 537.434 63.7709 537.434 56.2751C537.434 48.7794 532.098 42.7028 525.516 42.7028C518.933 42.7028 513.597 48.7794 513.597 56.2751C513.597 63.7709 518.933 69.8474 525.516 69.8474Z" fill="#F8CDBB"/>
<path d="M514.316 61.7408C515.406 61.6096 516.236 60.9817 516.17 60.3383C516.103 59.695 515.165 59.2797 514.075 59.4109C512.984 59.5421 512.155 60.17 512.221 60.8134C512.288 61.4568 513.226 61.872 514.316 61.7408Z" fill="#F69EA0"/>
<path d="M527.081 60.2705C528.176 60.135 529.008 59.4995 528.939 58.851C528.869 58.2025 527.926 57.7867 526.831 57.9222C525.736 58.0576 524.905 58.6932 524.974 59.3417C525.043 59.9901 525.986 60.406 527.081 60.2705Z" fill="#F69EA0"/>
<path d="M519.125 57.5442C518.81 58.1933 517.138 60.9445 519.233 61.7292" stroke="#1F161E" stroke-width="0.69" stroke-miterlimit="10" stroke-linecap="round"/>
<path d="M523.493 64.2286C524.3 63.8875 524.96 63.2348 525.345 62.3977" stroke="#1F161E" stroke-width="0.69" stroke-miterlimit="10" stroke-linecap="round"/>
<path d="M535.151 57.583C536.601 57.583 537.776 56.2427 537.776 54.5895C537.776 52.9363 536.601 51.596 535.151 51.596C533.701 51.596 532.526 52.9363 532.526 54.5895C532.526 56.2427 533.701 57.583 535.151 57.583Z" fill="#F8CDBB"/>
<path d="M533.353 57.2342C533.353 61.2158 537.191 63.8024 538.513 63.8024C538.705 63.8266 538.9 63.8094 539.087 63.7517C539.273 63.694 539.447 63.597 539.598 63.4663C539.75 63.3357 539.875 63.1739 539.968 62.9905C540.061 62.807 540.119 62.6056 540.14 62.3977C540.14 62.3008 540.14 62.1943 540.14 62.0974C540.14 60.4311 539.241 58.9974 537.443 57.1955C539.098 54.7074 540.036 51.749 540.14 48.6898C540.14 43.7975 537.506 39.7094 535.744 39.7094C534.973 39.7854 534.248 40.1363 533.683 40.7066C533.118 41.2768 532.746 42.0339 532.625 42.8578C532.625 36.0765 526.216 31.1456 522.378 31.1456C518.783 31.1456 518.208 32.9087 518.208 34.3522C518.208 37.4812 520.383 40.8428 521.201 41.6469C519.205 39.9709 516.077 38.2853 513.408 38.2853C511.718 38.2853 509.561 38.8375 509.561 41.4919C509.561 46.3357 513.569 49.1742 514.9 49.9589C515.407 48.8301 516.054 47.7808 516.823 46.8395C516.581 47.7598 517.569 49.4357 519.457 49.8135C520.544 50.0848 533.353 48.1085 533.353 57.2342Z" fill="#1F161E"/>
<path d="M500.357 36.2315C498.265 35.4712 496.218 34.5751 494.226 33.5481C493.328 32.9571 497.157 25.6236 498.927 23.5021C500.698 21.3805 504.321 20.2858 506.28 22.1846C508.24 24.0833 507.008 28.7334 500.357 36.2315Z" fill="#F8CDBB"/>
<path d="M552.715 76.2897C564.454 83.9138 578.117 129.31 578.117 132.788C578.117 136.265 553.147 188.327 551.646 188.327C550.369 186.776 544.94 179.414 544.94 179.414C546.298 177.05 555.187 154.226 555.502 153.257C553.336 153.674 507.71 155.389 503.872 153.471C500.033 151.552 501.526 102.243 500.51 100.596C499.494 98.9489 472.232 96.6723 468.87 90.7823C470.254 61.7196 492.456 33.8193 494.038 33.0637C495.62 32.3081 500.941 34.3618 501.175 35.7181C500.537 37.6556 488.51 73.4028 489.598 75.1078C495.278 74.4975 547.826 73.1025 552.715 76.2897Z" fill="#F15F22"/>
<path d="M546.639 107.503C547.744 109.751 558.962 131.509 558.845 133.33C558.728 135.151 557.236 147.765 555.501 153.287" stroke="#1F161E" stroke-width="0.55" stroke-miterlimit="10" stroke-linecap="round"/>
<path d="M500.698 101.041C500.543 96.8331 500.738 92.6182 501.283 88.4476" stroke="#1F161E" stroke-width="0.55" stroke-miterlimit="10" stroke-linecap="round"/>
<path d="M58.5 314C77.5538 314 93 309.523 93 304C93 298.477 77.5538 294 58.5 294C39.4462 294 24 298.477 24 304C24 309.523 39.4462 314 58.5 314Z" fill="#6F6F6F"/>
<path d="M222.116 229.712C223.015 229.625 228.489 229.363 229.307 228.433C230.826 226.747 229.02 214.444 228.408 213.902C227.797 213.359 226.665 213.175 226.386 213.679C226.107 214.183 225.604 219.249 225.226 219.956C224.849 220.664 220.022 222.33 218.764 222.097" fill="#1F161E"/>
<path d="M203.933 240.484C204.733 240.988 209.326 244.166 210.503 243.923C212.643 243.478 217.694 232.298 217.532 231.543C217.371 230.787 216.517 229.828 215.995 230.09C215.474 230.351 212.4 234.149 211.699 234.497C210.998 234.846 206.18 233.199 205.272 232.231" fill="#1F161E"/>
<path d="M9.44696 300.838C8.95259 302.776 6.44479 307.968 7.97284 316.251C11.2537 327.304 18.1479 329.174 21.2669 327.585C24.3859 325.997 16.1974 314.992 16.6738 301.729" fill="#C68642"/>
<path d="M108.276 199.952C120.86 195.728 207.995 224.916 209.559 226.767C211.123 228.617 204.84 242.267 202.53 242.267C200.22 242.267 168.607 232.143 168.607 232.143L59.9355 266.68C64.2051 259.927 93.4539 204.892 108.276 199.952Z" fill="#1F161E"/>
<path d="M118.703 200.862C123.171 200.862 126.793 197.657 126.793 193.703C126.793 189.749 123.171 186.544 118.703 186.544C114.235 186.544 110.613 189.749 110.613 193.703C110.613 197.657 114.235 200.862 118.703 200.862Z" fill="#C68642"/>
<path d="M29.3564 274.158C32.817 291.596 37.9585 302.378 46.6774 304.248C72.5824 308.966 127.413 264.19 135.188 257.418C142.612 255.481 222.008 231.543 222.574 230.564C223.141 229.586 220.884 222.185 219.419 221.584C217.954 220.983 143.143 227.077 139.547 227.774C127.242 229.576 52.457 247.663 29.3564 274.158Z" fill="#BBA9D2"/>
<path d="M19.6494 169.697C19.7753 170.986 29.4829 169.833 29.3571 168.544L27.9998 155.515L18.3281 156.658L19.6494 169.697Z" fill="#C68642"/>
<path d="M25.7345 159.826C24.7907 159.942 18.9841 163.546 19.1908 165.154L18.292 156.658C19.829 156.483 25.7345 159.826 25.7345 159.826Z" fill="#1F161E"/>
<path d="M25.7796 160.649C33.3451 160.649 39.4782 154.035 39.4782 145.876C39.4782 137.716 33.3451 131.102 25.7796 131.102C18.2141 131.102 12.0811 137.716 12.0811 145.876C12.0811 154.035 18.2141 160.649 25.7796 160.649Z" fill="#C68642"/>
<path d="M38.9253 148.735C40.2429 148.579 41.2501 147.854 41.175 147.115C41.0998 146.375 39.9708 145.902 38.6533 146.058C37.3357 146.213 36.3285 146.939 36.4036 147.678C36.4787 148.417 37.6077 148.89 38.9253 148.735Z" fill="#F69EA0"/>
<path d="M23.9302 150.513C25.2478 150.357 26.255 149.632 26.1798 148.892C26.1047 148.153 24.9757 147.68 23.6581 147.835C22.3406 147.991 21.3334 148.716 21.4085 149.456C21.4836 150.195 22.6126 150.668 23.9302 150.513Z" fill="#F69EA0"/>
<path d="M32.6914 145.314C33.2038 145.943 35.7925 148.559 33.5004 150.002" stroke="#1F161E" stroke-width="1.2" stroke-miterlimit="10" stroke-linecap="round"/>
<path d="M28.9883 153.945C27.9758 153.795 27.0506 153.246 26.3906 152.405" stroke="#1F161E" stroke-width="1.2" stroke-miterlimit="10" stroke-linecap="round"/>
<path d="M22.3897 126.326C18.8931 127.44 8.00798 128.883 4.98783 127.769C4.19684 128.835 1.75195 134.619 0.610404 141.429L7.29788 144.277L0.223896 144.112C-0.219498 147.575 -0.0609972 151.097 0.691301 154.497C3.9901 158.198 9.46413 157.772 10.4259 157.472C16.5291 155.534 14.8303 144.752 17.2572 142.214C21.3829 137.845 29.3648 140.412 36.5466 136.624C36.7174 132.294 30.785 123.633 22.3897 126.326Z" fill="#1F161E"/>
<path d="M13.3573 152.463C15.1047 152.463 16.5213 150.936 16.5213 149.053C16.5213 147.17 15.1047 145.643 13.3573 145.643C11.6099 145.643 10.1934 147.17 10.1934 149.053C10.1934 150.936 11.6099 152.463 13.3573 152.463Z" fill="#C68642"/>
<path d="M4.14414 185.653C10.1934 165.144 41.4466 164.708 47.0555 166.839C52.6643 168.971 66.309 204.621 68.4392 205.28C70.5695 205.938 110.739 187.29 111.8 187.939C112.861 188.588 116.519 201.686 115.89 203.439C115.261 205.193 68.5831 225.352 67.064 225.546C67.5224 228.171 72.8257 244.689 71.792 247.469C70.7583 250.249 45.105 272.337 29.375 274.139C26.6784 274.401 22.9482 254.677 22.9482 254.677C22.9482 258.552 21.2763 302.446 20.2516 302.93C19.2269 303.415 7.66765 305.062 6.607 303.754C5.54635 302.446 3.37112 188.23 4.14414 185.653Z" fill="#6050A1"/>
<path d="M23.1006 255.016L30.3723 190.719" stroke="#1F161E" stroke-width="0.55" stroke-miterlimit="10" stroke-linecap="round"/>
<path d="M71.7738 247.489C70.4166 235.05 61.6437 203.972 60.8438 200.93" stroke="#1F161E" stroke-width="0.55" stroke-miterlimit="10" stroke-linecap="round"/>
</g>
<defs>
<clipPath id="clip0">
<rect width="665" height="360" fill="white"/>
</clipPath>
</defs>
</svg>
