<svg width="123" height="123" viewBox="0 0 123 123" fill="none" xmlns="http://www.w3.org/2000/svg">
<circle cx="61.5" cy="61.5" r="58" fill="#FFDB66" stroke="white" stroke-width="7"/>
<path d="M74.3706 48.6395C72.6408 46.9038 70.5878 45.5237 68.3276 44.577C66.0095 43.603 63.5195 43.104 61.005 43.1094H60.9187C55.8558 43.1297 51.1179 45.1102 47.5734 48.6903C44.0237 52.2704 42.089 57.0235 42.1093 62.0864C42.1245 65.1485 42.8862 68.1903 44.3183 70.8766L44.5468 71.3032V78.4532H51.6968L52.1234 78.6817C54.8097 80.1137 57.8515 80.8754 60.9136 80.8907H60.9999C66.0273 80.8907 70.7499 78.9508 74.3097 75.4266C77.8847 71.8821 79.8702 67.1442 79.9007 62.0864C79.9109 59.5168 79.4183 57.0286 78.4331 54.6825C77.4858 52.4226 76.1057 50.3698 74.3706 48.6395V48.6395ZM50.8437 64.4375C50.2058 64.4245 49.5985 64.162 49.152 63.7063C48.7055 63.2506 48.4554 62.638 48.4554 62C48.4554 61.3621 48.7055 60.7495 49.152 60.2938C49.5985 59.8381 50.2058 59.5756 50.8437 59.5625C51.4815 59.5756 52.0888 59.8381 52.5353 60.2938C52.9818 60.7495 53.2319 61.3621 53.2319 62C53.2319 62.638 52.9818 63.2506 52.5353 63.7063C52.0888 64.162 51.4815 64.4245 50.8437 64.4375V64.4375ZM60.9999 64.4375C60.3621 64.4245 59.7547 64.162 59.3082 63.7063C58.8617 63.2506 58.6117 62.638 58.6117 62C58.6117 61.3621 58.8617 60.7495 59.3082 60.2938C59.7547 59.8381 60.3621 59.5756 60.9999 59.5625C61.6378 59.5756 62.2451 59.8381 62.6916 60.2938C63.1381 60.7495 63.3882 61.3621 63.3882 62C63.3882 62.638 63.1381 63.2506 62.6916 63.7063C62.2451 64.162 61.6378 64.4245 60.9999 64.4375V64.4375ZM71.1562 64.4375C70.5183 64.4245 69.911 64.162 69.4645 63.7063C69.018 63.2506 68.7679 62.638 68.7679 62C68.7679 61.3621 69.018 60.7495 69.4645 60.2938C69.911 59.8381 70.5183 59.5756 71.1562 59.5625C71.794 59.5756 72.4013 59.8381 72.8478 60.2938C73.2943 60.7495 73.5444 61.3621 73.5444 62C73.5444 62.638 73.2943 63.2506 72.8478 63.7063C72.4013 64.162 71.794 64.4245 71.1562 64.4375V64.4375Z" fill="#FFF5D3"/>
<path d="M68.7188 62C68.7188 62.6465 68.9756 63.2665 69.4327 63.7236C69.8898 64.1807 70.5098 64.4375 71.1563 64.4375C71.8027 64.4375 72.4227 64.1807 72.8799 63.7236C73.337 63.2665 73.5938 62.6465 73.5938 62C73.5938 61.3535 73.337 60.7335 72.8799 60.2764C72.4227 59.8193 71.8027 59.5625 71.1563 59.5625C70.5098 59.5625 69.8898 59.8193 69.4327 60.2764C68.9756 60.7335 68.7188 61.3535 68.7188 62ZM48.4063 62C48.4063 62.6465 48.6631 63.2665 49.1202 63.7236C49.5773 64.1807 50.1973 64.4375 50.8438 64.4375C51.4902 64.4375 52.1102 64.1807 52.5674 63.7236C53.0245 63.2665 53.2813 62.6465 53.2813 62C53.2813 61.3535 53.0245 60.7335 52.5674 60.2764C52.1102 59.8193 51.4902 59.5625 50.8438 59.5625C50.1973 59.5625 49.5773 59.8193 49.1202 60.2764C48.6631 60.7335 48.4063 61.3535 48.4063 62Z" fill="#D1A000"/>
<path d="M81.9831 53.1844C80.8355 50.4574 79.1901 48.0098 77.0929 45.9074C75.0103 43.8172 72.538 42.1558 69.8159 41.0172C67.0229 39.8441 64.0573 39.25 61.0003 39.25H60.8987C57.8214 39.2652 54.8405 39.8746 52.0374 41.073C49.3387 42.2234 46.8895 43.8877 44.8265 45.9734C42.7495 48.0707 41.1194 50.5082 39.9921 53.225C38.8241 56.0383 38.2351 59.0293 38.2503 62.1066C38.2675 65.6332 39.1018 69.1079 40.6878 72.2578V79.9766C40.6878 80.5961 40.9339 81.1902 41.372 81.6283C41.81 82.0664 42.4042 82.3125 43.0237 82.3125H50.7476C53.8975 83.8984 57.3721 84.7328 60.8987 84.75H61.0054C64.0472 84.75 66.9976 84.1609 69.7753 83.0082C72.4836 81.8831 74.9467 80.2411 77.0269 78.1738C79.1241 76.0969 80.7745 73.6695 81.9272 70.9629C83.1257 68.1598 83.7351 65.1789 83.7503 62.1016C83.7655 59.009 83.1663 56.0078 81.9831 53.1844ZM74.3101 75.4266C70.7503 78.9508 66.0276 80.8906 61.0003 80.8906H60.914C57.8519 80.8754 54.8101 80.1137 52.1237 78.6816L51.6972 78.4531H44.5472V71.3031L44.3186 70.8766C42.8866 68.1902 42.1249 65.1484 42.1097 62.0863C42.0894 57.0234 44.0241 52.2703 47.5737 48.6902C51.1183 45.1102 55.8562 43.1297 60.919 43.1094H61.0054C63.5444 43.1094 66.0073 43.602 68.328 44.577C70.5929 45.5266 72.6241 46.8926 74.371 48.6395C76.1128 50.3813 77.4839 52.4176 78.4335 54.6824C79.4187 57.0285 79.9112 59.5168 79.9011 62.0863C79.8706 67.1441 77.8851 71.882 74.3101 75.4266Z" fill="#D1A000"/>
<path d="M58.5625 62C58.5625 62.6465 58.8193 63.2665 59.2765 63.7236C59.7336 64.1807 60.3536 64.4375 61 64.4375C61.6465 64.4375 62.2665 64.1807 62.7236 63.7236C63.1807 63.2665 63.4375 62.6465 63.4375 62C63.4375 61.3535 63.1807 60.7335 62.7236 60.2764C62.2665 59.8193 61.6465 59.5625 61 59.5625C60.3536 59.5625 59.7336 59.8193 59.2765 60.2764C58.8193 60.7335 58.5625 61.3535 58.5625 62Z" fill="#D1A000"/>
</svg>
