<svg id="Layer_1" enable-background="new 0 0 128 128" height="512" viewBox="0 0 128 128" width="512" xmlns="http://www.w3.org/2000/svg"><g><g><circle cx="66" cy="66" fill="#e6e7e8" r="52.529"/></g><g><ellipse cx="62" cy="62" fill="#fa759e" rx="51.529" ry="51.529" transform="matrix(.973 -.23 .23 .973 -12.586 15.903)"/><g><path d="m13.471 62c0-27.956 22.266-50.696 50.029-51.491-.5-.014-.997-.038-1.5-.038-28.459 0-51.529 23.07-51.529 51.529s23.07 51.529 51.529 51.529c.503 0 1-.024 1.5-.038-27.763-.795-50.029-23.535-50.029-51.491z" fill="#fff"/></g><g><path d="m84.49 46.756c-5.777-4.771-14.381-3.913-19.679 1.385l-.568.568c-1.239 1.239-3.247 1.239-4.486 0l-.568-.568c-5.298-5.298-13.902-6.156-19.679-1.385-6.627 5.473-6.976 15.305-1.045 21.236l3.247 3.247 15.802 15.801c2.477 2.477 6.494 2.477 8.971 0l15.801-15.801 3.247-3.247c5.932-5.931 5.584-15.763-1.043-21.236z" fill="#ffd7e5"/><g fill="#3a2c60"><path d="m110.633 48.239c.592 2.098 1.052 4.256 1.366 6.414.073.498.5.856.988.856.048 0 .097-.003.146-.01.546-.08.925-.587.846-1.134-.327-2.244-.805-4.488-1.42-6.669-.15-.532-.702-.837-1.234-.691-.533.15-.842.703-.692 1.234z"/><path d="m114.479 59.693c-.024-.552-.506-.979-1.042-.956-.552.024-.979.491-.956 1.042.032.736.048 1.477.048 2.22 0 27.862-22.667 50.529-50.529 50.529s-50.529-22.666-50.529-50.528 22.667-50.529 50.529-50.529c20.611 0 38.974 12.324 46.782 31.397.209.511.792.757 1.304.546.511-.209.756-.793.546-1.304-8.116-19.827-27.206-32.639-48.632-32.639-28.965 0-52.529 23.564-52.529 52.529s23.564 52.529 52.529 52.529 52.529-23.564 52.529-52.529c0-.773-.016-1.542-.05-2.307z"/><path d="m64.104 47.434-.568.568c-.82.82-2.251.821-3.072 0l-.568-.567c-5.776-5.777-15.01-6.414-21.022-1.449-3.398 2.806-5.384 6.758-5.592 11.129-.206 4.312 1.426 8.534 4.477 11.585l19.048 19.048c1.387 1.387 3.231 2.151 5.193 2.151s3.806-.764 5.192-2.151l19.048-19.048c3.05-3.05 4.683-7.272 4.478-11.584-.208-4.372-2.194-8.324-5.592-11.13-6.011-4.966-15.245-4.329-21.022 1.448zm24.616 9.776c.179 3.75-1.241 7.422-3.894 10.075l-19.048 19.048c-1.009 1.009-2.351 1.565-3.778 1.565s-2.77-.556-3.779-1.565l-19.048-19.048c-2.653-2.653-4.072-6.326-3.894-10.076.181-3.801 1.91-7.24 4.868-9.682 2.348-1.939 5.267-2.89 8.229-2.89 3.629 0 7.322 1.427 10.106 4.211l.568.567c.788.788 1.835 1.222 2.95 1.222s2.162-.434 2.95-1.222l.568-.568c5.055-5.056 13.109-5.637 18.334-1.321 2.959 2.444 4.688 5.883 4.868 9.684z"/></g></g></g></g></svg>