<svg width="123" height="123" viewBox="0 0 123 123" fill="none" xmlns="http://www.w3.org/2000/svg">
<circle cx="61.5" cy="61.5" r="58" fill="#FFB85C" stroke="white" stroke-width="7"/>
<path d="M46.6594 70.4347C46.4715 71.0237 46.375 71.6484 46.375 72.2831C46.375 71.6484 46.4766 71.0237 46.6645 70.4347H46.6594ZM50.534 57.2214H44.3438V66.7784H50.534L51.1891 67.0425L77.6563 77.6761V46.3237L51.1891 56.9573L50.534 57.2214Z" fill="#FFDFB5"/>
<path d="M79.6875 41.6875C79.4945 41.6875 79.2965 41.723 79.0984 41.8043L49.8281 53.5652H41.5C41.0531 53.5652 40.6875 53.941 40.6875 54.4082V69.5918C40.6875 70.059 41.0531 70.4348 41.5 70.4348H46.6645C46.4766 71.0238 46.375 71.6484 46.375 72.2832C46.375 75.6297 49.107 78.3516 52.4688 78.3516C55.282 78.3516 57.6535 76.4422 58.3543 73.8625L79.1035 82.2008C79.3016 82.277 79.4996 82.3176 79.6926 82.3176C80.5508 82.3176 81.3176 81.5965 81.3176 80.6316V43.3734C81.3125 42.4086 80.5508 41.6875 79.6875 41.6875ZM52.4688 74.7105C51.123 74.7105 50.0312 73.6238 50.0312 72.2832C50.0312 71.7145 50.2293 71.1711 50.5898 70.7395L54.9012 72.4711C54.7996 73.7203 53.7484 74.7105 52.4688 74.7105V74.7105ZM77.6562 77.6762L51.1891 67.0426L50.534 66.7785H44.3438V57.2215H50.534L51.1891 56.9574L77.6562 46.3238V77.6762V77.6762Z" fill="#D67900"/>
</svg>
