<svg width="123" height="123" viewBox="0 0 123 123" fill="none" xmlns="http://www.w3.org/2000/svg">
<circle cx="61.5" cy="61.5" r="58" fill="#A8D4F2" stroke="white" stroke-width="7"/>
<path d="M43.5234 78.4766H77.4766V44.5234H43.5234V78.4766ZM61.0952 66.9346H70.6704C70.8826 66.9346 71.0586 67.1209 71.0586 67.3486V69.833C71.0586 70.0607 70.8826 70.2471 70.6704 70.2471H61.0952C60.883 70.2471 60.707 70.0607 60.707 69.833V67.3486C60.707 67.1209 60.883 66.9346 61.0952 66.9346ZM49.9414 66.5878C49.9414 66.4688 49.9983 66.3497 50.0915 66.2721L55.7745 61.5L50.0915 56.7279C50.0439 56.6904 50.0056 56.6423 49.9796 56.5876C49.9536 56.5328 49.9405 56.4728 49.9414 56.4122V53.167C49.9414 52.815 50.3503 52.6235 50.6194 52.8513L60.5569 61.1791C60.7588 61.3447 60.7588 61.6501 60.5569 61.8157L50.6194 70.1487C50.3503 70.3765 49.9414 70.185 49.9414 69.833V66.5878V66.5878Z" fill="#DFF5FF"/>
<path d="M79.5469 40.7969H41.4531C40.537 40.7969 39.7969 41.537 39.7969 42.4531V80.5469C39.7969 81.463 40.537 82.2031 41.4531 82.2031H79.5469C80.463 82.2031 81.2031 81.463 81.2031 80.5469V42.4531C81.2031 41.537 80.463 40.7969 79.5469 40.7969ZM77.4766 78.4766H43.5234V44.5234H77.4766V78.4766Z" fill="#1890FF"/>
<path d="M50.6193 70.1488L60.5568 61.8157C60.7586 61.6501 60.7586 61.3447 60.5568 61.1791L50.6193 52.8513C50.5593 52.8003 50.4859 52.7675 50.4079 52.757C50.3298 52.7464 50.2504 52.7585 50.179 52.7917C50.1076 52.825 50.0473 52.878 50.0051 52.9445C49.963 53.011 49.9408 53.0882 49.9412 53.167V56.4122C49.9412 56.5364 49.993 56.6503 50.0913 56.7279L55.7743 61.5L50.0913 66.2721C50.0451 66.3108 50.0077 66.3591 49.9818 66.4136C49.9559 66.4681 49.9421 66.5275 49.9412 66.5878V69.8331C49.9412 70.185 50.3501 70.3765 50.6193 70.1488ZM60.7069 69.8331C60.7069 70.0608 60.8828 70.2471 61.095 70.2471H70.6702C70.8824 70.2471 71.0584 70.0608 71.0584 69.8331V67.3487C71.0584 67.1209 70.8824 66.9346 70.6702 66.9346H61.095C60.8828 66.9346 60.7069 67.1209 60.7069 67.3487V69.8331Z" fill="#1890FF"/>
</svg>
