<svg width="123" height="123" viewBox="0 0 123 123" fill="none" xmlns="http://www.w3.org/2000/svg">
<circle cx="61.5" cy="61.5" r="58" fill="#C4E27C" stroke="white" stroke-width="7"/>
<path d="M71.7859 47.4207C68.9066 44.6074 65.0777 43.0586 61 43.0586C56.9223 43.0586 53.0934 44.6074 50.2141 47.4156C47.3449 50.2188 45.7656 53.9359 45.7656 57.8918C45.7656 70.1453 57.6535 78.5699 61 80.6977C64.3465 78.5699 76.2344 70.1453 76.2344 57.8918C76.2344 53.9359 74.6551 50.2188 71.7859 47.4207V47.4207ZM61 67.2305C56.0641 67.2305 52.0625 63.2289 52.0625 58.293C52.0625 53.357 56.0641 49.3555 61 49.3555C65.9359 49.3555 69.9375 53.357 69.9375 58.293C69.9375 63.2289 65.9359 67.2305 61 67.2305Z" fill="#EEFFC5"/>
<path d="M61 49.3555C56.0641 49.3555 52.0625 53.357 52.0625 58.293C52.0625 63.2289 56.0641 67.2305 61 67.2305C65.9359 67.2305 69.9375 63.2289 69.9375 58.293C69.9375 53.357 65.9359 49.3555 61 49.3555ZM65.0219 62.3148C64.4944 62.8439 63.8675 63.2634 63.1772 63.5492C62.487 63.8351 61.7471 63.9816 61 63.9805C59.4816 63.9805 58.0547 63.3863 56.9781 62.3148C56.4491 61.7873 56.0296 61.1604 55.7437 60.4702C55.4579 59.78 55.3113 59.04 55.3125 58.293C55.3125 56.7746 55.9066 55.3477 56.9781 54.2711C58.0547 53.1945 59.4816 52.6055 61 52.6055C62.5184 52.6055 63.9453 53.1945 65.0219 54.2711C66.0984 55.3477 66.6875 56.7746 66.6875 58.293C66.6875 59.8113 66.0984 61.2383 65.0219 62.3148Z" fill="#8BC500"/>
<path d="M78.3977 50.6809C77.4416 48.4763 76.0632 46.4803 74.3402 44.8055C72.6116 43.1155 70.5737 41.7741 68.3379 40.8547C66.0121 39.8898 63.5441 39.4023 61 39.4023C58.4559 39.4023 55.9879 39.8898 53.6621 40.8496C51.4125 41.7789 49.3965 43.1094 47.6598 44.8004C45.9379 46.4762 44.5596 48.472 43.6023 50.6758C42.6121 52.9609 42.1094 55.3883 42.1094 57.8867C42.1094 61.4719 42.9676 65.0418 44.6535 68.4848C46.0094 71.2523 47.9035 73.9488 50.2902 76.5133C54.368 80.8906 58.6437 83.5668 59.8574 84.2828C60.2019 84.4863 60.5948 84.5933 60.9949 84.5926C61.391 84.5926 61.782 84.491 62.1324 84.2828C63.3461 83.5668 67.6219 80.8906 71.6996 76.5133C74.0863 73.9539 75.9805 71.2523 77.3363 68.4848C79.0324 65.0469 79.8906 61.482 79.8906 57.8918C79.8906 55.3934 79.3879 52.966 78.3977 50.6809ZM61 80.6977C57.6535 78.5699 45.7656 70.1453 45.7656 57.8918C45.7656 53.9359 47.3449 50.2187 50.2141 47.4156C53.0934 44.6074 56.9223 43.0586 61 43.0586C65.0777 43.0586 68.9066 44.6074 71.7859 47.4207C74.6551 50.2187 76.2344 53.9359 76.2344 57.8918C76.2344 70.1453 64.3465 78.5699 61 80.6977Z" fill="#8BC500"/>
</svg>
