<svg width="3254" height="2180" viewBox="0 0 3254 2180" fill="none" xmlns="http://www.w3.org/2000/svg">
<path d="M1013.06 244.206L768.854 151.048L844.954 321.015L920.981 490.821L1089.66 415.297C1182.52 373.723 1258.13 339.291 1257.77 338.488C1257.48 337.845 1147.42 295.326 1013.06 244.206Z" fill="#E9E0FF"/>
<path d="M1098.29 434.574L929.613 510.098L1005.28 679.1L1081.02 848.264L1174.18 604.058C1225.53 469.79 1267.26 359.692 1267.19 359.532C1267.05 359.211 1191.15 393 1098.29 434.574Z" fill="#E9E0FF"/>
<path d="M750.406 160.269C748.8 160.988 563.106 647.771 563.825 649.377C564.113 650.02 640.404 616.248 733.348 574.441L902.135 498.291L826.949 329.073C785.464 235.985 751.049 159.981 750.406 160.269Z" fill="#E9E0FF"/>
<path d="M742.129 594.04L572.162 670.139L817.53 763.74C952.425 815.199 1063.06 857.27 1063.22 857.198C1063.54 857.054 1029.54 780.674 987.818 687.497L911.935 518.012L742.129 594.04Z" fill="#E9E0FF"/>
<path d="M806.53 775.472L562.324 682.315L638.424 852.281L714.451 1022.09L883.132 946.563C975.988 904.989 1051.6 870.558 1051.24 869.754C1050.95 869.112 940.887 826.593 806.53 775.472Z" fill="#E9E0FF"/>
<path d="M891.763 965.84L723.081 1041.36L798.749 1210.37L874.488 1379.53L967.646 1135.33C1019 1001.06 1060.73 890.959 1060.66 890.799C1060.52 890.477 984.618 924.266 891.763 965.84Z" fill="#E9E0FF"/>
<path d="M543.876 691.535C542.27 692.255 356.576 1179.04 357.295 1180.64C357.583 1181.29 433.874 1147.51 526.818 1105.71L695.605 1029.56L620.419 860.339C578.934 767.251 544.519 691.248 543.876 691.535Z" fill="#E9E0FF"/>
<path d="M535.598 1125.31L365.631 1201.41L610.999 1295.01C745.894 1346.47 856.528 1388.54 856.689 1388.46C857.01 1388.32 823.005 1311.94 781.287 1218.76L705.404 1049.28L535.598 1125.31Z" fill="#E9E0FF"/>
<path d="M601.656 1315.49L357.45 1222.33L433.55 1392.3L509.577 1562.11L678.258 1486.58C771.114 1445.01 846.724 1410.58 846.364 1409.77C846.077 1409.13 736.013 1366.61 601.656 1315.49Z" fill="#E9E0FF"/>
<path d="M686.889 1505.86L518.207 1581.38L593.875 1750.39L669.614 1919.55L762.772 1675.34C814.125 1541.07 855.858 1430.98 855.786 1430.82C855.642 1430.5 779.744 1464.28 686.889 1505.86Z" fill="#E9E0FF"/>
<path d="M339.003 1231.55C337.397 1232.27 151.703 1719.06 152.422 1720.66C152.709 1721.3 229.001 1687.53 321.945 1645.73L490.732 1569.58L415.546 1400.36C374.061 1307.27 339.646 1231.27 339.003 1231.55Z" fill="#E9E0FF"/>
<path d="M330.724 1665.32L160.757 1741.42L406.125 1835.02C541.02 1886.48 651.654 1928.55 651.815 1928.48C652.136 1928.34 618.131 1851.96 576.413 1758.78L500.53 1589.3L330.724 1665.32Z" fill="#E9E0FF"/>
<path d="M1616.58 293.574L1372.38 200.417L1448.48 370.383L1524.51 540.189L1693.19 464.665C1786.04 423.091 1861.65 388.66 1861.29 387.856C1861.01 387.214 1750.94 344.695 1616.58 293.574Z" fill="#E9E0FF"/>
<path d="M1701.82 483.942L1533.14 559.466L1608.8 728.469L1684.54 897.632L1777.7 653.427C1829.05 519.158 1870.79 409.061 1870.71 408.9C1870.57 408.579 1794.67 442.368 1701.82 483.942Z" fill="#E9E0FF"/>
<path d="M1353.93 209.637C1352.32 210.357 1166.63 697.139 1167.35 698.746C1167.64 699.389 1243.93 665.616 1336.87 623.809L1505.66 547.66L1430.47 378.441C1388.99 285.353 1354.57 209.35 1353.93 209.637Z" fill="#E9E0FF"/>
<path d="M1345.65 643.408L1175.69 719.508L1421.05 813.109C1555.95 864.567 1666.58 906.638 1666.74 906.566C1667.06 906.422 1633.06 830.042 1591.34 736.866L1515.46 567.381L1345.65 643.408Z" fill="#E9E0FF"/>
<path d="M1410.05 824.84L1165.85 731.682L1241.95 901.649L1317.97 1071.45L1486.65 995.931C1579.51 954.357 1655.12 919.925 1654.76 919.122C1654.47 918.479 1544.41 875.96 1410.05 824.84Z" fill="#E9E0FF"/>
<path d="M1495.29 1015.21L1326.6 1090.73L1402.27 1259.73L1478.01 1428.9L1571.17 1184.69C1622.52 1050.42 1664.25 940.327 1664.18 940.166C1664.04 939.845 1588.14 973.634 1495.29 1015.21Z" fill="#E9E0FF"/>
<path d="M1147.4 740.903C1145.79 741.622 960.098 1228.41 960.817 1230.01C961.105 1230.65 1037.4 1196.88 1130.34 1155.08L1299.13 1078.93L1223.94 909.707C1182.46 816.619 1148.04 740.615 1147.4 740.903Z" fill="#E9E0FF"/>
<path d="M1139.12 1174.67L969.154 1250.77L1214.52 1344.37C1349.42 1395.83 1460.05 1437.9 1460.21 1437.83C1460.53 1437.69 1426.53 1361.31 1384.81 1268.13L1308.93 1098.65L1139.12 1174.67Z" fill="#E9E0FF"/>
<path d="M1205.18 1364.86L960.973 1271.7L1037.07 1441.67L1113.1 1611.47L1281.78 1535.95C1374.64 1494.37 1450.25 1459.94 1449.89 1459.14C1449.6 1458.5 1339.54 1415.98 1205.18 1364.86Z" fill="#E9E0FF"/>
<path d="M1290.41 1555.23L1121.73 1630.75L1197.4 1799.75L1273.14 1968.92L1366.29 1724.71C1417.65 1590.44 1459.38 1480.34 1459.31 1480.18C1459.16 1479.86 1383.27 1513.65 1290.41 1555.23Z" fill="#E9E0FF"/>
<path d="M942.525 1280.92C940.918 1281.64 755.224 1768.42 755.943 1770.03C756.231 1770.67 832.522 1736.9 925.466 1695.09L1094.25 1618.94L1019.07 1449.72C977.582 1356.64 943.167 1280.63 942.525 1280.92Z" fill="#E9E0FF"/>
<path d="M934.247 1714.69L764.28 1790.79L1009.65 1884.39C1144.54 1935.85 1255.18 1977.92 1255.34 1977.85C1255.66 1977.71 1221.65 1901.33 1179.94 1808.15L1104.05 1638.66L934.247 1714.69Z" fill="#E9E0FF"/>
<path d="M2220.11 342.942L1975.9 249.784L2052 419.751L2128.03 589.557L2296.71 514.033C2389.56 472.459 2465.18 438.027 2464.82 437.224C2464.53 436.581 2354.46 394.062 2220.11 342.942Z" fill="#E9E0FF"/>
<path d="M2305.34 533.31L2136.66 608.834L2212.33 777.836L2288.07 947L2381.22 702.794C2432.58 568.526 2474.31 458.428 2474.24 458.268C2474.09 457.946 2398.19 491.736 2305.34 533.31Z" fill="#E9E0FF"/>
<path d="M1957.45 259.005C1955.85 259.724 1770.15 746.507 1770.87 748.113C1771.16 748.756 1847.45 714.983 1940.4 673.177L2109.18 597.027L2034 427.808C1992.51 334.721 1958.1 258.717 1957.45 259.005Z" fill="#E9E0FF"/>
<path d="M1949.18 692.776L1779.21 768.875L2024.58 862.477C2159.47 913.935 2270.11 956.006 2270.27 955.934C2270.59 955.79 2236.58 879.41 2194.87 786.233L2118.98 616.749L1949.18 692.776Z" fill="#E9E0FF"/>
<path d="M2013.58 874.208L1769.37 781.051L1845.47 951.018L1921.5 1120.82L2090.18 1045.3C2183.03 1003.73 2258.64 969.294 2258.28 968.491C2258 967.848 2147.93 925.329 2013.58 874.208Z" fill="#E9E0FF"/>
<path d="M2098.81 1064.58L1930.13 1140.1L2005.8 1309.1L2081.54 1478.27L2174.69 1234.06C2226.05 1099.79 2267.78 989.695 2267.71 989.534C2267.56 989.213 2191.66 1023 2098.81 1064.58Z" fill="#E9E0FF"/>
<path d="M1750.92 790.271C1749.32 790.99 1563.62 1277.77 1564.34 1279.38C1564.63 1280.02 1640.92 1246.25 1733.86 1204.44L1902.65 1128.29L1827.47 959.075C1785.98 865.987 1751.57 789.983 1750.92 790.271Z" fill="#E9E0FF"/>
<path d="M1742.64 1224.04L1572.68 1300.14L1818.05 1393.74C1952.94 1445.2 2063.57 1487.27 2063.73 1487.2C2064.06 1487.06 2030.05 1410.68 1988.33 1317.5L1912.45 1148.01L1742.64 1224.04Z" fill="#E9E0FF"/>
<path d="M1808.7 1414.23L1564.5 1321.07L1640.6 1491.04L1716.62 1660.84L1885.3 1585.32C1978.16 1543.74 2053.77 1509.31 2053.41 1508.51C2053.12 1507.87 1943.06 1465.35 1808.7 1414.23Z" fill="#E9E0FF"/>
<path d="M1893.93 1604.59L1725.25 1680.12L1800.92 1849.12L1876.66 2018.28L1969.82 1774.08C2021.17 1639.81 2062.9 1529.71 2062.83 1529.55C2062.69 1529.23 1986.79 1563.02 1893.93 1604.59Z" fill="#E9E0FF"/>
<path d="M1546.05 1330.29C1544.44 1331.01 1358.75 1817.79 1359.47 1819.4C1359.75 1820.04 1436.05 1786.27 1528.99 1744.46L1697.78 1668.31L1622.59 1499.09C1581.11 1406.01 1546.69 1330 1546.05 1330.29Z" fill="#E9E0FF"/>
<path d="M1537.77 1764.06L1367.8 1840.16L1613.17 1933.76C1748.07 1985.22 1858.7 2027.29 1858.86 2027.22C1859.18 2027.07 1825.18 1950.69 1783.46 1857.52L1707.58 1688.03L1537.77 1764.06Z" fill="#E9E0FF"/>
<path d="M2848.32 342.942L2604.11 249.784L2680.21 419.751L2756.24 589.557L2924.92 514.033C3017.78 472.459 3093.39 438.027 3093.03 437.224C3092.74 436.581 2982.68 394.062 2848.32 342.942Z" fill="#E9E0FF"/>
<path d="M2933.55 533.31L2764.87 608.834L2840.54 777.836L2916.28 947L3009.44 702.794C3060.79 568.526 3102.52 458.428 3102.45 458.268C3102.31 457.946 3026.41 491.736 2933.55 533.31Z" fill="#E9E0FF"/>
<path d="M2585.67 259.005C2584.06 259.724 2398.36 746.507 2399.08 748.113C2399.37 748.756 2475.66 714.983 2568.61 673.177L2737.39 597.027L2662.21 427.808C2620.72 334.721 2586.31 258.717 2585.67 259.005Z" fill="#E9E0FF"/>
<path d="M2577.39 692.776L2407.42 768.875L2652.79 862.477C2787.68 913.935 2898.32 956.006 2898.48 955.934C2898.8 955.79 2864.79 879.41 2823.08 786.233L2747.19 616.749L2577.39 692.776Z" fill="#E9E0FF"/>
<path d="M2641.79 874.208L2397.58 781.051L2473.68 951.018L2549.71 1120.82L2718.39 1045.3C2811.24 1003.73 2886.85 969.294 2886.49 968.491C2886.21 967.848 2776.14 925.329 2641.79 874.208Z" fill="#E9E0FF"/>
<path d="M2727.02 1064.58L2558.34 1140.1L2634 1309.1L2709.74 1478.27L2802.9 1234.06C2854.25 1099.79 2895.99 989.695 2895.92 989.534C2895.77 989.213 2819.87 1023 2727.02 1064.58Z" fill="#E9E0FF"/>
<path d="M2379.13 790.271C2377.53 790.99 2191.83 1277.77 2192.55 1279.38C2192.84 1280.02 2269.13 1246.25 2362.07 1204.44L2530.86 1128.29L2455.67 959.075C2414.19 865.987 2379.77 789.983 2379.13 790.271Z" fill="#E9E0FF"/>
<path d="M2370.85 1224.04L2200.89 1300.14L2446.26 1393.74C2581.15 1445.2 2691.78 1487.27 2691.94 1487.2C2692.27 1487.06 2658.26 1410.68 2616.54 1317.5L2540.66 1148.02L2370.85 1224.04Z" fill="#E9E0FF"/>
<path d="M2436.91 1414.23L2192.7 1321.07L2268.8 1491.04L2344.83 1660.84L2513.51 1585.32C2606.37 1543.74 2681.98 1509.31 2681.62 1508.51C2681.33 1507.87 2571.27 1465.35 2436.91 1414.23Z" fill="#E9E0FF"/>
<path d="M2522.14 1604.59L2353.46 1680.12L2429.13 1849.12L2504.87 2018.28L2598.02 1774.08C2649.38 1639.81 2691.11 1529.71 2691.04 1529.55C2690.89 1529.23 2615 1563.02 2522.14 1604.59Z" fill="#E9E0FF"/>
<path d="M2174.26 1330.29C2172.65 1331.01 1986.95 1817.79 1987.67 1819.4C1987.96 1820.04 2064.25 1786.27 2157.2 1744.46L2325.98 1668.31L2250.8 1499.09C2209.31 1406 2174.9 1330 2174.26 1330.29Z" fill="#E9E0FF"/>
<path d="M2165.98 1764.06L1996.01 1840.16L2241.38 1933.76C2376.27 1985.22 2486.91 2027.29 2487.07 2027.22C2487.39 2027.07 2453.38 1950.69 2411.67 1857.52L2335.78 1688.03L2165.98 1764.06Z" fill="#E9E0FF"/>
</svg>
