<svg width="472" height="398" viewBox="0 0 472 398" fill="none" xmlns="http://www.w3.org/2000/svg">
<g clip-path="url(#clip0)">
<path d="M351.298 112.243H229.314V301.203H351.298V112.243Z" fill="white"/>
<path d="M204.866 227.576H329.938" stroke="black" stroke-miterlimit="10"/>
<path d="M204.866 239.933H329.938" stroke="black" stroke-miterlimit="10"/>
<path d="M204.866 252.29H329.938" stroke="black" stroke-miterlimit="10"/>
<path d="M204.866 264.647H329.938" stroke="black" stroke-miterlimit="10"/>
<path d="M290.306 199.257C307.93 199.257 322.217 184.965 322.217 167.335C322.217 149.705 307.93 135.413 290.306 135.413C272.682 135.413 258.395 149.705 258.395 167.335C258.395 184.965 272.682 199.257 290.306 199.257Z" fill="#F2F2F2"/>
<path opacity="0.7" d="M380.378 179.435H329.938V226.288H380.378V179.435Z" fill="#BABABA"/>
<path d="M347.264 208.879L357.691 213.093V216.358L344.066 210.045V207.613L357.691 201.316V204.581L347.264 208.879ZM345.815 261.688H343.167L353.294 235.353H355.926L345.815 261.688ZM356.109 288.779L345.099 284.465V281.3L359.324 287.596V290.028L345.099 296.341V293.143L356.109 288.779Z" fill="white"/>
<path d="M290.82 19.3079H18.5444V198.485H290.82V19.3079Z" stroke="black" stroke-miterlimit="10"/>
<path d="M18.5444 28.8331H290.82" stroke="black" stroke-miterlimit="10"/>
<path d="M120.198 44.7943H38.3604V126.66H120.198V44.7943Z" stroke="black" stroke-miterlimit="10"/>
<path d="M135.896 52.0026H260.968" stroke="black" stroke-miterlimit="10"/>
<path d="M135.896 64.3596H260.968" stroke="black" stroke-miterlimit="10"/>
<path d="M135.896 76.7167H260.968" stroke="black" stroke-miterlimit="10"/>
<path d="M135.896 89.0737H260.968" stroke="black" stroke-miterlimit="10"/>
<path opacity="0.44" d="M79.2787 66.4191L56.9922 105.035H101.565L79.2787 66.4191Z" fill="#BABABA"/>
<path d="M24.4636 26.5161C25.7428 26.5161 26.7798 25.4788 26.7798 24.1991C26.7798 22.9195 25.7428 21.8822 24.4636 21.8822C23.1844 21.8822 22.1475 22.9195 22.1475 24.1991C22.1475 25.4788 23.1844 26.5161 24.4636 26.5161Z" fill="#AB8DE5"/>
<path d="M32.4411 26.5161C33.7203 26.5161 34.7573 25.4788 34.7573 24.1991C34.7573 22.9195 33.7203 21.8822 32.4411 21.8822C31.162 21.8822 30.125 22.9195 30.125 24.1991C30.125 25.4788 31.162 26.5161 32.4411 26.5161Z" fill="#73E5E2"/>
<path d="M40.4192 26.5161C41.6983 26.5161 42.7353 25.4788 42.7353 24.1991C42.7353 22.9195 41.6983 21.8822 40.4192 21.8822C39.14 21.8822 38.103 22.9195 38.103 24.1991C38.103 25.4788 39.14 26.5161 40.4192 26.5161Z" fill="#50B89D"/>
<path d="M138.469 165.404L146.19 158.582H138.315L138.469 165.404Z" fill="#6331D8"/>
<path d="M179.81 133.096H141.393C135.514 133.096 130.749 137.863 130.749 143.743V148.707C130.749 154.587 135.514 159.354 141.393 159.354H179.81C185.689 159.354 190.454 154.587 190.454 148.707V143.743C190.454 137.863 185.689 133.096 179.81 133.096Z" fill="#6331D8"/>
<path d="M152.624 148.542C153.903 148.542 154.94 147.505 154.94 146.225C154.94 144.945 153.903 143.908 152.624 143.908C151.345 143.908 150.308 144.945 150.308 146.225C150.308 147.505 151.345 148.542 152.624 148.542Z" fill="white"/>
<path d="M160.601 148.542C161.88 148.542 162.917 147.505 162.917 146.225C162.917 144.945 161.88 143.908 160.601 143.908C159.322 143.908 158.285 144.945 158.285 146.225C158.285 147.505 159.322 148.542 160.601 148.542Z" fill="white"/>
<path d="M168.579 148.542C169.859 148.542 170.896 147.505 170.896 146.225C170.896 144.945 169.859 143.908 168.579 143.908C167.3 143.908 166.263 144.945 166.263 146.225C166.263 147.505 167.3 148.542 168.579 148.542Z" fill="white"/>
<path d="M382.951 88.1727L375.231 81.3506H383.106L382.951 88.1727Z" fill="#ED315D"/>
<path d="M341.611 82.1229H380.028C385.907 82.1229 390.672 77.3558 390.672 71.4753V66.5118C390.672 60.6313 385.907 55.8642 380.028 55.8642L341.611 55.8642C335.733 55.8642 330.967 60.6313 330.967 66.5118V71.4753C330.967 77.3558 335.733 82.1229 341.611 82.1229Z" fill="#ED315D"/>
<path d="M368.798 71.3104C370.077 71.3104 371.114 70.2731 371.114 68.9935C371.114 67.7138 370.077 66.6765 368.798 66.6765C367.518 66.6765 366.481 67.7138 366.481 68.9935C366.481 70.2731 367.518 71.3104 368.798 71.3104Z" fill="white"/>
<path d="M360.82 71.3104C362.099 71.3104 363.136 70.2731 363.136 68.9935C363.136 67.7138 362.099 66.6765 360.82 66.6765C359.54 66.6765 358.503 67.7138 358.503 68.9935C358.503 70.2731 359.54 71.3104 360.82 71.3104Z" fill="white"/>
<path d="M352.842 71.3104C354.121 71.3104 355.158 70.2731 355.158 68.9935C355.158 67.7138 354.121 66.6765 352.842 66.6765C351.562 66.6765 350.525 67.7138 350.525 68.9935C350.525 70.2731 351.562 71.3104 352.842 71.3104Z" fill="white"/>
<path d="M378.834 24.1992C380.113 24.1992 381.15 23.1619 381.15 21.8823C381.15 20.6026 380.113 19.5653 378.834 19.5653C377.555 19.5653 376.518 20.6026 376.518 21.8823C376.518 23.1619 377.555 24.1992 378.834 24.1992Z" fill="#F98B67"/>
<path d="M383.724 33.7245C385.003 33.7245 386.04 32.6871 386.04 31.4075C386.04 30.1279 385.003 29.0906 383.724 29.0906C382.445 29.0906 381.408 30.1279 381.408 31.4075C381.408 32.6871 382.445 33.7245 383.724 33.7245Z" fill="#F98B67"/>
<path d="M330.452 128.977C332.442 128.977 334.055 127.363 334.055 125.373C334.055 123.382 332.442 121.768 330.452 121.768C328.463 121.768 326.85 123.382 326.85 125.373C326.85 127.363 328.463 128.977 330.452 128.977Z" fill="#F98B67"/>
<path d="M351.555 141.334C353.545 141.334 355.158 139.72 355.158 137.73C355.158 135.739 353.545 134.125 351.555 134.125C349.565 134.125 347.952 135.739 347.952 137.73C347.952 139.72 349.565 141.334 351.555 141.334Z" fill="#F98B67"/>
<path d="M27.2943 145.453C29.2841 145.453 30.8972 143.839 30.8972 141.849C30.8972 139.858 29.2841 138.245 27.2943 138.245C25.3045 138.245 23.6914 139.858 23.6914 141.849C23.6914 143.839 25.3045 145.453 27.2943 145.453Z" fill="#F98B67"/>
<path d="M338.79 306.481V305.966L337.555 304.421L334.698 300.951L331.662 297.275C331.662 297.275 328.738 295.251 327.987 294.901C325.248 293.634 322.551 292.666 319.329 292.666C317.348 292.666 309.941 292.965 309.926 294.211C309.926 296.059 320.297 303.057 327.904 306.455C331.245 306.481 338.79 306.481 338.79 306.481Z" fill="#ED315D"/>
<path d="M337.221 306.481C326.664 298.356 305.114 254.04 310.641 237.616C322.408 243.614 335.316 264.297 341.405 281.761C341.733 282.897 341.996 284.051 342.193 285.216L344.663 296.543L345.26 306.496L337.221 306.481Z" fill="#FED4DD"/>
<path d="M344.426 306.481C340.865 303.587 339.727 295.019 339.696 291.822C339.64 285.855 340.556 281.458 345.656 274.893C350.757 268.328 349.398 257.439 356.172 250.091C362.945 242.744 367.433 240.695 375.473 240.695C383.513 240.695 386.065 253.731 386.024 257.011C385.932 270.244 377.599 272.118 372.513 278.43C368.823 283.012 368.535 286.761 367.418 288.903C361.427 300.446 356.558 304.787 352.955 306.481" fill="#F58EA6"/>
<path d="M346.393 305.523C346.496 282.956 370.269 249.062 375.35 243.98" stroke="white" stroke-width="0.4" stroke-linecap="round" stroke-linejoin="round"/>
<path d="M347.674 295.267C345.044 292.399 342.65 284.269 343.011 282.158" stroke="white" stroke-width="0.4" stroke-linecap="round" stroke-linejoin="round"/>
<path d="M340.937 304.534C337.21 297.928 319.53 265.718 312.937 241.992" stroke="white" stroke-width="0.4" stroke-linecap="round" stroke-linejoin="round"/>
<path d="M352.975 306.481H364.052L354.787 340.977H330.015L320.899 306.481H352.975Z" fill="#B37361"/>
<path d="M313.549 294.911C318.949 295.282 325.743 295.529 330.534 298.799" stroke="white" stroke-width="0.4" stroke-linecap="round" stroke-linejoin="round"/>
<path d="M399.134 165.276C397.832 171.49 388.372 248.577 391.465 266.989C394.558 285.401 444.994 323.981 447.202 324.656C449.775 322.766 453.564 316.572 453.564 316.572C453.564 316.572 416.582 273.688 415.877 271.968C415.172 270.249 423.979 170.939 423.979 170.939L399.134 165.276Z" fill="#1F161E"/>
<path d="M459.364 179.306L421.632 333.259H408.924L421.802 172.654L459.364 179.306Z" fill="#BEA9EF"/>
<path d="M432.564 91.1589C437.773 91.1589 464.944 92.0394 469.854 101.606C474.764 111.172 470.137 155.39 467.085 157.104C465.438 158.026 464.99 157.13 464.511 159.004C464.033 160.878 459.364 179.306 459.364 179.306C456.4 179.388 413.175 172.875 399.145 165.26C399.227 163.144 399.906 157.64 399.906 157.218C398.043 157.98 395.789 158.139 395.171 157.218C389.695 148.923 397.858 105.678 403.715 96.977C406.206 93.2442 424.205 91.1847 432.564 91.1589Z" fill="#FC9803"/>
<path d="M450.455 158.299C451.731 158.299 462.72 166.022 461.778 169.817C462.55 166.769 464.979 157.352 464.979 157.352C463.935 157.552 451.391 158.315 450.455 158.299Z" fill="#1F161E"/>
<path d="M439.291 96.2047C439.291 97.8832 426.058 97.8832 426.058 96.2047V79.2137H439.291V96.2047Z" fill="#F8CDBA"/>
<path d="M431.699 83.2349C432.729 83.2349 439.291 86.1388 439.291 87.7556V79.2137C437.654 79.2137 431.699 83.2349 431.699 83.2349Z" fill="#1F161E"/>
<path d="M429.887 84.4758C436.997 84.4758 442.76 78.7106 442.76 71.5988C442.76 64.4869 436.997 58.7217 429.887 58.7217C422.778 58.7217 417.015 64.4869 417.015 71.5988C417.015 78.7106 422.778 84.4758 429.887 84.4758Z" fill="#F8CDBA"/>
<path d="M425.533 52.7749C418.924 52.7749 414.807 56.9248 414.807 62.2435C414.807 66.6663 415.877 69.1686 417.138 69.8019C417.936 65.5078 419.671 63.5204 421.107 62.6657C422.223 63.5204 424.133 65.5902 426.686 66.2286C429.239 66.8671 435.884 66.7435 441.252 70.6463C443.007 69.0502 444.757 66.9752 444.757 64.5295C444.757 62.0839 443.676 59.0152 437.32 57.244C433.12 56.0753 432.533 52.7749 425.533 52.7749Z" fill="#1F161E"/>
<path d="M417.859 75.4244C419.104 75.4244 420.113 74.8988 420.113 74.2505C420.113 73.6021 419.104 73.0765 417.859 73.0765C416.614 73.0765 415.604 73.6021 415.604 74.2505C415.604 74.8988 416.614 75.4244 417.859 75.4244Z" fill="#FA9E9F"/>
<path d="M432.039 75.4244C433.284 75.4244 434.293 74.8988 434.293 74.2505C434.293 73.6021 433.284 73.0765 432.039 73.0765C430.794 73.0765 429.785 73.6021 429.785 74.2505C429.785 74.8988 430.794 75.4244 432.039 75.4244Z" fill="#FA9E9F"/>
<path d="M423.366 71.8151C422.944 72.4175 420.793 74.9455 423.062 75.965" stroke="#1F161E" stroke-miterlimit="10" stroke-linecap="round"/>
<path d="M427.607 78.9203C428.287 78.9203 429.332 78.076 429.882 77.3191" stroke="#1F161E" stroke-miterlimit="10" stroke-linecap="round"/>
<path d="M441.787 76.0577C443.43 76.0577 444.762 74.7253 444.762 73.0817C444.762 71.4381 443.43 70.1057 441.787 70.1057C440.144 70.1057 438.812 71.4381 438.812 73.0817C438.812 74.7253 440.144 76.0577 441.787 76.0577Z" fill="#F8CDBA"/>
<path d="M450.754 116.496C450.522 119.338 449.616 133.384 449.956 135.232C445.637 136.736 406.098 155.493 399.258 157.552" stroke="#1F161E" stroke-miterlimit="10" stroke-linecap="round"/>
<path d="M404.832 112.063C403.921 115.245 400.853 129.687 403.01 136.396" stroke="#1F161E" stroke-miterlimit="10" stroke-linecap="round"/>
<path d="M414.925 150.983C416.984 152.429 436.717 161.167 464.001 157.872" stroke="#1F161E" stroke-miterlimit="10" stroke-linecap="round"/>
<path d="M413.036 136.396C414.359 136.607 410.046 133.163 407.601 134.445C405.156 135.727 401.862 141.529 402.536 142.873C402.627 143.117 402.772 143.338 402.959 143.518C403.146 143.699 403.372 143.835 403.618 143.917C403.865 143.999 404.128 144.025 404.386 143.992C404.644 143.959 404.891 143.869 405.11 143.728C405.774 143.301 410.73 136.025 413.036 136.396Z" fill="#F8CDBA"/>
<path d="M453.141 317.205C453.846 317.72 460.1 321.953 460.152 324.62C460.203 327.287 454.325 336.127 453.141 336.379C451.958 336.632 451.113 335.633 451.113 333.846C451.113 332.06 453.347 328.929 453.049 327.539C452.75 326.149 449.863 323.605 448.38 323.559" fill="#1F161E"/>
<path d="M420.427 333.259C420.427 334.485 421.137 342.177 419.717 342.893C418.296 343.608 402.618 344.031 401.908 343.32C401.198 342.61 400.765 341.111 401.393 340.684C402.021 340.257 408.084 339.041 408.908 338.475C409.732 337.909 410.869 334.871 410.452 333.259" fill="#1F161E"/>
<path d="M112.92 276.149H13.3872V326.653H112.92V276.149Z" fill="#B37361"/>
<path d="M161.956 252.48C162.388 255.055 169.728 313.91 170.916 314.883C172.105 315.856 184.731 318.014 185.812 316.397C186.028 313.823 186.327 272.777 186.996 269.106" fill="#1F161E"/>
<path d="M19.9495 240.2C14.8591 237.693 25.4722 287.399 53.405 287.399C81.3377 287.399 128.356 244.834 135.968 244.834C152.773 244.834 192.554 277.838 195.673 277.838C198.061 275.449 202.838 271.268 202.838 269.6C202.838 267.932 164.75 205.24 136.251 205.24C125.2 205.256 31.4427 245.88 19.9495 240.2Z" fill="#8A64E2"/>
<path d="M35.669 241.045C41.2535 239.778 48.2019 236.499 54.3526 233.147C37.6197 238.62 23.9081 242.157 19.9501 240.2C17.2531 238.872 18.9619 252.177 25.303 264.992C24.1552 262.515 22.5184 244.052 35.669 241.045Z" fill="#1F161E"/>
<path d="M47.98 153.845C52.3807 153.964 75.29 153.289 81.5693 159.272C86.2274 163.71 100.711 201.878 102.945 215.28C93.217 220.228 23.0532 253.834 1.33798 239.057C0.859313 227.576 3.08796 181.932 17.2885 157.995C22.4818 154.535 43.7492 153.737 47.98 153.845Z" fill="#F58EA6"/>
<path d="M56.9051 142.925H43.5229V157.31C43.5229 160.915 56.9051 160.884 56.9051 157.31V142.925Z" fill="#F8CDBA"/>
<path d="M43.5229 151.611C43.5229 150.015 47.9442 146.004 50.6773 146.148C50.7442 144.371 44.434 141.818 44.434 141.818L43.5229 144.274V151.611Z" fill="#1F161E"/>
<path d="M70.9209 142.925C71.2214 141.532 71.3732 140.112 71.3738 138.687C71.3738 128.07 63.082 119.462 52.8446 119.462C42.6072 119.462 34.3154 128.07 34.3154 138.687C34.316 140.112 34.4679 141.532 34.7684 142.925H70.9209Z" fill="#1F161E"/>
<path d="M66.0358 129.965C63.766 129.62 61.5013 127.834 59.9212 126.665C50.914 133.266 45.1442 133.353 44.5214 133.353C43.8986 133.353 41.3611 136.998 40.1928 137.41L40.0898 137.349C40.4372 139.267 41.1796 141.091 42.2698 142.707C43.36 144.323 44.7743 145.694 46.4227 146.733C48.0711 147.773 49.9176 148.458 51.8449 148.746C53.7723 149.033 55.7383 148.916 57.618 148.402C59.4978 147.889 61.2503 146.99 62.764 145.762C64.2778 144.535 65.5199 143.006 66.4112 141.272C67.3025 139.539 67.8237 137.639 67.9416 135.693C68.0596 133.748 67.7716 131.799 67.0961 129.97C66.7438 130.012 66.3877 130.011 66.0358 129.965Z" fill="#F8CDBA"/>
<path d="M42.8074 121.856C45.8263 121.856 48.2735 119.408 48.2735 116.388C48.2735 113.368 45.8263 110.92 42.8074 110.92C39.7886 110.92 37.3413 113.368 37.3413 116.388C37.3413 119.408 39.7886 121.856 42.8074 121.856Z" fill="#1F161E"/>
<path d="M45.2422 133.06C44.6515 133.088 44.0943 133.342 43.6861 133.77C43.278 134.198 43.0503 134.767 43.0503 135.359C43.0503 135.95 43.278 136.519 43.6861 136.947C44.0943 137.375 44.6515 137.629 45.2422 137.657" stroke="#1F161E" stroke-miterlimit="10" stroke-linecap="round"/>
<path d="M62.7627 133.353C63.437 134.254 65.1715 135.835 62.7627 137.508" stroke="#1F161E" stroke-miterlimit="10" stroke-linecap="round"/>
<path d="M55.459 138.713C55.459 139.388 55.7472 140.999 57.1935 141.416" stroke="#1F161E" stroke-miterlimit="10" stroke-linecap="round"/>
<path d="M50.976 138.873C52.1472 138.873 53.0966 138.379 53.0966 137.771C53.0966 137.162 52.1472 136.669 50.976 136.669C49.8049 136.669 48.8555 137.162 48.8555 137.771C48.8555 138.379 49.8049 138.873 50.976 138.873Z" fill="#FA9E9F"/>
<path d="M66.7412 138.873C67.9123 138.873 68.8617 138.379 68.8617 137.771C68.8617 137.162 67.9123 136.669 66.7412 136.669C65.57 136.669 64.6206 137.162 64.6206 137.771C64.6206 138.379 65.57 138.873 66.7412 138.873Z" fill="#FA9E9F"/>
<path d="M81.0859 193.63L95.3894 189.948C96.7637 192.286 103.455 215.255 103.455 215.255L81.3742 224.564C81.6624 220.213 82.5322 200.287 81.0859 193.63Z" fill="#F8CDBA"/>
<path d="M30.9333 190.031C30.9333 191.761 29.4767 198.346 28.6172 201.44" stroke="#1F161E" stroke-miterlimit="10" stroke-linecap="round"/>
<path d="M81.0855 193.63C80.7407 190.906 78.7231 175.558 75.29 167.479" stroke="#1F161E" stroke-miterlimit="10" stroke-linecap="round"/>
<path d="M81.0859 193.63L95.3894 189.948C96.7637 192.286 103.455 215.255 103.455 215.255L81.3742 224.564C81.6624 220.213 82.5322 200.287 81.0859 193.63Z" fill="#F8CDBA"/>
<path d="M196.101 276.623C196.42 277.138 200.681 282.369 202.189 282.425C203.698 282.482 212.854 276.278 212.453 274.944C212.051 273.611 206.307 274.481 205.319 274.012C204.331 273.544 202.123 271.34 201.762 270.362" fill="#1F161E"/>
<path d="M173.582 315.429C173.474 316.001 172.893 322.74 173.938 323.832C174.982 324.923 185.879 326.818 186.512 325.577C187.145 324.337 182.394 320.974 182.029 319.955C181.663 318.935 181.586 315.836 182.029 314.868" fill="#1F161E"/>
<path d="M156.5 216.696H108.03L119.57 186.107H168.039L156.5 216.696Z" fill="#969696"/>
<path d="M116.111 215.543H67.6421V216.696H116.111V215.543Z" fill="#969696"/>
<path d="M28.6174 201.44C27.6858 204.921 23.1616 219.852 25.0042 222.427C26.8468 225.001 72.9948 219.168 85.3424 215.322C88.4872 214.292 90.8188 211.594 92.2137 211.244C94.0047 210.94 95.8446 211.31 97.3799 212.281C98.9152 213.252 100.038 214.757 100.531 216.506C95.6004 218.895 24.4072 255.255 1.33833 239.073C-3.02118 235.947 4.62726 197.847 4.97725 195.926C8.87353 196.395 28.6174 201.44 28.6174 201.44Z" fill="#F8CDBA"/>
<path d="M81.7446 216.248C83.1343 215.919 84.349 215.595 85.3475 215.286C88.4923 214.256 90.8239 211.558 92.2188 211.208C94.0098 210.904 95.8497 211.274 97.385 212.245C98.9203 213.216 100.043 214.721 100.536 216.47" stroke="#1F161E" stroke-miterlimit="10" stroke-linecap="round"/>
</g>
<defs>
<clipPath id="clip0">
<rect width="472" height="398" fill="white"/>
</clipPath>
</defs>
</svg>
