<svg width="323" height="164" viewBox="0 0 323 164" fill="none" xmlns="http://www.w3.org/2000/svg">
<rect x="63.0361" y="47.0679" width="208.512" height="70.119" rx="11.0714" fill="#FFF1F4"/>
<rect x="65.804" y="49.8357" width="202.976" height="64.5833" rx="8.30357" stroke="#ED315D" stroke-opacity="0.56" stroke-width="5.53571"/>
<path d="M271.548 47.0679H63.0361V117.187H271.548V47.0679Z" stroke="#4C9DE9" stroke-width="2"/>
<rect x="59.6002" y="43.632" width="6.8" height="6.8" fill="#D9ECFF" stroke="#4C9DE9" stroke-width="1.2"/>
<rect x="59.6002" y="113.632" width="6.8" height="6.8" fill="#D9ECFF" stroke="#4C9DE9" stroke-width="1.2"/>
<rect x="268.6" y="113.632" width="6.8" height="6.8" fill="#D9ECFF" stroke="#4C9DE9" stroke-width="1.2"/>
<path d="M116.586 89.2891C115.715 89.2891 114.893 89.132 114.122 88.8177C113.365 88.5034 112.693 88.0391 112.107 87.4248C111.536 86.8106 111.086 86.0534 110.757 85.1534C110.443 84.2534 110.286 83.2248 110.286 82.0677C110.286 80.5391 110.565 79.232 111.122 78.1463C111.693 77.0463 112.465 76.2106 113.436 75.6391C114.422 75.0534 115.529 74.7606 116.757 74.7606C117.629 74.7606 118.407 74.9391 119.093 75.2963C119.779 75.6534 120.336 76.0606 120.765 76.5177L119.393 78.0606C119.05 77.7034 118.665 77.4248 118.236 77.2248C117.807 77.0248 117.315 76.9248 116.757 76.9248C115.986 76.9248 115.3 77.132 114.7 77.5463C114.115 77.9463 113.657 78.5248 113.329 79.282C113 80.0391 112.836 80.9463 112.836 82.0034C112.836 83.0606 113 83.9748 113.329 84.7463C113.657 85.5177 114.122 86.1106 114.722 86.5248C115.322 86.9248 116.022 87.1248 116.822 87.1248C117.407 87.1248 117.929 87.0034 118.386 86.7606C118.843 86.5034 119.272 86.1606 119.672 85.732L121.043 87.2534C120.486 87.9106 119.836 88.4177 119.093 88.7748C118.35 89.1177 117.515 89.2891 116.586 89.2891ZM130.42 89.2891C129.206 89.2891 128.278 88.932 127.635 88.2177C127.006 87.4891 126.692 86.482 126.692 85.1963V75.8534H123.263V73.9034H129.156V85.3248C129.156 86.0391 129.335 86.5463 129.692 86.8463C130.063 87.132 130.513 87.2748 131.042 87.2748C131.313 87.2748 131.592 87.2463 131.878 87.1891C132.163 87.1177 132.485 87.0106 132.842 86.8677L133.42 88.6891C132.92 88.8606 132.449 89.0034 132.006 89.1177C131.578 89.232 131.049 89.2891 130.42 89.2891ZM141.062 89.032V80.4606H136.498V78.5106H143.526V89.032H141.062ZM142.112 76.582C141.612 76.582 141.191 76.432 140.848 76.132C140.519 75.832 140.355 75.432 140.355 74.932C140.355 74.432 140.519 74.032 140.848 73.732C141.191 73.4177 141.612 73.2606 142.112 73.2606C142.626 73.2606 143.048 73.4177 143.376 73.732C143.705 74.032 143.869 74.432 143.869 74.932C143.869 75.432 143.705 75.832 143.376 76.132C143.048 76.432 142.626 76.582 142.112 76.582ZM154.918 89.2891C153.818 89.2891 152.825 89.0748 151.939 88.6463C151.068 88.2034 150.375 87.5748 149.861 86.7606C149.361 85.932 149.111 84.9391 149.111 83.782C149.111 82.6106 149.382 81.6177 149.925 80.8034C150.482 79.9748 151.218 79.3463 152.132 78.9177C153.047 78.4748 154.032 78.2534 155.089 78.2534C155.947 78.2534 156.704 78.3963 157.361 78.682C158.018 78.9534 158.561 79.3034 158.989 79.732L157.811 81.2748C157.397 80.9463 156.975 80.6963 156.547 80.5248C156.132 80.3534 155.689 80.2677 155.218 80.2677C154.518 80.2677 153.897 80.4177 153.354 80.7177C152.825 81.0034 152.411 81.4106 152.111 81.9391C151.811 82.4677 151.661 83.082 151.661 83.782C151.661 84.482 151.804 85.0963 152.089 85.6248C152.389 86.1534 152.797 86.5606 153.311 86.8463C153.839 87.132 154.454 87.2748 155.154 87.2748C155.754 87.2748 156.304 87.1606 156.804 86.932C157.304 86.7034 157.754 86.432 158.154 86.1177L159.182 87.7034C158.582 88.2177 157.911 88.6106 157.168 88.882C156.425 89.1534 155.675 89.2891 154.918 89.2891ZM162.324 89.032V73.9034H164.81V83.3748H164.895L169.631 78.5106H172.374L164.81 86.2891V89.032H162.324ZM170.124 89.032L166.545 83.8463L167.981 82.3034L172.824 89.032H170.124ZM187.486 89.032V75.0177H190.229L191.9 80.482L192.479 82.582H192.564L193.121 80.482L194.814 75.0177H197.557V89.032H195.371V83.3748C195.371 83.0034 195.379 82.5677 195.393 82.0677C195.421 81.5534 195.457 81.0177 195.5 80.4606C195.543 79.9034 195.586 79.382 195.629 78.8963C195.671 78.3963 195.707 77.9748 195.736 77.632H195.671L194.729 80.8891L193.186 85.3248H191.771L190.25 80.8891L189.329 77.632H189.264C189.307 77.9748 189.35 78.3963 189.393 78.8963C189.436 79.382 189.471 79.9034 189.5 80.4606C189.543 81.0177 189.571 81.5534 189.586 82.0677C189.614 82.5677 189.629 83.0034 189.629 83.3748V89.032H187.486ZM206.013 89.2891C204.942 89.2891 203.97 89.0748 203.099 88.6463C202.227 88.2034 201.535 87.5748 201.02 86.7606C200.506 85.932 200.249 84.932 200.249 83.7606C200.249 82.6177 200.506 81.6391 201.02 80.8248C201.535 79.9963 202.206 79.3606 203.035 78.9177C203.863 78.4748 204.749 78.2534 205.692 78.2534C206.735 78.2534 207.613 78.4677 208.327 78.8963C209.056 79.3248 209.606 79.9177 209.977 80.6748C210.363 81.4177 210.556 82.2748 210.556 83.2463C210.556 83.4891 210.542 83.7248 210.513 83.9534C210.499 84.1677 210.477 84.3463 210.449 84.4891H202.027V82.732H208.863L208.392 83.2891C208.392 82.2463 208.156 81.4677 207.685 80.9534C207.227 80.4248 206.585 80.1606 205.756 80.1606C205.17 80.1606 204.642 80.2963 204.17 80.5677C203.713 80.8391 203.349 81.2463 203.077 81.7891C202.806 82.3177 202.67 82.9748 202.67 83.7606C202.67 84.5748 202.82 85.2463 203.12 85.7748C203.435 86.3034 203.863 86.7034 204.406 86.9748C204.963 87.2463 205.606 87.382 206.335 87.382C206.892 87.382 207.406 87.3034 207.877 87.1463C208.349 86.9891 208.82 86.7748 209.292 86.5034L210.127 88.0463C209.57 88.4034 208.942 88.7034 208.242 88.9463C207.542 89.1748 206.799 89.2891 206.013 89.2891ZM217.405 83.8034L217.062 77.1177L216.998 74.6748H219.44L219.376 77.1177L219.033 83.8034H217.405ZM218.219 89.2891C217.705 89.2891 217.262 89.1106 216.89 88.7534C216.533 88.3963 216.355 87.932 216.355 87.3606C216.355 86.7891 216.533 86.332 216.89 85.9891C217.262 85.6463 217.705 85.4748 218.219 85.4748C218.748 85.4748 219.19 85.6463 219.548 85.9891C219.905 86.332 220.083 86.7891 220.083 87.3606C220.083 87.932 219.905 88.3963 219.548 88.7534C219.19 89.1106 218.748 89.2891 218.219 89.2891Z" fill="#F586A0"/>
<rect x="268.6" y="43.6" width="6.8" height="6.8" fill="#D9ECFF" stroke="#4C9DE9" stroke-width="1.2"/>
<circle cx="50.7498" cy="14.0921" r="2.99138" transform="rotate(105 50.7498 14.0921)" fill="#FAFAFA" stroke="#4C9DE9"/>
<path fill-rule="evenodd" clip-rule="evenodd" d="M33.6948 34.6151L33.7155 34.5807L41.7286 21.1992L28.1432 29.0428C28.177 29.4666 28.1402 29.9034 28.0238 30.3376C27.4768 32.3791 25.3784 33.5906 23.3369 33.0436C21.2954 32.4965 20.0838 30.3981 20.6309 28.3566C21.1779 26.3151 23.2763 25.1036 25.3178 25.6506C25.7522 25.767 26.1489 25.9536 26.4992 26.1949L40.0612 18.3649L25.1922 18.6234L25.0673 18.6256L24.9425 18.6183C19.9611 18.326 15.2915 21.5601 13.95 26.5664C13.6441 27.7084 13.5345 28.8503 13.5976 29.9599L13.7127 31.9818L11.9588 32.9944L6.82656 35.9575L9.91642 41.3093L15.1054 38.3135L16.839 37.3126L18.5242 38.393C19.4301 38.9737 20.4425 39.4287 21.5469 39.7246C26.3729 41.0178 31.3203 38.8095 33.675 34.6501L33.6948 34.6151ZM47.3343 18.2384L47.5867 17.8171L48.446 17.3209L48.17 16.8429L49.3245 14.915L47.0795 14.9541L46.8019 14.4732L45.9345 14.974L45.4514 14.9824L25.1351 15.3356C18.6273 14.9538 12.5271 19.1718 10.7738 25.7154C10.3761 27.1996 10.2319 28.692 10.3147 30.1467L5.18242 33.1098L2.33468 34.754L3.97883 37.6017L7.06868 42.9535L8.71283 45.8012L11.5606 44.1571L16.7495 41.1612C17.9371 41.9225 19.2605 42.5163 20.6958 42.9009C27.0046 44.5913 33.4617 41.7016 36.5366 36.2701L47.3343 18.2384Z" fill="#F586A0"/>
<path d="M321 149.032V134.032C321 132.376 319.718 131.032 318.04 131.032C317 131.032 315 131.632 315 134.032V128.032C315 126.376 313.718 125.032 312.04 125.032C311.026 125.032 309 125.632 309 128.032V124.032C309 122.376 307.718 121.032 306.04 121.032C304.36 121.032 303 122.376 303 124.032V128.032C303 125.632 301.014 125.032 300 125.032C298.32 125.032 297 126.414 297 128.072V145.032M303 128.032V139.032M309 128.032V139.032M315 128.032V139.032" stroke="#F586A0" stroke-width="4" stroke-linecap="round" stroke-linejoin="round"/>
<path d="M321 149.032C321 157.032 314.732 161.032 307 161.032C299.268 161.032 296.608 159.032 290.608 149.032L287.466 143.822C286.394 142.086 287.252 139.834 289.228 139.194C289.874 138.983 290.569 138.975 291.22 139.173C291.87 139.37 292.444 139.763 292.864 140.298L297 145.098" stroke="#F586A0" stroke-width="4" stroke-linecap="round" stroke-linejoin="round"/>
</svg>
