<svg id="Layer_1" data-name="Layer 1" xmlns="http://www.w3.org/2000/svg" viewBox="0 0 654.39 339.84"><defs><style>.cls-1{fill:#1f161e;}.cls-2{fill:#f15f22;}.cls-3{fill:#ed335d;}.cls-4{fill:#d7905e;}.cls-17,.cls-19,.cls-25,.cls-27,.cls-5,.cls-8,.cls-9{fill:none;}.cls-25,.cls-27,.cls-5{stroke:#1f161e;}.cls-19,.cls-25,.cls-27,.cls-5,.cls-8,.cls-9{stroke-linecap:round;}.cls-17,.cls-25,.cls-5,.cls-8,.cls-9{stroke-miterlimit:10;}.cls-5{stroke-width:0.55px;}.cls-6{fill:#f69ea0;}.cls-7{fill:#524e51;}.cls-8,.cls-9{stroke:#a3a3a3;}.cls-8{stroke-width:4px;}.cls-9{stroke-width:2px;}.cls-10{fill:#f48ea6;}.cls-11{fill:#fff;}.cls-12{fill:#010101;}.cls-13{fill:#969696;}.cls-14{fill:#d8d9d8;}.cls-15{fill:#333033;}.cls-16{fill:#2b2c2b;}.cls-17{stroke:#524e51;}.cls-18{fill:#f8981d;}.cls-19{stroke:#fff;stroke-width:0.4px;}.cls-19,.cls-27{stroke-linejoin:round;}.cls-20{fill:#b47462;}.cls-21{fill:#fbd4dd;}.cls-22{fill:#686868;}.cls-23{fill:#6050a1;}.cls-24{fill:#e8b894;}.cls-25{stroke-width:1.2px;}.cls-26{fill:#bba9d2;}</style></defs><path class="cls-1" d="M708.39,558.66c0,1.4.87,10.29-.86,11.11s-20.74,1.31-21.6.5-1.38-2.55-.61-3,8.12-1.89,9.16-2.55,2.38-4.14,1.86-6" transform="translate(-145.02 -230.85)"/><path class="cls-1" d="M789.81,364.5c.19,2.29-13.91,80.83-13.81,83.35s21.59,97.54,21.59,97.54l-11.73,5s-39.62-79.89-40.29-85S783.57,364.48,789.81,364.5Z" transform="translate(-145.02 -230.85)"/><path class="cls-2" d="M789.81,364.5c-.9,2.4-77.87,192.8-77.87,192.8H696.78l54-203.69Z" transform="translate(-145.02 -230.85)"/><path class="cls-3" d="M777.53,278.3c-24.68,0-27.46,42.61-27.46,48.61s-.81,24.81.69,26.67c2.17,1,36.72,12,39,10.89S809.67,278.3,777.53,278.3Z" transform="translate(-145.02 -230.85)"/><path class="cls-1" d="M789.54,326.34c0,1.92.45,14.59-2.89,17s-30.3,5.62-30.3,9c0,1.44-.49,3,2.84,4-2.2-.71-8.4-2.82-8.4-2.82a8,8,0,0,1-.7-3.57C750.69,349.49,789.54,326.34,789.54,326.34Z" transform="translate(-145.02 -230.85)"/><path class="cls-4" d="M771.25,269.67l10.68-2.18s1.19,12.65,1.33,13.74-8.64,2.07-8.77,1.09S771.25,269.67,771.25,269.67Z" transform="translate(-145.02 -230.85)"/><path class="cls-1" d="M782.28,271.1c0-.24-3.44,1.9-4.81,2.54s5,1.22,5.39,3.57C782.69,275.47,782.3,271.49,782.28,271.1Z" transform="translate(-145.02 -230.85)"/><ellipse class="cls-4" cx="628.26" cy="30.17" rx="13.9" ry="13.23"/><path class="cls-4" d="M773.51,315.27a159.91,159.91,0,0,1,1.3,16.51c-1.45,3-25,12.55-29.92,13.33-1.95-.05-3-1.08-4.24-1.08-2.88.05-10.6-.42-10.6.38s2.29,6.38,5.15,6.38c4.81,0,6.46-1.2,8.28-1.31,2.56-.15,3.52.73,5.8.59s31-4.52,35.9-11.46c5.07-7.21,6.11-25.69,6.09-26.58C790,312.37,775.42,315.27,773.51,315.27Z" transform="translate(-145.02 -230.85)"/><path class="cls-5" d="M791.27,312.06c.46-8.05-.8-23.89-10.79-22.63" transform="translate(-145.02 -230.85)"/><path class="cls-1" d="M796.21,545.55c.44.9,4.41,8.78,2.83,11.47s-13.14,8.09-14.52,7.62-1.67-1.92-.58-3.7,5.34-3.61,5.88-5.16-.94-5.78-2.47-6.69" transform="translate(-145.02 -230.85)"/><ellipse class="cls-6" cx="622.78" cy="34.32" rx="2.73" ry="1.35"/><path class="cls-1" d="M783.26,270c2.48-1.09,5.6-5.81,5.6-12.23,0-16.61-21.1-16.34-23.24-17s-6.43-2.1-7.47-2.1c-3.5,0-4.95,9.11-4.95,10.58,0,5.74,5,8.83,6.43,9a28.85,28.85,0,0,1,2.43-4.64c1,.49,15.05,5.44,17.47,6C778.82,262.18,783.63,267.88,783.26,270Z" transform="translate(-145.02 -230.85)"/><path class="cls-4" d="M759.76,258.36c-1,0-2.5,3.81-2.29,4.67s2.46,1.52,3.35,1.49S761.23,258.36,759.76,258.36Z" transform="translate(-145.02 -230.85)"/><path class="cls-5" d="M768.6,268.44a1.87,1.87,0,0,1-1.63,1.83" transform="translate(-145.02 -230.85)"/><ellipse class="cls-4" cx="635.81" cy="29.39" rx="3.57" ry="3.4"/><g id="Layer_2-2" data-name="Layer 2-2"><ellipse class="cls-7" cx="37.3" cy="220.68" rx="37.3" ry="11.55"/><line class="cls-8" x1="37.3" y1="220.68" x2="16.36" y2="312.27"/><line class="cls-8" x1="37.3" y1="220.68" x2="58.31" y2="312.27"/><line class="cls-9" x1="23.21" y1="282.22" x2="46.59" y2="261.32"/><line class="cls-9" x1="27.91" y1="261.32" x2="51.29" y2="282.22"/></g><g id="Layer_2" data-name="Layer 2"><g id="Middle_ground" data-name="Middle ground"><polygon class="cls-10" points="133.63 90.04 141.24 82.88 133.48 82.88 133.63 90.04"/><path class="cls-10" d="M281.53,314.54h37.86c5.79,0,10.49-5,10.49-11.17v-5.21c0-6.17-4.7-11.18-10.49-11.18H281.53c-5.79,0-10.49,5-10.49,11.18v5.21C271,309.54,275.74,314.54,281.53,314.54Z" transform="translate(-145.02 -230.85)"/><ellipse class="cls-11" cx="147.58" cy="69.92" rx="2.28" ry="2.43"/><ellipse class="cls-11" cx="155.44" cy="69.92" rx="2.28" ry="2.43"/><ellipse class="cls-11" cx="163.31" cy="69.92" rx="2.28" ry="2.43"/></g></g><g id="Layer_2-2-2" data-name="Layer 2"><g id="Layer_2-2-3" data-name="Layer 2-2"><path class="cls-12" d="M687.6,343.7h43l-7.79-32.06a3.24,3.24,0,0,0-3-2.67H683.32c-1.7,0-3.1,1.6-3.13,3.64a4.55,4.55,0,0,0,.12,1Z" transform="translate(-145.02 -230.85)"/><ellipse class="cls-11" cx="558.79" cy="95.49" rx="2.63" ry="3.15"/><rect class="cls-12" x="580.44" y="110.6" width="30.14" height="2.25"/></g></g><g id="Layer_2-3" data-name="Layer 2"><g id="Layer_2-2-4" data-name="Layer 2-2"><path class="cls-13" d="M628.39,560.21h0c-1.48.54-3-.69-3.39-2.75L597.28,411c-.39-2.06.49-4.16,2-4.71h0c1.48-.54,3,.69,3.39,2.75l27.72,146.5C630.75,557.56,629.87,559.67,628.39,560.21Z" transform="translate(-145.02 -230.85)"/><path class="cls-13" d="M595,406.26h0c1.48.54,2.37,2.64,2,4.7l-27.72,146.5c-.39,2.06-1.91,3.29-3.39,2.75h0c-1.48-.54-2.37-2.65-2-4.71L591.64,409C592,407,593.54,405.72,595,406.26Z" transform="translate(-145.02 -230.85)"/><path class="cls-14" d="M556.77,406.26h0c1.48.54,2.37,2.65,2,4.71L531,557.47c-.39,2.06-1.91,3.29-3.39,2.75h0c-1.48-.55-2.36-2.65-2-4.71L553.39,409C553.78,407,555.29,405.72,556.77,406.26Z" transform="translate(-145.02 -230.85)"/><path class="cls-14" d="M589.65,560.21h0c-1.48.54-3-.69-3.38-2.75L558.55,411c-.39-2,.49-4.16,2-4.7h0c1.48-.54,3,.69,3.39,2.74l27.72,146.51C592,557.56,591.14,559.67,589.65,560.21Z" transform="translate(-145.02 -230.85)"/><path class="cls-13" d="M400.78,406h0c1.48.53,2.37,2.63,2,4.7L375.51,557.58c-.38,2.07-1.89,3.31-3.38,2.78h0c-1.48-.53-2.38-2.64-2-4.7l27.26-146.94C397.78,406.66,399.29,405.42,400.78,406Z" transform="translate(-145.02 -230.85)"/><path class="cls-13" d="M433.25,559.67h0c-1.49.54-3-.7-3.39-2.77L402.61,410c-.39-2.07.51-4.17,2-4.7h0c1.49-.54,3,.71,3.38,2.77L435.24,555C435.62,557,434.73,559.14,433.25,559.67Z" transform="translate(-145.02 -230.85)"/><path class="cls-14" d="M346,399H614.08c1.35,0,2.45,1.52,2.45,3.41V407c0,1.88-1.1,3.41-2.45,3.41H346c-1.35,0-2.45-1.53-2.45-3.41v-4.58C343.5,400.54,344.6,399,346,399Z" transform="translate(-145.02 -230.85)"/><path class="cls-14" d="M361,406.27h0c1.48.54,2.37,2.65,2,4.7L335.23,557.48c-.39,2-1.91,3.28-3.39,2.74h0c-1.48-.54-2.37-2.65-2-4.7L357.59,409C358,407,359.49,405.73,361,406.27Z" transform="translate(-145.02 -230.85)"/><path class="cls-14" d="M393.86,560.21h0c-1.48.54-3-.69-3.39-2.74L362.75,411c-.39-2,.5-4.16,2-4.7h0c1.48-.54,3,.69,3.38,2.74l27.73,146.51C396.22,557.56,395.34,559.67,393.86,560.21Z" transform="translate(-145.02 -230.85)"/></g></g><g id="Layer_2-4" data-name="Layer 2"><g id="Layer_2-2-5" data-name="Layer 2-2"><path class="cls-15" d="M488.59,305.26h101a4.19,4.19,0,0,1,4.25,4.14v60.94a4.19,4.19,0,0,1-4.25,4.14h-101a4.19,4.19,0,0,1-4.25-4.14V309.4A4.19,4.19,0,0,1,488.59,305.26Z" transform="translate(-145.02 -230.85)"/><rect class="cls-7" x="383" y="109.02" width="22.16" height="56.74"/><path d="M526.54,338.29h.55a.91.91,0,0,1,.92.9v35.3h-2.39v-35.3a.91.91,0,0,1,.92-.9Z" transform="translate(-145.02 -230.85)"/><rect class="cls-12" x="371.27" y="162.76" width="45.6" height="3.01"/><ellipse class="cls-7" cx="394.07" cy="98.71" rx="4.53" ry="4.41"/><rect class="cls-16" x="380.6" y="162.76" width="2.4" height="3.01"/><rect class="cls-16" x="383" y="143.63" width="2.4" height="19.12"/><line class="cls-17" x1="346.4" y1="79.24" x2="441.75" y2="79.24"/><path class="cls-7" d="M488.59,305.26h0a4.2,4.2,0,0,1,4.26,4.14v60.94a4.2,4.2,0,0,1-4.26,4.14h0a4.19,4.19,0,0,1-4.25-4.14V309.4A4.19,4.19,0,0,1,488.59,305.26Z" transform="translate(-145.02 -230.85)"/></g></g><g id="Layer_2-5" data-name="Layer 2"><g id="Middle_ground-2" data-name="Middle ground"><path class="cls-1" d="M388.43,366.74v-.46l-1-1.37-2.38-3.1-2.55-3.27s-2.46-1.8-3.09-2.11a16.07,16.07,0,0,0-7.28-2c-1.67,0-7.89.27-7.91,1.38,0,1.64,8.72,7.87,15.12,10.89C382.09,366.74,388.43,366.74,388.43,366.74Z" transform="translate(-145.02 -230.85)"/><path class="cls-2" d="M387.11,366.74c-8.88-7.22-27-46.67-22.35-61.29,9.9,5.34,20.75,23.75,25.87,39.29a29.39,29.39,0,0,1,.65,3.07l2.08,10.09.51,8.84Z" transform="translate(-145.02 -230.85)"/><path class="cls-18" d="M393.17,366.74c-3-2.58-3.95-10.2-4-13.05-.05-5.31.72-9.22,5-15.06s3.14-15.54,8.85-22.08,9.47-8.35,16.23-8.35,8.9,11.6,8.88,14.52c-.07,11.77-7.08,13.43-11.35,19.06-3.1,4.07-3.34,7.41-4.28,9.32-5,10.26-9.13,14.13-12.16,15.64" transform="translate(-145.02 -230.85)"/><path class="cls-19" d="M394.81,365.89c.08-20.09,20.07-50.25,24.34-54.77" transform="translate(-145.02 -230.85)"/><path class="cls-19" d="M395.9,356.77c-2.21-2.55-4.22-9.78-3.92-11.66" transform="translate(-145.02 -230.85)"/><path class="cls-19" d="M390.24,365c-3.14-5.89-18-34.56-23.57-55.68" transform="translate(-145.02 -230.85)"/><path class="cls-20" d="M400.37,366.74h9.3l-7.79,30.72H381.05l-7.66-30.72h27" transform="translate(-145.02 -230.85)"/><path class="cls-19" d="M367.21,356.44c4.54.33,10.25.55,14.3,3.46" transform="translate(-145.02 -230.85)"/></g></g><g id="Layer_2-6" data-name="Layer 2"><g id="Middle_ground-3" data-name="Middle ground"><polygon class="cls-21" points="569.02 64.03 560.89 57.03 569.18 57.03 569.02 64.03"/><path class="cls-21" d="M711,288.67H670.53a11.06,11.06,0,0,1-11.2-10.93v-5.09a11.06,11.06,0,0,1,11.2-10.93H711a11.07,11.07,0,0,1,11.2,10.93v5.09A11.07,11.07,0,0,1,711,288.67Z" transform="translate(-145.02 -230.85)"/><ellipse class="cls-11" cx="554.12" cy="44.35" rx="2.44" ry="2.38"/><ellipse class="cls-11" cx="545.73" cy="44.35" rx="2.44" ry="2.38"/><ellipse class="cls-11" cx="537.33" cy="44.35" rx="2.44" ry="2.38"/></g></g><g id="Layer_2-7" data-name="Layer 2"><g id="vector"><polygon class="cls-1" points="130.47 103.04 141.5 107.2 133.06 133.01 122.02 128.85 130.47 103.04"/><path class="cls-1" d="M292.89,498.12c.41,1.11,2.58,7.78,3.78,8.46,2.17,1.23,13.44-5.8,13.74-6.73s.13-2.46-.5-2.59-5.67,1.18-6.48,1-2.7-2.46-2.92-4.11" transform="translate(-145.02 -230.85)"/><path class="cls-1" d="M151.83,397.08c0,44.38,11.87,53.7,23.67,53.7,29.89,0,68.78-28.53,71-29.64-.69,4.67-5,123-5,123.67,1,1,9,1.79,11.65,1,.69-2.87,21.68-143.6,21.68-147.31s-1.8-9.34-8.65-10.15C263.22,388,223,386,223,386" transform="translate(-145.02 -230.85)"/><path class="cls-22" d="M253.29,365.62c9.07,15.61,49.55,124.6,49.19,127.15s-9.67,8-11.63,6.49c-8.35-6.12-59.61-109-61.6-110.54s-5-1-6.77-.53C217.85,379,228.22,368.15,253.29,365.62Z" transform="translate(-145.02 -230.85)"/><path class="cls-23" d="M212.7,278.15c13.52,0,17.41,15.23,18.53,21,3.58,18.36-6.38,88.16-7.54,90.08-9.78,16.28-65.71,17.72-71.17,10.67S175.76,278.15,212.7,278.15Z" transform="translate(-145.02 -230.85)"/><path class="cls-1" d="M244,543.12c-.18,1.19-1.53,8.17-.85,9.53,1.21,2.47,13.86,4.17,14.55,3.6s1.26-2,.8-2.46-5.24-2.8-5.83-3.5a7.85,7.85,0,0,1-.48-5.36" transform="translate(-145.02 -230.85)"/><path class="cls-24" d="M210.68,281.36c-.37,1.4,9.18,4.93,9.54,3.54l3.7-14.13-9.53-3.54Z" transform="translate(-145.02 -230.85)"/><path class="cls-1" d="M220.14,274.11c-.93-.34-7.71.59-8.16,2.33l2.41-9.21C215.87,267.78,220.14,274.11,220.14,274.11Z" transform="translate(-145.02 -230.85)"/><ellipse class="cls-24" cx="80.45" cy="28.86" rx="14.01" ry="16.67"/><ellipse class="cls-6" cx="237.09" cy="267.62" rx="1.49" ry="2.51" transform="translate(-247.87 147.55) rotate(-66.51)"/><ellipse class="cls-6" cx="222.36" cy="262.15" rx="1.49" ry="2.51" transform="translate(-251.71 130.75) rotate(-66.51)"/><path class="cls-25" d="M232.17,262.49c.24.91,1.68,4.87-1,5.25" transform="translate(-145.02 -230.85)"/><path class="cls-25" d="M225.46,269.63c-.69-.28-1.52-1.7-1.85-2.86" transform="translate(-145.02 -230.85)"/><path class="cls-1" d="M229.7,237.83c-3.69-.55-14.42-4.35-16.85-7-1.16.72-5.64,5.51-9.29,12l5.19,6.21-6.56-3.6a36.12,36.12,0,0,0-3.5,11,12.39,12.39,0,0,0,8,7.82c6.46,1,8.94-11,12.19-12.45,5.53-2.53,12,4,20.21,3.61C240.91,251,238.55,239.15,229.7,237.83Z" transform="translate(-145.02 -230.85)"/><ellipse class="cls-24" cx="67.6" cy="26.1" rx="3.24" ry="3.85"/><path class="cls-26" d="M198.69,317.23c-.69,5.15-2.93,53.72,2.43,58.45,11.48,10.11,64.48-2.26,72.51-5.81.87-3.38,0-14.14,0-14.14-3.1-.15-42.13-.59-44.45-4.11s-2.61-32.27-2.23-35.51" transform="translate(-145.02 -230.85)"/><ellipse class="cls-24" cx="134.01" cy="131.22" rx="7.51" ry="8.93"/><path class="cls-27" d="M229.17,351.65c-2.35-3.54-2.6-32.27-2.23-35.52" transform="translate(-145.02 -230.85)"/><path class="cls-27" d="M225.5,379.32c-10.81.72-20.26,0-24.38-3.64-2.35-2.07-3.24-12.53-3.45-24.07" transform="translate(-145.02 -230.85)"/></g></g></svg>