<svg width="1512" height="284" viewBox="0 0 1512 284" fill="none" xmlns="http://www.w3.org/2000/svg">
<ellipse cx="761.503" cy="685" rx="843.497" ry="622" fill="url(#paint0_linear_2676_2253)"/>
<ellipse cx="760.497" cy="651" rx="843.497" ry="622" fill="url(#paint1_linear_2676_2253)"/>
<ellipse cx="760.497" cy="622" rx="843.497" ry="622" fill="url(#paint2_linear_2676_2253)"/>
<path d="M715.75 139.056C714.204 139.195 712.688 139.606 711.473 140.222C708.896 141.527 707.107 143.822 706.341 146.776C706.032 147.993 705.988 148.683 705.87 154.013C705.723 161.125 705.642 162.21 705.104 163.948C704.53 165.803 703.662 166.749 700.812 168.648C699.399 169.586 698.839 170.114 698.479 170.84C698.11 171.588 698 172.123 698 173.149C698.007 175.202 698.427 175.826 700.871 177.475C702.712 178.714 703.441 179.33 704.03 180.151C704.788 181.207 705.362 182.776 705.531 184.257C705.649 185.291 705.752 187.916 705.87 192.762C705.988 197.557 706.032 198.115 706.349 199.368C707.203 202.734 709.514 205.285 712.791 206.458C714.587 207.096 717.259 207.331 718.945 206.986C721.301 206.502 722.435 204.999 722.303 202.55C722.222 201.209 721.868 200.329 721.102 199.559C720.513 198.972 720.057 198.767 718.835 198.54C717.399 198.269 716.744 198.056 716.383 197.755C715.485 196.986 715.088 195.585 714.999 192.836C714.977 192.11 714.926 190.13 714.889 188.436C714.815 185.328 714.712 183.847 714.44 182.168C714.064 179.836 713.321 177.871 712.297 176.529C711.554 175.562 710.251 174.344 709.22 173.663C708.955 173.487 708.668 173.289 708.572 173.215L708.41 173.091L709.087 172.614C712.791 170.033 714.197 167.306 714.668 161.785C714.705 161.279 714.756 160.7 714.778 160.487C714.8 160.282 714.867 158.478 714.926 156.491C715.043 152.576 715.132 151.124 715.301 150.281C715.669 148.492 716.302 148.008 718.901 147.532C720.064 147.319 720.58 147.092 721.147 146.534C721.964 145.743 722.376 144.452 722.303 142.942C722.258 142.011 722.067 141.365 721.662 140.757C721.132 139.972 720.204 139.415 719.012 139.173C718.305 139.034 716.678 138.975 715.75 139.056Z" fill="white"/>
<path d="M802.712 139.056C799.893 139.312 798.486 140.83 798.619 143.491C798.7 145.082 799.134 146.028 800.158 146.827C800.644 147.216 801.159 147.392 802.44 147.605C803.905 147.847 804.273 147.986 804.789 148.506C805.701 149.438 805.856 150.413 805.959 156.249C806.033 160.406 806.106 161.631 806.371 163.434C806.644 165.304 807.041 166.66 807.726 168.061C808.646 169.952 809.927 171.345 812.062 172.775L812.526 173.09L812.136 173.362C810.619 174.396 809.073 175.833 808.433 176.793C807.38 178.391 806.762 180.07 806.445 182.204C806.158 184.147 806.047 185.914 805.959 190.233C805.922 192.19 805.856 194.133 805.812 194.558C805.613 196.479 805.142 197.528 804.273 197.968C803.839 198.188 803.522 198.268 802.16 198.518C801.299 198.672 800.931 198.782 800.592 198.958C799.458 199.559 798.722 200.901 798.619 202.514C798.545 203.745 798.788 204.691 799.37 205.468C800.342 206.759 802.241 207.316 804.914 207.096C806.681 206.957 808.087 206.583 809.441 205.894C812.062 204.566 813.895 202.206 814.632 199.214C814.956 197.909 814.985 197.462 815.125 191.134C815.184 188.546 815.265 186.024 815.309 185.525C815.677 181.141 816.413 179.939 820.315 177.38C820.904 176.991 821.56 176.507 821.766 176.302C822.679 175.393 823.091 173.941 822.892 172.321C822.796 171.477 822.62 170.928 822.31 170.488C821.957 169.967 821.184 169.307 820.146 168.625C818.777 167.731 818.158 167.247 817.474 166.536C816.59 165.619 816.082 164.681 815.655 163.207C815.346 162.159 815.228 160.069 815.088 153.316C814.985 148.338 814.919 147.627 814.389 146.043C813.542 143.521 811.79 141.475 809.441 140.28C808.447 139.781 807.844 139.562 806.769 139.327C805.348 139.012 804.133 138.931 802.712 139.056Z" fill="white"/>
<path d="M768.264 148.55L760.497 156.286H768.286H776.068V148.55C776.068 144.298 776.061 140.815 776.046 140.815C776.039 140.815 772.534 144.298 768.264 148.55Z" fill="white"/>
<path d="M776.952 148.55V156.286H784.733H792.523L784.756 148.55C780.485 144.298 776.981 140.815 776.974 140.815C776.959 140.815 776.952 144.298 776.952 148.55Z" fill="white"/>
<path d="M734.509 148.587L726.779 156.286H734.568H742.35V148.587C742.35 144.349 742.327 140.889 742.291 140.889C742.261 140.889 738.757 144.349 734.509 148.587Z" fill="white"/>
<path d="M743.233 148.587V156.286H750.978H758.731L751 148.587C746.752 144.349 743.263 140.889 743.255 140.889C743.241 140.889 743.233 144.349 743.233 148.587Z" fill="white"/>
<path d="M762.927 159.307C769.347 165.752 775.965 172.343 776.009 172.343C776.046 172.343 776.068 168.86 776.068 164.608V156.873H768.286H760.497L762.927 159.307Z" fill="white"/>
<path d="M777.077 156.924C777.003 156.99 777.011 172.343 777.084 172.343C777.151 172.343 792.56 156.997 792.56 156.924C792.56 156.858 777.143 156.851 777.077 156.924Z" fill="white"/>
<path d="M726.815 157.144C726.815 157.217 742.224 172.563 742.298 172.563C742.328 172.563 742.342 169.088 742.335 164.842L742.313 157.129L734.568 157.107C730.305 157.1 726.815 157.115 726.815 157.144Z" fill="white"/>
<path d="M743.233 164.842V172.599L751 164.864C755.27 160.612 758.767 157.122 758.767 157.114C758.767 157.1 755.27 157.092 751 157.092H743.233V164.842Z" fill="white"/>
<path d="M760.24 165.634V173.369H768.022H775.811L768.044 165.634C763.774 161.381 760.269 157.899 760.262 157.899C760.247 157.899 760.24 161.381 760.24 165.634Z" fill="white"/>
<path d="M751.626 165.78L743.859 173.516H751.648H759.43V165.78C759.43 161.528 759.423 158.045 759.408 158.045C759.4 158.045 755.896 161.528 751.626 165.78Z" fill="white"/>
<path d="M784.947 166.001L777.231 173.736H785.006H792.78V166.001C792.78 161.748 792.751 158.265 792.721 158.265C792.692 158.265 789.195 161.748 784.947 166.001Z" fill="white"/>
<path d="M726.742 166.147V173.882H734.524H742.313L734.546 166.147C730.276 161.895 726.771 158.412 726.764 158.412C726.749 158.412 726.742 161.895 726.742 166.147Z" fill="white"/>
<path d="M750.669 181.119C754.365 184.821 757.854 188.311 758.414 188.876L759.43 189.902V182.145V174.395H751.685H743.94L750.669 181.119Z" fill="white"/>
<path d="M760.24 182.145V189.902L768.007 182.167C772.277 177.915 775.774 174.425 775.774 174.417C775.774 174.403 772.277 174.395 768.007 174.395H760.24V182.145Z" fill="white"/>
<path d="M734.325 182.35C738.595 186.603 742.099 190.085 742.107 190.085C742.121 190.085 742.129 186.603 742.129 182.35V174.615H734.347H726.558L734.325 182.35Z" fill="white"/>
<path d="M769.089 182.358L761.329 190.123L769.081 190.145C773.344 190.152 776.841 190.152 776.856 190.137C776.871 190.123 776.871 186.618 776.863 182.351L776.841 174.594L769.089 182.358Z" fill="white"/>
<path d="M777.467 182.365V190.123L785.234 182.387C789.504 178.135 793.001 174.645 793.001 174.638C793.001 174.623 789.504 174.616 785.234 174.616H777.467V182.365Z" fill="white"/>
<path d="M742.939 182.423V190.159H750.721H758.51L750.743 182.423C746.473 178.171 742.968 174.688 742.961 174.688C742.946 174.688 742.939 178.171 742.939 182.423Z" fill="white"/>
<path d="M751.479 198.994C755.749 203.246 759.253 206.729 759.261 206.729C759.276 206.729 759.283 203.246 759.283 198.994V191.259H751.501H743.712L751.479 198.994Z" fill="white"/>
<path d="M760.534 199.008V206.766L768.301 199.03C772.571 194.778 776.068 191.288 776.068 191.281C776.068 191.266 772.571 191.259 768.301 191.259H760.534V199.008Z" fill="white"/>
<defs>
<linearGradient id="paint0_linear_2676_2253" x1="761.503" y1="63" x2="761.503" y2="334.5" gradientUnits="userSpaceOnUse">
<stop offset="0.00321424" stop-color="#F1CFA1"/>
<stop offset="1" stop-color="#F591A1"/>
</linearGradient>
<linearGradient id="paint1_linear_2676_2253" x1="760.497" y1="29" x2="760.497" y2="1273" gradientUnits="userSpaceOnUse">
<stop offset="0.00321424" stop-color="#FFD398" stop-opacity="0.6"/>
<stop offset="0.389653" stop-color="#F591A1" stop-opacity="0.29"/>
</linearGradient>
<linearGradient id="paint2_linear_2676_2253" x1="760.497" y1="0" x2="760.497" y2="1244" gradientUnits="userSpaceOnUse">
<stop offset="0.00321424" stop-color="#FFCE8B" stop-opacity="0.37"/>
<stop offset="0.389653" stop-color="#F591A1" stop-opacity="0.29"/>
</linearGradient>
</defs>
</svg>
