<svg id="Layer_1" enable-background="new 0 0 256 256" height="512" viewBox="0 0 256 256" width="512" xmlns="http://www.w3.org/2000/svg"><ellipse cx="145.008" cy="99.249" fill="#a4c9ff" rx="81.913" ry="81.851"/><path d="m145.008 184.146c-46.821 0-84.913-38.082-84.913-84.891s38.092-84.89 84.913-84.89 84.913 38.081 84.913 84.89-38.092 84.891-84.913 84.891zm0-163.78c-43.513 0-78.913 35.39-78.913 78.89s35.4 78.891 78.913 78.891 78.913-35.391 78.913-78.891-35.4-78.89-78.913-78.89z" fill="#e0ebfc"/><path d="m145.008 184.1c-13.413 0-25.888-9.058-35.127-25.504-8.932-15.901-13.851-36.978-13.851-59.347s4.919-43.445 13.851-59.347c9.239-16.446 21.714-25.504 35.127-25.504 13.414 0 25.889 9.058 35.127 25.504 8.933 15.901 13.852 36.978 13.852 59.347s-4.919 43.445-13.852 59.347c-9.239 16.446-21.713 25.504-35.127 25.504zm0-163.702c-23.698 0-42.978 35.372-42.978 78.851s19.28 78.851 42.978 78.851 42.979-35.372 42.979-78.851-19.281-78.851-42.979-78.851z" fill="#e0ebfc"/><path d="m143.67 69.509c-22.618 0-43.901-8.787-59.928-24.743-1.158-1.153-1.18-3.021-.05-4.201 16.184-16.895 37.959-26.198 61.316-26.198 11.42 0 22.506 2.231 32.95 6.632 10.106 4.275 19.18 10.389 26.97 18.174 1.155 1.154 1.176 3.021.045 4.199-16.171 16.855-37.943 26.137-61.303 26.137zm-53.532-26.92c14.621 13.514 33.514 20.92 53.532 20.92 20.709 0 40.074-7.85 54.86-22.169-6.742-6.254-14.435-11.23-22.906-14.814-9.698-4.086-20-6.159-30.616-6.159-20.705-.001-40.073 7.867-54.87 22.222z" fill="#e0ebfc"/><path d="m145.23 184.1c-22.681 0-44.004-8.826-60.042-24.852-1.155-1.154-1.175-3.021-.044-4.199 16.172-16.855 37.943-26.138 61.303-26.138 22.68 0 44.003 8.826 60.041 24.852 1.155 1.154 1.176 3.021.045 4.199-16.171 16.855-37.942 26.138-61.303 26.138zm-53.644-27.019c14.633 13.577 33.565 21.019 53.644 21.019 20.709 0 40.074-7.851 54.86-22.169-14.634-13.578-33.566-21.02-53.644-21.02-20.707 0-40.073 7.851-54.86 22.17z" fill="#e0ebfc"/><path d="m226.921 104.707h-163.826c-1.657 0-3-1.343-3-3s1.343-3 3-3h163.826c1.657 0 3 1.343 3 3s-1.343 3-3 3z" fill="#e0ebfc"/><path d="m145.008 185.692c-47.674 0-86.459-38.774-86.459-86.436s38.785-86.438 86.459-86.438 86.46 38.775 86.46 86.438c0 47.662-38.786 86.436-86.46 86.436zm0-168.873c-45.468 0-82.459 36.981-82.459 82.438 0 45.455 36.991 82.436 82.459 82.436 45.469 0 82.46-36.98 82.46-82.436s-36.991-82.438-82.46-82.438z" fill="#3762cc"/><path d="m238.216 185.585c-4.609-7.918-14.818-10.631-22.801-6.06l-37.989 21.753c-2.678 1.533-5.809 2.076-8.847 1.534l-49.562-8.849-6.889-.788h40.674c9.143 0 16.555-7.412 16.555-16.555 0-2.873-2.329-5.203-5.203-5.203h-47.022c-3.296 0-6.553.715-9.546 2.096l-30.849 14.235c-4.821 2.225-10.068 3.377-15.377 3.377h-1.044v43.516h9.104l103.709-9.106c.075-.007.149-.012.224-.018l2.993-.244c2.45-.251 4.82-1.013 6.957-2.236l52.994-30.345c2.508-1.436 3.367-4.618 1.919-7.107z" fill="#f9cfcf"/><path d="m44.335 248.5h-30.99v-75.153h30.99c1.562 0 2.829 1.266 2.829 2.829v69.495c-.001 1.563-1.267 2.829-2.829 2.829z" fill="#4671c6"/><path d="m44.334 250.5h-30.99c-1.104 0-2-.896-2-2v-75.152c0-1.104.896-2 2-2h30.99c2.663 0 4.829 2.166 4.829 4.828v69.495c0 2.663-2.166 4.829-4.829 4.829zm-28.989-4h28.99c.457 0 .829-.372.829-.829v-69.495c0-.457-.372-.828-.829-.828h-28.99z" fill="#3762cc"/><path d="m57.746 180.863h-10.583v62.001h10.582c1.419 0 2.569-1.15 2.569-2.569v-56.862c.001-1.42-1.149-2.57-2.568-2.57z" fill="#e0ebfc"/><path d="m57.746 244.863h-10.583c-1.104 0-2-.896-2-2v-62.001c0-1.104.896-2 2-2h10.583c2.52 0 4.569 2.05 4.569 4.569v56.862c0 2.52-2.05 4.57-4.569 4.57zm-8.583-4h8.583c.314 0 .569-.256.569-.569v-56.862c0-.313-.255-.569-.569-.569h-8.583z" fill="#3762cc"/><path d="m69.418 236.642h-9.104c-1.104 0-2-.896-2-2v-43.516c0-1.104.896-2 2-2h1.044c4.985 0 10.012-1.104 14.539-3.193l30.849-14.235c3.233-1.491 6.824-2.28 10.384-2.28h47.022c3.972 0 7.202 3.231 7.202 7.203 0 10.231-8.323 18.556-18.555 18.556h-15.62l31.748 5.669c2.574.457 5.235-.002 7.502-1.301l37.988-21.754c8.924-5.107 20.372-2.062 25.524 6.789.969 1.665 1.228 3.604.729 5.463-.5 1.865-1.701 3.423-3.384 4.386l-52.994 30.346c-2.395 1.371-5.001 2.209-7.746 2.49l-3.238.264-103.718 9.106c-.055.004-.113.007-.172.007zm-7.103-4h7.016l103.848-9.116 3.005-.244c2.144-.221 4.219-.888 6.124-1.979l52.994-30.346c.751-.43 1.287-1.123 1.509-1.951.22-.82.105-1.678-.323-2.415-4.052-6.959-13.06-9.349-20.079-5.33l-37.988 21.754c-3.08 1.765-6.697 2.391-10.193 1.768l-49.499-8.839-6.827-.78c-1.053-.121-1.83-1.043-1.769-2.102.06-1.059.936-1.886 1.997-1.886h40.673c8.025 0 14.555-6.529 14.555-14.556 0-1.767-1.437-3.203-3.202-3.203h-47.022c-2.985 0-5.997.661-8.708 1.913l-30.849 14.235c-4.759 2.195-10.015 3.416-15.259 3.549v39.528z" fill="#3762cc"/><path d="m125.92 124.07h-38.751v-7.898c0-9.237 7.488-16.726 16.726-16.726h5.301c9.237 0 16.726 7.488 16.726 16.726v7.898z" fill="#6bdddd"/><circle cx="106.544" cy="80.071" fill="#f9cfcf" r="19.376"/><path d="m204.509 124.07h-38.752v-7.898c0-9.237 7.488-16.726 16.726-16.726h5.301c9.237 0 16.726 7.488 16.726 16.726v7.898z" fill="#f9a7a7"/><circle cx="185.133" cy="80.071" fill="#f9cfcf" r="19.376"/><path d="m165.975 142.718h-40.273v-8.208c0-9.6 7.782-17.382 17.382-17.382h5.509c9.6 0 17.382 7.782 17.382 17.382z" fill="#e0ebfc"/><circle cx="145.839" cy="96.992" fill="#f9cfcf" r="20.136"/><g fill="#3762cc"><path d="m125.92 126.07h-38.752c-1.104 0-2-.896-2-2v-7.897c0-10.325 8.4-18.726 18.726-18.726h5.301c10.325 0 18.726 8.4 18.726 18.726v7.897c-.001 1.105-.896 2-2.001 2zm-36.752-4h34.752v-5.897c0-8.12-6.606-14.726-14.726-14.726h-5.301c-8.12 0-14.726 6.605-14.726 14.726v5.897z"/><path d="m106.544 101.447c-11.787 0-21.376-9.589-21.376-21.376s9.589-21.376 21.376-21.376 21.376 9.589 21.376 21.376-9.589 21.376-21.376 21.376zm0-38.752c-9.581 0-17.376 7.795-17.376 17.376s7.795 17.376 17.376 17.376 17.376-7.795 17.376-17.376-7.795-17.376-17.376-17.376z"/><path d="m204.509 126.07h-38.752c-1.104 0-2-.896-2-2v-7.897c0-10.325 8.4-18.726 18.726-18.726h5.301c10.325 0 18.726 8.4 18.726 18.726v7.897c-.001 1.105-.897 2-2.001 2zm-36.752-4h34.752v-5.897c0-8.12-6.605-14.726-14.726-14.726h-5.301c-8.12 0-14.726 6.605-14.726 14.726v5.897z"/><path d="m185.133 101.447c-11.787 0-21.376-9.589-21.376-21.376s9.589-21.376 21.376-21.376 21.376 9.589 21.376 21.376-9.589 21.376-21.376 21.376zm0-38.752c-9.581 0-17.376 7.795-17.376 17.376s7.795 17.376 17.376 17.376 17.376-7.795 17.376-17.376-7.795-17.376-17.376-17.376z"/><path d="m165.975 144.718h-40.272c-1.104 0-2-.896-2-2v-8.208c0-10.688 8.694-19.382 19.382-19.382h5.509c10.688 0 19.382 8.694 19.382 19.382v8.208c-.001 1.104-.897 2-2.001 2zm-38.273-4h36.272v-6.208c0-8.481-6.9-15.382-15.382-15.382h-5.509c-8.481 0-15.382 6.9-15.382 15.382v6.208z"/><path d="m145.839 119.128c-12.206 0-22.137-9.931-22.137-22.137s9.931-22.136 22.137-22.136 22.136 9.93 22.136 22.136-9.93 22.137-22.136 22.137zm0-40.273c-10.001 0-18.137 8.136-18.137 18.136 0 10.001 8.136 18.137 18.137 18.137 10 0 18.136-8.136 18.136-18.137 0-10-8.136-18.136-18.136-18.136z"/></g></svg>