<svg id="Layer_1" enable-background="new 0 0 128 128" height="512" viewBox="0 0 128 128" width="512" xmlns="http://www.w3.org/2000/svg"><path d="m122.235 106.572h-8.932v-50.762c0-5.326-4.333-9.659-9.659-9.659h-24.654c-.05-5.402-1.613-11.611-4.663-18.468-.001-.003-.001-.005-.002-.008-2.09-4.741-4.405-8.703-5.979-11.188-.916-1.459-1.51-2.287-1.535-2.322-.188-.261-.49-.416-.812-.416-.001 0-.002 0-.003 0-.323.001-.626.158-.813.421-.167.235-4.127 5.85-7.509 13.504-.002.005-.003.01-.005.015-3.049 6.852-4.611 13.059-4.661 18.461h-24.928c-5.327 0-9.661 4.333-9.661 9.659v50.763h-8.654c-.552 0-1 .448-1 1v3.854c0 3.763 3.062 6.825 6.826 6.825h100.819c3.764 0 6.825-3.062 6.825-6.825v-3.854c0-.552-.447-1-1-1z" fill="#e6e7e8"/><path d="m108.303 103.572v-52.21c0-4.781-3.877-8.659-8.659-8.659h-75.565c-4.783 0-8.661 3.878-8.661 8.659v52.21z" fill="#0089ef"/><path d="m22.305 97.584v-48.774h79.112v48.774s-79.168-.056-79.112 0z" fill="#6dc9f7"/><path d="m118.235 103.572v3.854c0 3.216-2.608 5.825-5.825 5.825h-100.819c-3.218 0-5.826-2.608-5.826-5.825v-3.854z" fill="#fa759e"/><path d="m68.566 64.726c-.006.008-.011.018-.016.026h-13.1c-.006-.008-.011-.018-.016-.026-2.299 2.523-5.469 7.36-3.433 13.413 2.566 7.626 8.362 16.21 10 18.659 1.638-2.449 7.434-11.033 10-18.659 2.035-6.052-1.136-10.889-3.435-13.413z" fill="#fa759e"/><path d="m62 86.612c-1.941-3.192-4.545-7.855-5.929-12.113-1.536-4.725 1.693-8.429 3.081-9.749l2.844.004 2.852-.004c1.382 1.313 4.618 5.019 3.08 9.749-1.384 4.257-3.988 8.921-5.928 12.113z" fill="#ffd7e5"/><path d="m50.885 52.383-3.745-2.768c-1.84-1.36-4.47-.444-5.06 1.766-1.154 4.328-2.34 11.206-.756 17.832.631 2.638 4.038 3.377 5.71 1.242l5.718-7.301c.447-.57.69-1.274.69-1.999v-.121c-1.09-2.47-1.963-5.396-2.557-8.651z" fill="#0089ef"/><path d="m81.92 51.381c-.589-2.211-3.22-3.127-5.06-1.766l-3.745 2.768c-.594 3.254-1.467 6.18-2.557 8.65v.121c0 .725.243 1.428.69 1.999l5.718 7.301c1.672 2.135 5.08 1.396 5.71-1.242 1.584-6.625.398-13.503-.756-17.831z" fill="#0089ef"/><path d="m74 42.422c0 7.71-1.48 14.65-3.84 19.52h-16.32c-2.36-4.87-3.84-11.81-3.84-19.52 0-6.2 2.12-12.79 4.59-18.34h14.82c2.47 5.55 4.59 12.14 4.59 18.34z" fill="#fff"/><path d="m69.41 24.082h-11.82c-2.47 5.55-4.59 12.14-4.59 18.34 0 7.71 1.48 14.65 3.84 19.52h13.32c2.36-4.87 3.84-11.81 3.84-19.52 0-6.2-2.12-12.79-4.59-18.34z" fill="#6dc9f7"/><path d="m69.41 24.082h-14.82c3.38-7.65 7.41-13.33 7.41-13.33s4.03 5.68 7.41 13.33z" fill="#fff"/><path d="m69.41 24.079h-11.82c2.09-4.74 4.43-8.72 5.91-11.06 1.48 2.34 3.82 6.32 5.91 11.06z" fill="#fa759e"/><path d="m70.16 61.942c-.49 1.04-1.04 1.98-1.61 2.81h-13.1c-.57-.83-1.12-1.77-1.61-2.81z" fill="#0089ef"/><circle cx="62" cy="34.875" fill="#fa759e" r="6.08"/><path d="m62 31.543c-1.838 0-3.333 1.495-3.333 3.333s1.495 3.333 3.333 3.333 3.333-1.495 3.333-3.333c-.001-1.839-1.495-3.333-3.333-3.333z" fill="#d4fbff"/><ellipse cx="62" cy="59.643" fill="#0089ef" rx="3.252" ry="12.057"/><g fill="#3a2c60"><path d="m44.387 112.251h-8.842c-.552 0-1 .448-1 1s.448 1 1 1h8.842c.552 0 1-.448 1-1s-.448-1-1-1z"/><path d="m118.234 102.572h-8.932v-51.21c0-5.326-4.333-9.659-9.659-9.659h-24.668c-.129-5.3-1.681-11.355-4.65-18.028 0 0-.001-.001-.001-.001-2.09-4.739-4.405-8.701-5.977-11.186-.916-1.46-1.511-2.289-1.536-2.323-.188-.261-.49-.416-.812-.416-.001 0-.002 0-.003 0-.323.001-.625.158-.812.421-.167.235-4.127 5.85-7.509 13.504-.001.003-.002.006-.003.01-2.967 6.669-4.518 12.72-4.647 18.019h-24.945c-5.327 0-9.661 4.333-9.661 9.659v51.21h-8.654c-.552 0-1 .448-1 1v3.854c0 3.763 3.062 6.825 6.826 6.825h19.271c.552 0 1-.448 1-1s-.448-1-1-1h-19.271c-2.661 0-4.826-2.165-4.826-4.825v-2.854h110.469v2.854c0 2.66-2.164 4.825-4.824 4.825h-63.97c-.552 0-1 .448-1 1s.448 1 1 1h63.97c3.763 0 6.824-3.062 6.824-6.825v-3.854c0-.552-.447-1-1-1zm-65.799-41.345c-.016.473-.178.936-.471 1.31l-5.718 7.301c-.543.695-1.38.998-2.249.809-.861-.188-1.498-.811-1.702-1.666-1.514-6.331-.428-12.925.75-17.341.194-.727.712-1.287 1.421-1.535.248-.087.5-.129.75-.129.47 0 .93.15 1.327.444l3.412 2.523c.58 3.038 1.417 5.829 2.48 8.284zm5.507 2.525h-1.958c-.17-.264-.335-.535-.495-.81h2.386c.021.269.042.538.067.81zm-2.083 2h2.327c.549 3.649 1.686 6.948 3.814 6.948s3.264-3.298 3.813-6.948h2.328c2.361 2.725 4.638 6.934 2.911 12.068-2.198 6.531-6.793 13.758-9.052 17.175-2.261-3.418-6.854-10.643-9.052-17.175-1.727-5.134.549-9.343 2.911-12.068zm3.889-6.109c0-7.28 1.626-10.861 2.231-11.06.647.198 2.274 3.779 2.274 11.06 0 7.28-1.626 10.861-2.231 11.059-.648-.198-2.274-3.779-2.274-11.059zm8.267 4.109h-1.957c.026-.272.046-.541.066-.81h2.386c-.159.276-.324.546-.495.81zm6.028-10.81 3.413-2.523c.396-.293.856-.444 1.327-.444.25 0 .502.042.75.129.709.249 1.228.808 1.422 1.535 1.177 4.417 2.263 11.012.749 17.342-.204.855-.841 1.478-1.702 1.666-.869.187-1.704-.114-2.248-.809l-5.718-7.301c-.293-.372-.455-.835-.47-1.309 1.062-2.456 1.899-5.248 2.477-8.286zm-12.041-40.406c.191.292.41.632.652 1.018 1.38 2.181 3.342 5.521 5.204 9.525h-11.716c2.235-4.792 4.639-8.674 5.86-10.543zm-6.76 12.546h13.516c2.815 6.478 4.242 12.309 4.242 17.34 0 6.95-1.262 13.653-3.476 18.52h-3.295c.014-.45.023-.89.023-1.299 0-4.85-.895-13.057-4.252-13.057s-4.252 8.208-4.252 13.057c0 .409.009.849.023 1.299h-3.295c-2.214-4.866-3.476-11.569-3.476-18.52 0-5.032 1.427-10.863 4.242-17.34zm-38.824 26.28c0-4.223 3.437-7.659 7.661-7.659h24.95c.046 2.202.204 4.352.478 6.418l-1.774-1.311c-1.132-.837-2.6-1.059-3.927-.594-1.325.464-2.331 1.55-2.693 2.907-1.237 4.64-2.373 11.584-.763 18.322.382 1.596 1.616 2.805 3.221 3.155.309.067.617.1.922.1 1.287 0 2.508-.583 3.327-1.629l5.718-7.301c.027-.035.042-.077.068-.113.185.332.384.651.585.971-2.282 2.71-5.209 7.679-3.14 13.829 2.556 7.597 8.167 15.983 10.011 18.739l.105.157c.186.278.497.444.831.444s.646-.167.832-.444l.108-.162c1.843-2.756 7.453-11.142 10.009-18.734 2.068-6.151-.859-11.12-3.141-13.829.201-.319.4-.638.585-.971.026.036.041.078.068.113l5.718 7.3c.818 1.046 2.039 1.63 3.326 1.629.305 0 .614-.033.922-.1 1.605-.35 2.84-1.559 3.222-3.155 1.61-6.736.475-13.682-.763-18.322-.361-1.356-1.368-2.443-2.693-2.907-1.324-.462-2.793-.242-3.927.594l-1.773 1.311c.275-2.066.432-4.216.478-6.418h24.673c4.224 0 7.659 3.436 7.659 7.659v51.21h-90.883z"/></g></svg>