<svg width="351" height="381" viewBox="0 0 351 381" fill="none" xmlns="http://www.w3.org/2000/svg">
<path d="M321.074 129.777L287.087 137.543L272.727 110.499L301.788 99.1686L321.074 129.777Z" fill="#2F2E41"/>
<path d="M239.505 165.61L234.8 156.438C234.437 155.73 234.232 154.951 234.2 154.156C234.168 153.361 234.309 152.568 234.613 151.833C234.918 151.097 235.379 150.437 235.964 149.897C236.55 149.357 237.246 148.95 238.004 148.705C238.768 148.458 239.578 148.382 240.375 148.48C241.172 148.579 241.938 148.851 242.619 149.277C243.3 149.703 243.879 150.272 244.316 150.945C244.753 151.619 245.037 152.379 245.148 153.174L246.428 162.335L258.451 181.255V169.976L271.933 171.431L270.045 191.532C269.951 192.54 269.655 193.519 269.176 194.411C268.696 195.303 268.043 196.09 267.254 196.726C266.396 197.419 265.396 197.916 264.325 198.184C263.255 198.452 262.138 198.483 261.054 198.276C259.97 198.07 258.944 197.629 258.047 196.986C257.151 196.343 256.405 195.513 255.863 194.553L239.505 165.61Z" fill="#A0616A"/>
<path d="M341.524 347.891L330.958 348.619L324.035 283.492L283.956 244.198L279.948 348.619H267.925C260.591 284.505 243.004 216.267 265.738 199.81L271.932 189.259L309.461 196.172L310.918 210.725L317.656 227.631L343.04 270.216C344.665 272.941 345.44 276.087 345.267 279.254L341.524 347.891Z" fill="#2F2E41"/>
<path d="M274.698 376.634C273.507 376.634 272.329 376.389 271.237 375.913C270.146 375.438 269.164 374.743 268.353 373.871C267.543 373 266.921 371.971 266.527 370.849C266.133 369.726 265.975 368.535 266.063 367.349L267.56 347.163C271.996 342.624 276.111 343.218 279.948 348.255L283.221 366.46C283.444 367.705 283.392 368.984 283.067 370.206C282.742 371.429 282.152 372.565 281.34 373.535C280.527 374.505 279.511 375.286 278.363 375.821C277.216 376.356 275.965 376.634 274.698 376.634Z" fill="#BEA9EF"/>
<path d="M345.415 381C344.631 381 343.857 380.835 343.142 380.517C342.426 380.198 341.786 379.733 341.263 379.151L321.158 356.797C320.591 356.166 320.158 355.425 319.886 354.622C319.614 353.818 319.509 352.967 319.577 352.121C319.646 351.275 319.886 350.452 320.283 349.702C320.68 348.952 321.227 348.291 321.888 347.758L329.865 341.342L341.524 346.436L350.704 373.648C350.986 374.486 351.065 375.38 350.934 376.255C350.802 377.129 350.464 377.96 349.947 378.679C349.431 379.397 348.75 379.982 347.962 380.386C347.174 380.789 346.301 381 345.415 381Z" fill="#BEA9EF"/>
<path d="M293.313 128.003C300.634 128.003 306.569 122.076 306.569 114.766C306.569 107.455 300.634 101.529 293.313 101.529C285.992 101.529 280.057 107.455 280.057 114.766C280.057 122.076 285.992 128.003 293.313 128.003Z" fill="#A0616A"/>
<path d="M300.899 171.249H284.138L280.313 137.958C284.392 132.216 285.718 126.218 284.138 119.948H300.899C298.315 125.579 298.758 131.216 305.453 136.867L300.899 171.249Z" fill="#A0616A"/>
<path d="M308.732 196.9C295.603 201.711 283.293 200.224 271.933 191.442C271.658 180.928 269.086 167.882 265.486 153.704C264.946 151.579 265.122 149.335 265.987 147.319C266.852 145.303 268.358 143.628 270.272 142.552L281.041 136.503L293.065 164.882L303.996 135.775L311.264 137.388C312.98 137.771 314.529 138.69 315.686 140.011C316.843 141.333 317.549 142.988 317.7 144.737C319.605 166.324 319.036 185.788 308.732 196.9Z" fill="#E6E6E6"/>
<path d="M273.39 178.708C265.786 179.442 260.324 176.306 256.63 169.976L259.18 158.314C259.18 154.52 260.391 150.825 262.637 147.765C264.883 144.705 268.047 142.439 271.67 141.296L273.026 140.869L273.39 178.708Z" fill="#E6E6E6"/>
<path d="M328.043 230.736L329.845 238.832C330.05 239.754 330.027 240.713 329.779 241.624C329.53 242.536 329.063 243.374 328.418 244.065C327.772 244.756 326.968 245.279 326.075 245.591C325.182 245.902 324.226 245.991 323.29 245.851C322.499 245.733 321.742 245.453 321.064 245.03C320.386 244.607 319.803 244.049 319.35 243.391C318.898 242.733 318.585 241.989 318.433 241.205C318.28 240.422 318.291 239.615 318.464 238.836L320.431 229.969L314.562 173.25L326.221 168.157L328.043 230.736Z" fill="#A0616A"/>
<path d="M312.74 175.797C320.344 176.532 325.806 173.395 329.501 167.065L326.95 155.403C326.95 151.609 325.739 147.914 323.493 144.854C321.247 141.794 318.083 139.528 314.46 138.386L313.105 137.958L312.74 175.797Z" fill="#E6E6E6"/>
<path d="M300.544 94.9988C300.544 94.9988 308.073 96.413 309.814 105.789C310.086 107.371 310.136 108.982 309.961 110.577C309.787 112.382 310.04 116.194 313.964 120.683C316.525 123.594 318.911 126.654 321.11 129.847L313.243 131.938L309.728 118.923C308.024 112.613 305.399 106.587 301.937 101.041L301.864 100.925C301.864 100.925 299.251 107.896 292.248 108.852L294.408 106.013C294.408 106.013 286.221 110.739 281.582 112.183C281.053 112.348 280.579 112.654 280.211 113.068C279.842 113.482 279.594 113.988 279.493 114.533C279.392 115.077 279.442 115.639 279.636 116.157C279.831 116.676 280.164 117.131 280.599 117.475C280.632 117.5 280.665 117.526 280.699 117.552C284.111 120.14 291.071 126.314 288.321 132.286C285.572 138.259 288.778 139.348 288.778 139.348L282.865 137.102L280.159 135.945L280.433 137.943L267.221 138.219C267.221 138.219 263.651 138.197 269.993 128.681C269.993 128.681 271.523 125.113 270.267 122.388C269.258 120.323 268.757 118.049 268.802 115.753C269.202 106.159 273.249 86.6412 300.544 94.9988Z" fill="#2F2E41"/>
<path d="M249.356 129.779L247.478 129.151L264.71 77.7815C266.02 73.8772 266.547 69.7535 266.261 65.6458C265.975 61.5382 264.881 57.527 263.043 53.8414C261.204 50.1558 258.656 46.8679 255.545 44.1654C252.434 41.4629 248.821 39.3988 244.911 38.0909H244.911L244.911 38.0908L135.923 1.63312C128.026 -1.00834 119.402 -0.40924 111.948 3.29862C104.494 7.00648 98.8205 13.5194 96.1753 21.4045L96.1753 21.4046L1.63546 303.22C-1.00976 311.105 -0.409801 319.717 3.30336 327.16C7.01652 334.604 13.5387 340.269 21.4352 342.911H21.4352L130.423 379.368C138.32 382.01 146.943 381.411 154.397 377.703C161.852 373.995 167.525 367.482 170.171 359.597L170.171 359.597L235.211 165.716L237.089 166.344L249.356 129.779Z" fill="#3F3D56"/>
<path d="M243.516 46.2269L229.29 41.468C229.407 43.2886 229.074 45.1099 228.32 46.7715C227.566 48.4332 226.414 49.8842 224.966 50.9967C223.518 52.1092 221.818 52.849 220.017 53.1511C218.215 53.4531 216.367 53.3081 214.634 52.7287L152.196 31.8426C150.464 31.263 148.901 30.2669 147.645 28.942C146.389 27.6172 145.479 26.0042 144.995 24.2453C144.51 22.4864 144.466 20.6354 144.866 18.8555C145.267 17.0756 146.1 15.4213 147.291 14.0385L134.004 9.5936C128.107 7.621 121.666 8.0684 116.1 10.8374C110.533 13.6064 106.296 18.4702 104.321 24.3587L9.91949 305.761C7.94407 311.649 8.39212 318.08 11.1651 323.639C13.938 329.198 18.8087 333.429 24.7057 335.401H24.7058L134.219 372.035C137.139 373.011 140.222 373.404 143.294 373.191C146.366 372.977 149.366 372.162 152.122 370.791C154.879 369.42 157.338 367.52 159.359 365.2C161.38 362.88 162.923 360.185 163.902 357.269L258.303 75.8675C259.281 72.9518 259.674 69.8722 259.461 66.8047C259.247 63.7371 258.43 60.7416 257.057 57.9893C255.684 55.2369 253.782 52.7815 251.458 50.7633C249.135 48.7451 246.436 47.2037 243.516 46.2269L243.516 46.2269Z" fill="white"/>
<path d="M216.129 140.634L99.2576 101.539C98.684 101.347 98.2104 100.935 97.9405 100.394C97.6707 99.8531 97.6268 99.2274 97.8183 98.6542L107.53 69.7047C107.723 69.132 108.135 68.659 108.677 68.3896C109.219 68.1201 109.845 68.0762 110.419 68.2675L227.291 107.362C227.864 107.555 228.338 107.967 228.608 108.508C228.878 109.049 228.922 109.674 228.73 110.248L219.018 139.197C218.826 139.77 218.413 140.243 217.871 140.512C217.33 140.782 216.703 140.826 216.129 140.634ZM110.129 69.132C109.785 69.0172 109.409 69.0435 109.084 69.2052C108.759 69.3668 108.511 69.6506 108.396 69.9943L98.684 98.9438C98.5691 99.2877 98.5954 99.6631 98.7573 99.9877C98.9192 100.312 99.2034 100.559 99.5476 100.675L216.419 139.77C216.764 139.885 217.139 139.858 217.464 139.697C217.789 139.535 218.037 139.251 218.153 138.907L227.864 109.958C227.979 109.614 227.953 109.239 227.791 108.914C227.629 108.59 227.345 108.342 227.001 108.227L110.129 69.132Z" fill="#3F3D56"/>
<path d="M177.703 255.178L60.8319 216.083C60.2584 215.89 59.7847 215.478 59.5149 214.937C59.2451 214.397 59.2011 213.771 59.3926 213.198L77.3694 159.611C77.5623 159.038 77.9748 158.565 78.5164 158.295C79.0581 158.026 79.6846 157.982 80.2587 158.173L197.13 197.268C197.704 197.461 198.177 197.873 198.447 198.414C198.717 198.954 198.761 199.58 198.569 200.153L180.593 253.741C180.4 254.313 179.987 254.786 179.446 255.056C178.904 255.325 178.277 255.369 177.703 255.178ZM79.9687 159.038C79.6243 158.923 79.2483 158.949 78.9233 159.111C78.5983 159.273 78.3508 159.556 78.2351 159.9L60.2584 213.487C60.1434 213.831 60.1698 214.207 60.3317 214.531C60.4936 214.856 60.7778 215.103 61.1219 215.218L177.993 254.313C178.338 254.428 178.714 254.402 179.039 254.24C179.364 254.078 179.611 253.795 179.727 253.451L197.704 199.864C197.819 199.52 197.792 199.144 197.63 198.82C197.469 198.495 197.184 198.248 196.84 198.133L79.9687 159.038Z" fill="#3F3D56"/>
<path d="M200.183 185.298L148.24 167.922C147.667 167.729 147.193 167.318 146.923 166.777C146.653 166.236 146.609 165.61 146.801 165.037L156.512 136.087C156.705 135.515 157.118 135.042 157.66 134.772C158.201 134.503 158.828 134.459 159.402 134.65L211.345 152.026C211.918 152.218 212.392 152.63 212.662 153.171C212.932 153.712 212.976 154.338 212.784 154.911L203.072 183.86C202.88 184.433 202.467 184.906 201.925 185.175C201.384 185.445 200.757 185.489 200.183 185.298ZM159.112 135.515C158.767 135.4 158.391 135.426 158.066 135.588C157.741 135.749 157.494 136.033 157.378 136.377L147.667 165.326C147.552 165.67 147.578 166.046 147.74 166.37C147.902 166.695 148.186 166.942 148.53 167.058L200.473 184.433C200.818 184.548 201.194 184.522 201.519 184.36C201.844 184.198 202.091 183.914 202.207 183.571L211.918 154.621C212.033 154.277 212.007 153.902 211.845 153.577C211.683 153.253 211.399 153.006 211.055 152.89L159.112 135.515Z" fill="#E6E6E6"/>
<path d="M89.2846 303.481L37.3416 286.106C36.768 285.913 36.2944 285.501 36.0245 284.96C35.7547 284.419 35.7107 283.794 35.9023 283.22L54.024 229.201C54.2169 228.628 54.6294 228.155 55.1711 227.886C55.7127 227.616 56.3393 227.573 56.9133 227.764L108.856 245.139C109.43 245.332 109.904 245.744 110.173 246.285C110.443 246.826 110.487 247.451 110.296 248.025L92.1739 302.044C91.981 302.617 91.5685 303.09 91.0268 303.359C90.4852 303.629 89.8586 303.672 89.2846 303.481ZM56.6233 228.628C56.2789 228.514 55.9029 228.54 55.5779 228.702C55.2529 228.863 55.0054 229.147 54.8897 229.491L36.768 283.51C36.653 283.854 36.6794 284.229 36.8413 284.554C37.0032 284.878 37.2874 285.126 37.6316 285.241L89.5746 302.617C89.919 302.731 90.295 302.705 90.62 302.544C90.945 302.382 91.1925 302.098 91.3082 301.754L109.43 247.735C109.545 247.391 109.519 247.016 109.357 246.691C109.195 246.367 108.911 246.119 108.566 246.004L56.6233 228.628Z" fill="#E6E6E6"/>
<path d="M153.347 324.911L101.404 307.535C100.831 307.343 100.357 306.931 100.087 306.39C99.8175 305.849 99.7735 305.223 99.965 304.65L118.087 250.631C118.28 250.058 118.692 249.585 119.234 249.316C119.775 249.046 120.402 249.002 120.976 249.194L172.919 266.569C173.493 266.762 173.966 267.174 174.236 267.715C174.506 268.255 174.55 268.881 174.358 269.454L156.237 323.474C156.044 324.046 155.631 324.519 155.09 324.789C154.548 325.058 153.921 325.102 153.347 324.911ZM120.686 250.058C120.342 249.943 119.966 249.97 119.641 250.131C119.316 250.293 119.068 250.577 118.952 250.92L100.831 304.94C100.716 305.284 100.742 305.659 100.904 305.984C101.066 306.308 101.35 306.555 101.694 306.671L153.637 324.046C153.982 324.161 154.358 324.135 154.683 323.973C155.008 323.812 155.255 323.528 155.371 323.184L173.493 269.165C173.608 268.821 173.581 268.445 173.419 268.121C173.257 267.796 172.973 267.549 172.629 267.434L120.686 250.058Z" fill="#E6E6E6"/>
<path d="M113.514 183.883C113.321 183.817 113.118 183.789 112.914 183.802C112.711 183.814 112.512 183.867 112.329 183.956C112.146 184.046 111.982 184.17 111.847 184.323C111.712 184.476 111.609 184.653 111.543 184.846C111.477 185.039 111.45 185.242 111.463 185.445C111.476 185.649 111.529 185.847 111.619 186.03C111.709 186.212 111.834 186.375 111.988 186.51C112.141 186.644 112.319 186.747 112.512 186.812L112.53 186.818L181.799 209.989C182.188 210.122 182.614 210.095 182.983 209.914C183.352 209.733 183.634 209.413 183.766 209.024C183.899 208.636 183.872 208.211 183.691 207.842C183.509 207.474 183.189 207.193 182.8 207.06L182.784 207.055L113.514 183.883Z" fill="#E6E6E6"/>
<path d="M110.561 192.687C110.368 192.621 110.164 192.593 109.961 192.606C109.757 192.618 109.559 192.671 109.376 192.76C109.192 192.85 109.029 192.974 108.894 193.127C108.759 193.279 108.656 193.457 108.59 193.65C108.524 193.842 108.497 194.046 108.51 194.249C108.523 194.452 108.576 194.651 108.666 194.833C108.756 195.016 108.881 195.179 109.034 195.313C109.188 195.447 109.366 195.55 109.559 195.615L109.576 195.621L139.383 205.592C139.772 205.72 140.196 205.688 140.562 205.505C140.928 205.322 141.206 205.001 141.336 204.613C141.466 204.226 141.437 203.803 141.256 203.436C141.075 203.07 140.755 202.79 140.368 202.658L110.561 192.687Z" fill="#E6E6E6"/>
<path d="M78.7162 197.688C77.5984 197.314 76.468 197.668 76.1967 198.477C75.9253 199.286 76.614 200.249 77.7317 200.623L173.303 232.592C174.42 232.966 175.551 232.612 175.822 231.803C176.094 230.994 175.405 230.032 174.287 229.658L78.7162 197.688Z" fill="#E6E6E6"/>
<path d="M75.7628 206.492C74.6451 206.118 73.5147 206.472 73.2433 207.281C72.972 208.09 73.6606 209.052 74.7784 209.426L170.349 241.396C171.467 241.77 172.597 241.416 172.869 240.607C173.14 239.798 172.451 238.835 171.334 238.461L75.7628 206.492Z" fill="#E6E6E6"/>
<path d="M145.7 90.8092C145.311 90.6787 144.886 90.7078 144.518 90.8902C144.151 91.0725 143.87 91.3931 143.739 91.7816C143.608 92.1701 143.636 92.5947 143.818 92.9622C144 93.3297 144.321 93.61 144.71 93.7416L144.716 93.7437L213.986 116.915C214.375 117.043 214.798 117.011 215.164 116.828C215.53 116.645 215.809 116.324 215.939 115.937C216.069 115.549 216.04 115.126 215.858 114.759C215.677 114.393 215.358 114.113 214.97 113.981L145.7 90.8092Z" fill="#E6E6E6"/>
<path d="M142.747 99.6127C142.554 99.5474 142.35 99.5208 142.147 99.5342C141.944 99.5477 141.745 99.6011 141.563 99.6912C141.38 99.7814 141.217 99.9067 141.083 100.06C140.949 100.213 140.846 100.391 140.781 100.584C140.716 100.776 140.69 100.98 140.704 101.183C140.717 101.386 140.771 101.584 140.862 101.766C140.952 101.949 141.078 102.111 141.232 102.245C141.385 102.378 141.564 102.481 141.757 102.545L141.763 102.547L171.57 112.518C171.959 112.646 172.382 112.614 172.748 112.431C173.114 112.248 173.392 111.927 173.523 111.539C173.653 111.152 173.624 110.728 173.442 110.362C173.261 109.996 172.942 109.716 172.554 109.584L142.747 99.6127Z" fill="#E6E6E6"/>
<path d="M136.073 163.858L87.3456 147.558L105.466 131.56C105.791 131.273 106.186 131.077 106.61 130.991C107.035 130.905 107.475 130.932 107.886 131.069C108.297 131.207 108.665 131.45 108.952 131.774C109.239 132.099 109.436 132.493 109.522 132.917L111.578 143.028L124.741 131.408C125.147 131.049 125.641 130.804 126.173 130.696C126.705 130.588 127.256 130.622 127.771 130.794C128.285 130.966 128.746 131.27 129.105 131.676C129.465 132.082 129.711 132.576 129.819 133.107L136.073 163.858ZM89.1349 147.195L134.863 162.492L128.924 133.288C128.848 132.914 128.674 132.566 128.421 132.28C128.168 131.994 127.843 131.78 127.481 131.658C127.118 131.537 126.73 131.513 126.355 131.589C125.98 131.665 125.632 131.838 125.345 132.091L110.998 144.757L108.627 133.098C108.573 132.831 108.449 132.583 108.268 132.378C108.087 132.174 107.856 132.021 107.596 131.934C107.337 131.847 107.06 131.83 106.792 131.884C106.525 131.939 106.276 132.063 106.071 132.243L89.1349 147.195Z" fill="#E6E6E6"/>
<path d="M198.404 184.708L149.677 168.409L167.798 152.411C168.122 152.124 168.517 151.928 168.942 151.842C169.367 151.755 169.807 151.782 170.218 151.92C170.629 152.057 170.996 152.301 171.284 152.625C171.571 152.949 171.767 153.343 171.854 153.768L173.91 163.879L187.072 152.259C187.479 151.9 187.973 151.654 188.505 151.546C189.037 151.438 189.587 151.472 190.102 151.644C190.617 151.816 191.077 152.121 191.436 152.527C191.796 152.933 192.042 153.426 192.15 153.958L198.404 184.708ZM151.466 168.046L197.195 183.342L191.255 154.139C191.179 153.765 191.006 153.417 190.752 153.131C190.499 152.845 190.175 152.63 189.812 152.509C189.449 152.387 189.061 152.364 188.686 152.44C188.312 152.516 187.963 152.689 187.677 152.942L173.33 165.608L170.959 153.949C170.904 153.682 170.78 153.433 170.6 153.229C170.419 153.024 170.187 152.871 169.928 152.784C169.669 152.698 169.391 152.681 169.124 152.735C168.856 152.789 168.607 152.913 168.403 153.094L151.466 168.046Z" fill="#E6E6E6"/>
<path d="M136.12 163.868L84.1773 146.492C83.6037 146.3 83.13 145.888 82.8602 145.347C82.5904 144.806 82.5464 144.18 82.738 143.607L92.4496 114.658C92.6425 114.085 93.055 113.612 93.5967 113.342C94.1383 113.073 94.7649 113.029 95.3389 113.22L147.282 130.596C147.856 130.789 148.329 131.201 148.599 131.741C148.869 132.282 148.913 132.908 148.721 133.481L139.01 162.431C138.817 163.003 138.404 163.476 137.863 163.746C137.321 164.015 136.694 164.059 136.12 163.868ZM95.0489 114.085C94.7045 113.97 94.3286 113.996 94.0036 114.158C93.6786 114.32 93.431 114.604 93.3153 114.947L83.6037 143.897C83.4888 144.241 83.5151 144.616 83.677 144.941C83.8389 145.265 84.1231 145.512 84.4673 145.628L136.41 163.003C136.755 163.118 137.131 163.092 137.456 162.93C137.781 162.768 138.028 162.485 138.144 162.141L147.856 133.192C147.97 132.848 147.944 132.472 147.782 132.148C147.62 131.823 147.336 131.576 146.992 131.46L95.0489 114.085Z" fill="#E6E6E6"/>
<path d="M64.2444 242.606C63.8556 242.475 63.4304 242.502 63.0622 242.684C62.694 242.865 62.4129 243.185 62.2805 243.573C62.1481 243.961 62.1752 244.385 62.356 244.753C62.5368 245.121 62.8564 245.403 63.2447 245.535L63.26 245.541L93.0669 255.511C93.2602 255.577 93.4646 255.604 93.6683 255.591C93.872 255.577 94.0711 255.524 94.2541 255.433C94.4371 255.343 94.6004 255.217 94.7346 255.064C94.8688 254.91 94.9712 254.731 95.0361 254.538C95.1009 254.345 95.1269 254.141 95.1125 253.937C95.098 253.734 95.0435 253.535 94.952 253.353C94.8605 253.171 94.7338 253.008 94.5792 252.875C94.4247 252.742 94.2453 252.641 94.0514 252.577L64.2444 242.606Z" fill="#E6E6E6"/>
<path d="M61.3443 251.251C60.9552 251.123 60.531 251.154 60.1646 251.337C59.7983 251.52 59.5195 251.841 59.3893 252.229C59.2592 252.617 59.2882 253.04 59.4701 253.407C59.652 253.774 59.9719 254.054 60.3599 254.185L90.1668 264.156C90.556 264.284 90.9801 264.253 91.3465 264.07C91.7129 263.887 91.9916 263.566 92.1218 263.178C92.252 262.79 92.2229 262.367 92.041 262C91.8592 261.633 91.5392 261.353 91.1513 261.222L61.3443 251.251Z" fill="#E6E6E6"/>
<path d="M67.0502 283.654C65.2209 283.042 63.6145 281.902 62.4339 280.378C61.2534 278.855 60.5518 277.016 60.4179 275.094C60.284 273.172 60.7239 271.254 61.6817 269.582C62.6396 267.909 64.0726 266.559 65.7994 265.7C67.5261 264.841 69.4692 264.512 71.3829 264.756C73.2966 265 75.0949 265.805 76.5504 267.069C78.0059 268.334 79.0533 270.001 79.56 271.859C80.0668 273.718 80.0102 275.685 79.3974 277.512C78.5732 279.959 76.8104 281.981 74.4956 283.132C72.1809 284.284 69.5033 284.471 67.0502 283.654ZM72.9568 266.047C71.2987 265.492 69.5132 265.441 67.826 265.899C66.1388 266.358 64.6257 267.306 63.4781 268.624C62.3304 269.941 61.5998 271.569 61.3785 273.301C61.1572 275.033 61.4552 276.791 62.2349 278.354C63.0146 279.917 64.2409 281.214 65.7587 282.081C67.2765 282.948 69.0177 283.346 70.7621 283.225C72.5065 283.104 74.1757 282.469 75.5587 281.4C76.9417 280.332 77.9763 278.878 78.5317 277.222C79.2737 275.002 79.1034 272.578 78.0583 270.483C77.0132 268.388 75.1785 266.793 72.9568 266.047H72.9568Z" fill="#E6E6E6"/>
<path d="M146.016 310.069C146.209 310.135 146.413 310.162 146.616 310.149C146.82 310.137 147.018 310.084 147.201 309.994C147.384 309.905 147.548 309.78 147.682 309.627C147.817 309.474 147.92 309.297 147.986 309.104C148.051 308.912 148.078 308.708 148.065 308.505C148.052 308.302 147.999 308.103 147.909 307.921C147.819 307.738 147.694 307.575 147.54 307.441C147.387 307.307 147.209 307.205 147.016 307.139L147.001 307.134L117.194 297.163C116.805 297.032 116.38 297.06 116.012 297.241C115.644 297.422 115.363 297.742 115.23 298.13C115.098 298.518 115.125 298.943 115.306 299.311C115.486 299.679 115.806 299.96 116.194 300.093L116.209 300.098L146.016 310.069Z" fill="#E6E6E6"/>
<path d="M148.916 301.424C149.11 301.49 149.314 301.517 149.518 301.503C149.721 301.49 149.921 301.437 150.104 301.346C150.287 301.256 150.45 301.13 150.584 300.976C150.718 300.823 150.821 300.644 150.886 300.451C150.95 300.257 150.976 300.053 150.962 299.85C150.947 299.646 150.893 299.448 150.801 299.266C150.71 299.083 150.583 298.921 150.429 298.788C150.274 298.655 150.095 298.553 149.901 298.489L120.094 288.519C119.705 288.387 119.28 288.415 118.912 288.596C118.544 288.777 118.262 289.097 118.13 289.485C117.998 289.873 118.025 290.298 118.206 290.666C118.386 291.034 118.706 291.315 119.094 291.448L119.109 291.453L148.916 301.424Z" fill="#E6E6E6"/>
<path d="M143.211 269.021C145.04 269.633 146.646 270.773 147.827 272.296C149.007 273.82 149.709 275.659 149.843 277.581C149.977 279.503 149.537 281.421 148.579 283.093C147.621 284.765 146.188 286.116 144.461 286.975C142.735 287.834 140.792 288.163 138.878 287.919C136.964 287.675 135.166 286.87 133.71 285.606C132.255 284.341 131.207 282.674 130.701 280.816C130.194 278.957 130.251 276.99 130.863 275.163C131.688 272.715 133.45 270.694 135.765 269.543C138.08 268.391 140.757 268.204 143.211 269.021ZM137.304 286.628C138.962 287.183 140.747 287.234 142.435 286.775C144.122 286.317 145.635 285.369 146.783 284.051C147.93 282.734 148.661 281.106 148.882 279.374C149.103 277.642 148.805 275.883 148.026 274.32C147.246 272.757 146.02 271.46 144.502 270.594C142.984 269.727 141.243 269.328 139.499 269.45C137.754 269.571 136.085 270.206 134.702 271.274C133.319 272.343 132.284 273.797 131.729 275.453C130.987 277.673 131.157 280.096 132.202 282.191C133.248 284.286 135.082 285.882 137.304 286.628Z" fill="#E6E6E6"/>
<path d="M121.555 80.7334L111.033 86.4372L116.876 96.8713L119.251 95.565L114.854 87.5969L122.9 83.1701L121.555 80.7334Z" fill="#BEA9EF"/>
<path d="M128.259 82.6714L134.103 93.1057L123.581 98.8094L122.273 96.4387L130.252 92.048L125.819 84.0138L128.259 82.6714Z" fill="#BEA9EF"/>
<path d="M91.3444 174.202L80.8226 179.906L86.6663 190.34L89.0404 189.034L84.6442 181.065L92.6896 176.639L91.3444 174.202Z" fill="#BEA9EF"/>
<path d="M98.0491 176.14L103.893 186.574L93.3709 192.278L92.0627 189.907L100.042 185.517L95.6085 177.482L98.0491 176.14Z" fill="#BEA9EF"/>
</svg>
