<?xml version="1.0" standalone="no"?>
<!DOCTYPE svg PUBLIC "-//W3C//DTD SVG 20010904//EN"
 "http://www.w3.org/TR/2001/REC-SVG-20010904/DTD/svg10.dtd">
<svg version="1.0" xmlns="http://www.w3.org/2000/svg"
 width="1698.000000pt" height="1148.000000pt" viewBox="0 0 1698.000000 1148.000000"
 preserveAspectRatio="xMidYMid meet">

<g transform="translate(0.000000,1148.000000) scale(0.100000,-0.100000)"
fill="#6331D8" stroke="none">
<path d="M2417 11470 c-374 -33 -690 -173 -919 -407 -186 -189 -293 -384 -363
-660 -38 -152 -45 -262 -60 -973 -16 -778 -25 -974 -55 -1136 -75 -414 -173
-548 -620 -849 -96 -65 -197 -138 -223 -164 -134 -129 -193 -321 -168 -546 25
-222 85 -300 376 -493 191 -126 270 -189 365 -289 126 -132 188 -251 245 -466
44 -166 57 -376 80 -1338 18 -728 26 -804 102 -1023 211 -607 776 -962 1483
-933 421 18 626 185 647 529 11 174 -28 325 -113 445 -82 115 -163 160 -359
198 -243 46 -308 71 -372 145 -39 44 -81 133 -102 215 -39 153 -44 244 -61
1005 -12 529 -36 795 -96 1046 -107 449 -295 713 -717 1008 l-68 48 88 61
c324 225 522 470 631 777 63 180 108 416 131 695 6 72 13 153 16 182 3 28 12
276 20 550 20 663 32 808 77 940 57 167 156 222 513 288 220 40 356 183 401
420 21 115 15 271 -15 366 -57 180 -203 299 -421 343 -96 19 -317 27 -443 16z"/>
<path d="M14229 11470 c-383 -35 -574 -242 -556 -605 9 -175 49 -291 134 -385
94 -105 167 -138 380 -174 200 -33 254 -54 324 -125 125 -127 145 -259 159
-1051 9 -521 18 -687 45 -905 82 -638 298 -1020 757 -1333 100 -68 101 -57
-12 -132 -157 -105 -378 -318 -465 -450 -130 -198 -215 -433 -259 -720 -38
-246 -66 -715 -66 -1120 0 -113 -5 -292 -10 -399 -15 -290 -45 -435 -111 -531
-66 -96 -134 -126 -372 -169 -111 -20 -187 -40 -225 -58 -247 -116 -359 -528
-222 -820 62 -133 213 -241 390 -279 163 -34 415 -30 635 12 555 105 976 515
1099 1069 39 176 42 234 61 1087 18 766 31 951 85 1165 26 101 106 262 169
338 84 102 247 230 505 398 222 144 302 293 299 557 -2 298 -71 402 -413 625
-352 230 -488 400 -575 720 -39 144 -56 447 -75 1340 -14 679 -23 776 -95 992
-99 296 -299 558 -548 717 -290 185 -660 269 -1038 236z"/>
<path d="M4970 10175 l-1055 -1055 1058 0 1057 0 0 1055 c0 580 -1 1055 -3
1055 -1 0 -477 -475 -1057 -1055z"/>
<path d="M9550 10175 l-1055 -1055 1058 0 1057 0 0 1055 c0 580 -1 1055 -3
1055 -1 0 -477 -475 -1057 -1055z"/>
<path d="M10730 10175 l0 -1055 1057 0 1058 0 -1055 1055 c-580 580 -1056
1055 -1057 1055 -2 0 -3 -475 -3 -1055z"/>
<path d="M6150 10170 l0 -1050 1052 0 1053 0 -1050 1050 c-577 578 -1051 1050
-1052 1050 -2 0 -3 -472 -3 -1050z"/>
<path d="M9550 7985 c580 -580 1056 -1055 1057 -1055 2 0 3 475 3 1055 l0
1055 -1057 0 -1058 0 1055 -1055z"/>
<path d="M10740 7983 l0 -1058 1055 1055 c580 580 1055 1056 1055 1057 0 2
-475 3 -1055 3 l-1055 0 0 -1057z"/>
<path d="M4970 7955 c580 -580 1056 -1055 1057 -1055 2 0 3 475 3 1055 l0
1055 -1057 0 -1058 0 1055 -1055z"/>
<path d="M6150 7953 l0 -1058 1055 1055 c580 580 1055 1056 1055 1057 0 2
-475 3 -1055 3 l-1055 0 0 -1057z"/>
<path d="M8460 7850 l0 -1050 1052 0 1053 0 -1050 1050 c-577 578 -1051 1050
-1052 1050 -2 0 -3 -472 -3 -1050z"/>
<path d="M7295 7830 l-1050 -1050 1053 0 1052 0 0 1050 c0 578 -1 1050 -3
1050 -1 0 -475 -472 -1052 -1050z"/>
<path d="M11820 7805 l-1055 -1055 1058 0 1057 0 0 1055 c0 580 -1 1055 -3
1055 -1 0 -477 -475 -1057 -1055z"/>
<path d="M3910 7780 l0 -1050 1052 0 1053 0 -1050 1050 c-577 578 -1051 1050
-1052 1050 -2 0 -3 -472 -3 -1050z"/>
<path d="M7295 5600 c577 -577 1051 -1050 1052 -1050 2 0 3 473 3 1050 l0
1050 -1052 0 -1053 0 1050 -1050z"/>
<path d="M8460 5598 l0 -1053 1050 1050 c578 577 1050 1051 1050 1052 0 2
-472 3 -1050 3 l-1050 0 0 -1052z"/>
<path d="M4935 5570 c577 -577 1053 -1050 1057 -1050 5 0 8 473 8 1050 l0
1050 -1057 0 -1058 0 1050 -1050z"/>
<path d="M6110 5565 l0 -1055 1057 0 1058 0 -1055 1055 c-580 580 -1056 1055
-1057 1055 -2 0 -3 -475 -3 -1055z"/>
<path d="M9660 5565 l-1055 -1055 1058 0 1057 0 0 1055 c0 580 -1 1055 -3
1055 -1 0 -477 -475 -1057 -1055z"/>
<path d="M10800 5570 c0 -577 3 -1050 8 -1050 4 0 480 473 1057 1050 l1050
1050 -1058 0 -1057 0 0 -1050z"/>
<path d="M7275 3300 c577 -577 1051 -1050 1052 -1050 2 0 3 473 3 1050 l0
1050 -1052 0 -1053 0 1050 -1050z"/>
<path d="M8500 3298 l0 -1053 1050 1050 c578 577 1050 1051 1050 1052 0 2
-472 3 -1050 3 l-1050 0 0 -1052z"/>
<path d="M3420 874 c-162 -223 -298 -408 -301 -410 -4 -2 -139 178 -300 401
-162 222 -297 404 -301 404 -5 1 -8 -278 -8 -619 l0 -620 125 0 125 0 2 251 3
250 162 -223 c89 -123 168 -231 176 -242 13 -17 28 1 188 222 l174 241 3 -250
2 -249 125 0 125 0 0 625 c0 344 -1 625 -2 625 -2 -1 -136 -183 -298 -406z"/>
<path d="M4780 874 c-162 -223 -298 -408 -301 -410 -4 -2 -139 178 -300 401
-162 222 -297 404 -301 404 -5 1 -8 -278 -8 -619 l0 -620 125 0 125 0 2 251 3
250 162 -223 c89 -123 168 -231 176 -242 12 -17 28 2 188 222 l174 241 3 -250
2 -249 125 0 125 0 0 625 c0 344 -1 625 -2 625 -2 -1 -136 -183 -298 -406z"/>
<path d="M12972 1230 c-11 -25 -135 -303 -276 -618 -141 -315 -256 -575 -256
-578 0 -2 59 -3 131 -2 l132 3 37 85 37 85 215 3 215 2 41 -90 41 -90 131 0
c102 0 131 3 127 13 -13 33 -539 1202 -547 1216 -7 13 -12 7 -28 -29z m81
-670 l54 -125 -59 -3 c-32 -2 -83 -2 -113 0 l-54 3 56 128 c31 70 57 126 59
125 1 -2 27 -59 57 -128z"/>
<path d="M13670 651 l0 -621 120 0 120 0 0 335 c0 184 3 335 6 335 5 0 439
-411 677 -639 l57 -55 0 627 0 627 -120 0 -120 0 0 -340 c0 -187 -3 -340 -6
-340 -3 0 -137 125 -297 278 -161 153 -325 309 -364 346 l-73 68 0 -621z"/>
<path d="M586 1245 c-199 -51 -379 -229 -442 -440 -29 -96 -25 -258 10 -360
86 -255 322 -425 591 -425 143 0 298 55 395 140 l45 39 -86 87 -86 86 -46 -35
c-25 -19 -69 -43 -97 -52 -61 -20 -181 -23 -236 -5 -86 28 -183 110 -224 190
-42 79 -50 187 -21 279 78 251 376 344 590 184 l33 -26 87 87 86 87 -40 34
c-49 42 -135 89 -212 116 -77 28 -263 35 -347 14z"/>
<path d="M1620 1244 c-164 -43 -321 -174 -399 -331 -82 -164 -82 -382 0 -546
178 -360 653 -461 959 -203 103 87 179 207 209 330 15 62 15 230 0 293 -53
216 -237 403 -454 458 -75 19 -241 19 -315 -1z m315 -263 c112 -52 197 -162
216 -283 26 -159 -58 -318 -209 -394 -52 -27 -66 -29 -162 -29 -96 0 -110 2
-163 30 -78 39 -159 127 -187 202 -29 78 -29 187 0 265 76 203 308 299 505
209z"/>
<path d="M8980 645 l0 -615 370 0 370 0 0 120 0 120 -245 0 -245 0 0 125 0
125 185 0 185 0 0 120 0 120 -185 0 -185 0 0 125 0 125 245 0 245 0 0 125 0
125 -370 0 -370 0 0 -615z"/>
<path d="M10710 1245 c-216 -60 -389 -234 -445 -450 -19 -76 -19 -233 0 -310
45 -178 175 -330 347 -409 211 -98 472 -64 650 83 l46 38 -87 87 -88 87 -31
-26 c-72 -60 -191 -91 -293 -74 -246 40 -385 311 -274 533 66 132 186 207 332
208 88 0 158 -22 220 -69 l46 -35 86 87 86 86 -40 35 c-55 48 -128 88 -205
114 -86 29 -270 37 -350 15z"/>
<path d="M15226 1244 c-197 -48 -380 -229 -442 -439 -12 -41 -18 -94 -18 -165
0 -176 56 -311 179 -436 121 -122 269 -184 440 -184 175 0 314 58 440 185 119
119 167 229 181 416 l7 89 -317 0 -316 0 0 -115 0 -115 170 0 c94 0 170 -4
170 -8 0 -16 -56 -86 -95 -121 -105 -92 -276 -112 -405 -46 -68 34 -138 109
-174 185 -27 57 -30 75 -30 151 1 74 5 95 31 150 34 74 105 150 172 184 127
64 288 49 395 -37 l38 -31 87 87 86 87 -45 39 c-58 51 -167 105 -250 124 -80
19 -225 19 -304 0z"/>
<path d="M16120 645 l0 -615 370 0 370 0 0 120 0 120 -250 0 -250 0 0 125 0
125 185 0 185 0 0 120 0 120 -182 2 -183 3 -3 123 -3 122 251 0 250 0 0 125 0
125 -370 0 -370 0 0 -615z"/>
<path d="M5230 640 l0 -610 125 0 125 0 0 610 0 610 -125 0 -125 0 0 -610z"/>
<path d="M5590 1130 l0 -120 150 0 150 0 0 -490 0 -490 125 0 125 0 0 490 0
490 150 0 150 0 0 120 0 120 -425 0 -425 0 0 -120z"/>
<path d="M6960 1130 l0 -120 155 0 155 0 0 -490 0 -490 120 0 120 0 0 490 0
490 150 0 150 0 0 120 0 120 -425 0 -425 0 0 -120z"/>
<path d="M7920 640 l0 -610 125 0 125 0 0 245 0 245 205 0 205 0 0 -245 0
-245 125 0 125 0 0 610 0 610 -125 0 -125 0 0 -245 0 -245 -205 0 -205 0 0
245 0 245 -125 0 -125 0 0 -610z"/>
<path d="M11420 640 l0 -610 120 0 120 0 2 243 3 242 208 3 207 2 0 -245 0
-245 120 0 120 0 0 610 0 610 -120 0 -120 0 0 -245 0 -245 -207 2 -208 3 -3
243 -2 242 -120 0 -120 0 0 -610z"/>
</g>
</svg>
