<svg width="103" height="79" viewBox="0 0 103 79" fill="none" xmlns="http://www.w3.org/2000/svg">
<line y1="-1.5" x2="24.538" y2="-1.5" transform="matrix(0.855829 -0.51726 0.420697 0.907201 52 26.976)" stroke="#F58EA6" stroke-width="3"/>
<line y1="-1.5" x2="24.5381" y2="-1.5" transform="matrix(0.855803 0.517302 -0.420737 0.907182 31 14.2823)" stroke="#F58EA6" stroke-width="3"/>
<line y1="-1.5" x2="24.538" y2="-1.5" transform="matrix(0.855828 -0.517261 0.420695 0.907202 52 15.6937)" stroke="#F58EA6" stroke-width="3"/>
<line y1="-1.5" x2="24.5381" y2="-1.5" transform="matrix(0.855803 0.517302 -0.420737 0.907182 31 3)" stroke="#F58EA6" stroke-width="3"/>
<path d="M34.5604 69.0962C33.7284 69.0962 32.9284 68.9629 32.1604 68.6962C31.4031 68.4296 30.8164 68.0776 30.4004 67.6402L30.8644 66.7282C31.2698 67.1336 31.8084 67.4642 32.4804 67.7202C33.1524 67.9656 33.8458 68.0882 34.5604 68.0882C35.5631 68.0882 36.3151 67.9069 36.8164 67.5442C37.3178 67.1709 37.5684 66.6909 37.5684 66.1042C37.5684 65.6562 37.4298 65.2989 37.1524 65.0322C36.8858 64.7656 36.5551 64.5629 36.1604 64.4242C35.7658 64.2749 35.2164 64.1149 34.5124 63.9442C33.6698 63.7309 32.9978 63.5282 32.4964 63.3362C31.9951 63.1336 31.5631 62.8296 31.2004 62.4242C30.8484 62.0189 30.6724 61.4696 30.6724 60.7762C30.6724 60.2109 30.8218 59.6989 31.1204 59.2402C31.4191 58.7709 31.8778 58.3976 32.4964 58.1202C33.1151 57.8429 33.8831 57.7042 34.8004 57.7042C35.4404 57.7042 36.0644 57.7949 36.6724 57.9762C37.2911 58.1469 37.8244 58.3869 38.2724 58.6962L37.8724 59.6402C37.4031 59.3309 36.9018 59.1016 36.3684 58.9522C35.8351 58.7922 35.3124 58.7122 34.8004 58.7122C33.8191 58.7122 33.0778 58.9042 32.5764 59.2882C32.0858 59.6616 31.8404 60.1469 31.8404 60.7442C31.8404 61.1922 31.9738 61.5549 32.2404 61.8322C32.5178 62.0989 32.8591 62.3069 33.2644 62.4562C33.6804 62.5949 34.2351 62.7496 34.9284 62.9202C35.7498 63.1229 36.4111 63.3256 36.9124 63.5282C37.4244 63.7202 37.8564 64.0189 38.2084 64.4242C38.5604 64.8189 38.7364 65.3576 38.7364 66.0402C38.7364 66.6056 38.5818 67.1229 38.2724 67.5922C37.9738 68.0509 37.5098 68.4189 36.8804 68.6962C36.2511 68.9629 35.4778 69.0962 34.5604 69.0962ZM44.5642 69.0802C43.7322 69.0802 42.9855 68.8989 42.3242 68.5362C41.6735 68.1736 41.1615 67.6669 40.7882 67.0162C40.4149 66.3549 40.2282 65.6136 40.2282 64.7922C40.2282 63.9709 40.4149 63.2349 40.7882 62.5842C41.1615 61.9336 41.6735 61.4269 42.3242 61.0642C42.9855 60.7016 43.7322 60.5202 44.5642 60.5202C45.2895 60.5202 45.9349 60.6642 46.5002 60.9522C47.0762 61.2296 47.5295 61.6402 47.8602 62.1842L47.0122 62.7602C46.7349 62.3442 46.3829 62.0349 45.9562 61.8322C45.5295 61.6189 45.0655 61.5122 44.5642 61.5122C43.9562 61.5122 43.4069 61.6509 42.9162 61.9282C42.4362 62.1949 42.0575 62.5789 41.7802 63.0802C41.5135 63.5816 41.3802 64.1522 41.3802 64.7922C41.3802 65.4429 41.5135 66.0189 41.7802 66.5202C42.0575 67.0109 42.4362 67.3949 42.9162 67.6722C43.4069 67.9389 43.9562 68.0722 44.5642 68.0722C45.0655 68.0722 45.5295 67.9709 45.9562 67.7682C46.3829 67.5656 46.7349 67.2562 47.0122 66.8402L47.8602 67.4162C47.5295 67.9602 47.0762 68.3762 46.5002 68.6642C45.9242 68.9416 45.2789 69.0802 44.5642 69.0802ZM51.1798 62.2322C51.4465 61.6669 51.8411 61.2402 52.3638 60.9522C52.8971 60.6642 53.5531 60.5202 54.3318 60.5202V61.6242L54.0598 61.6082C53.1745 61.6082 52.4811 61.8802 51.9798 62.4242C51.4785 62.9682 51.2278 63.7309 51.2278 64.7122V69.0002H50.0918V60.5842H51.1798V62.2322ZM59.7506 69.0802C58.9399 69.0802 58.2092 68.8989 57.5586 68.5362C56.9079 68.1629 56.3959 67.6509 56.0226 67.0002C55.6492 66.3496 55.4626 65.6136 55.4626 64.7922C55.4626 63.9709 55.6492 63.2349 56.0226 62.5842C56.3959 61.9336 56.9079 61.4269 57.5586 61.0642C58.2092 60.7016 58.9399 60.5202 59.7506 60.5202C60.5612 60.5202 61.2919 60.7016 61.9426 61.0642C62.5932 61.4269 63.0999 61.9336 63.4626 62.5842C63.8359 63.2349 64.0226 63.9709 64.0226 64.7922C64.0226 65.6136 63.8359 66.3496 63.4626 67.0002C63.0999 67.6509 62.5932 68.1629 61.9426 68.5362C61.2919 68.8989 60.5612 69.0802 59.7506 69.0802ZM59.7506 68.0722C60.3479 68.0722 60.8812 67.9389 61.3506 67.6722C61.8306 67.3949 62.2039 67.0056 62.4706 66.5042C62.7372 66.0029 62.8706 65.4322 62.8706 64.7922C62.8706 64.1522 62.7372 63.5816 62.4706 63.0802C62.2039 62.5789 61.8306 62.1949 61.3506 61.9282C60.8812 61.6509 60.3479 61.5122 59.7506 61.5122C59.1532 61.5122 58.6146 61.6509 58.1346 61.9282C57.6652 62.1949 57.2919 62.5789 57.0146 63.0802C56.7479 63.5816 56.6146 64.1522 56.6146 64.7922C56.6146 65.4322 56.7479 66.0029 57.0146 66.5042C57.2919 67.0056 57.6652 67.3949 58.1346 67.6722C58.6146 67.9389 59.1532 68.0722 59.7506 68.0722ZM66.3418 57.1282H67.4778V69.0002H66.3418V57.1282ZM70.6387 57.1282H71.7747V69.0002H70.6387V57.1282Z" fill="#F58EA6"/>
</svg>
