<svg width="507" height="277" viewBox="0 0 507 277" fill="none" xmlns="http://www.w3.org/2000/svg">
<mask id="mask0_2570_2270" style="mask-type:alpha" maskUnits="userSpaceOnUse" x="0" y="0" width="507" height="277">
<g clip-path="url(#clip0_2570_2270)">
<path d="M72.8488 0.297211C66.6015 0.862457 60.4731 2.52841 55.5644 5.02734C45.1521 10.3228 37.923 19.6343 34.8291 31.6233C33.5796 36.5617 33.4011 39.3582 32.9251 60.9859C32.3302 89.8428 32.0029 94.2458 29.8312 101.296C27.5108 108.823 24.0003 112.661 12.4873 120.366C6.77543 124.174 4.51448 126.316 3.05676 129.261C1.56929 132.295 1.12305 134.467 1.12305 138.632C1.1528 146.962 2.84851 149.49 12.7253 156.184C20.1627 161.212 23.1078 163.711 25.4878 167.043C28.552 171.326 30.8724 177.693 31.5567 183.702C32.0327 187.897 32.4492 198.547 32.9251 218.211C33.4011 237.668 33.5796 239.928 34.8589 245.016C38.3098 258.671 47.6511 269.023 60.8896 273.783C68.1484 276.371 78.9474 277.323 85.7601 275.925C95.2799 273.962 99.8613 267.863 99.3258 257.927C98.9985 252.483 97.5706 248.913 94.4766 245.789C92.0967 243.409 90.2522 242.576 85.3138 241.654C79.5127 240.553 76.865 239.69 75.4073 238.471C71.7778 235.347 70.1714 229.665 69.8144 218.509C69.7251 215.564 69.5169 207.531 69.3681 200.659C69.0707 188.046 68.6542 182.036 67.5534 175.224C66.0362 165.763 63.0315 157.79 58.8964 152.346C55.8917 148.419 50.626 143.481 46.4611 140.714C45.3901 140 44.2299 139.197 43.8432 138.9L43.1887 138.394L45.9256 136.46C60.8896 125.988 66.5717 114.922 68.4757 92.5203C68.6244 90.4676 68.8327 88.1174 68.9219 87.2547C69.0112 86.4217 69.2789 79.1033 69.5169 71.0412C69.9929 55.1551 70.3499 49.2647 71.0341 45.8435C72.5216 38.5847 75.08 36.6212 85.5816 34.6875C90.282 33.8248 92.3644 32.9025 94.6551 30.6416C97.9573 27.4286 99.6233 22.1927 99.3258 16.0644C99.1473 12.2862 98.3738 9.66827 96.7376 7.19907C94.5956 4.01587 90.8472 1.75491 86.0278 0.773193C83.1719 0.207947 76.5973 -0.0300293 72.8488 0.297211Z" fill="#6331D8"/>
<path d="M424.249 0.297791C412.855 1.33902 407.173 7.49713 407.708 18.2962C408.035 24.7518 409.79 28.5894 413.926 31.8321C415.889 33.4088 417.972 34.1228 423.148 34.9855C429.068 35.9673 430.556 36.5325 432.638 38.6447C436.327 42.4229 436.952 46.3796 437.368 70.0601C437.666 86.928 437.963 91.8961 439.034 99.2145C440.135 106.801 441.741 112.304 444.508 117.986C448.227 125.662 453.403 131.314 462.03 137.115L463.905 138.394L462.328 139.495C456.2 143.69 449.952 149.521 447.364 153.418C443.11 159.903 440.611 166.716 439.332 175.373C438.171 183.256 437.725 190.426 437.368 207.948C437.219 215.892 436.952 223.775 436.773 225.501C435.97 233.295 434.066 237.549 430.556 239.334C428.8 240.227 427.521 240.554 422.017 241.565C418.537 242.19 417.049 242.636 415.681 243.35C411.099 245.79 408.124 251.234 407.708 257.779C407.411 262.777 408.392 266.614 410.742 269.768C414.669 275.004 422.345 277.265 433.144 276.372C440.284 275.807 445.966 274.29 451.44 271.493C462.03 266.109 469.438 256.529 472.413 244.391C473.722 239.096 473.841 237.281 474.406 211.608C474.644 201.106 474.971 190.872 475.15 188.849C476.637 171.059 479.612 166.18 495.379 155.798C497.759 154.221 500.407 152.258 501.24 151.425C504.929 147.736 506.595 141.845 505.792 135.271C505.405 131.85 504.691 129.618 503.442 127.833C502.014 125.721 498.89 123.044 494.695 120.277C489.162 116.648 486.663 114.684 483.896 111.798C480.326 108.08 478.274 104.272 476.548 98.2922C475.299 94.0381 474.823 85.5595 474.257 58.1603C473.841 37.9605 473.573 35.0748 471.431 28.6489C468.01 18.4152 460.93 10.1151 451.44 5.26593C447.423 3.24298 444.984 2.35049 440.641 1.3985C434.899 0.119293 429.99 -0.207947 424.249 0.297791Z" fill="#6331D8"/>
<path d="M285.052 38.8228L253.666 70.2084H285.141H316.586V38.8228C316.586 21.5681 316.556 7.43718 316.497 7.43718C316.467 7.43718 302.306 21.5681 285.052 38.8228Z" fill="#6331D8"/>
<path d="M320.156 38.8228V70.2084H351.601H383.076L351.691 38.8228C334.436 21.5681 320.275 7.43718 320.245 7.43718C320.186 7.43718 320.156 21.5681 320.156 38.8228Z" fill="#6331D8"/>
<path d="M148.65 38.9715L117.413 70.2084H148.888H180.333V38.9715C180.333 21.7764 180.244 7.73467 180.095 7.73467C179.976 7.73467 165.815 21.7764 148.65 38.9715Z" fill="#6331D8"/>
<path d="M183.903 38.9716V70.2085H215.2H246.526L215.289 38.9716C198.124 21.7765 184.022 7.73479 183.993 7.73479C183.933 7.73479 183.903 21.7765 183.903 38.9716Z" fill="#6331D8"/>
<path d="M263.483 82.4655C289.425 108.615 316.169 135.36 316.348 135.36C316.497 135.36 316.586 121.229 316.586 103.974V72.5887H285.141H253.666L263.483 82.4655Z" fill="#6331D8"/>
<path d="M320.662 72.7969C320.364 73.0647 320.394 135.36 320.692 135.36C320.959 135.36 383.225 73.0944 383.225 72.7969C383.225 72.5292 320.93 72.4994 320.662 72.7969Z" fill="#6331D8"/>
<path d="M117.562 73.691C117.562 73.9885 179.828 136.254 180.125 136.254C180.244 136.254 180.304 122.153 180.274 104.928L180.185 73.6315L148.889 73.5422C131.664 73.5125 117.562 73.572 117.562 73.691Z" fill="#6331D8"/>
<path d="M183.903 104.927V136.401L215.289 105.016C232.544 87.7611 246.675 73.6004 246.675 73.5707C246.675 73.5112 232.544 73.4814 215.289 73.4814H183.903V104.927Z" fill="#6331D8"/>
<path d="M252.624 108.139V139.524H284.069H315.544L284.158 108.139C266.904 90.8842 252.743 76.7532 252.713 76.7532C252.654 76.7532 252.624 90.8842 252.624 108.139Z" fill="#6331D8"/>
<path d="M217.818 108.733L186.433 140.118H217.907H249.353V108.733C249.353 91.4779 249.323 77.347 249.263 77.347C249.234 77.347 235.073 91.4779 217.818 108.733Z" fill="#6331D8"/>
<path d="M352.463 109.626L321.286 141.012H352.701H384.117V109.626C384.117 92.3715 383.998 78.2405 383.879 78.2405C383.76 78.2405 369.629 92.3715 352.463 109.626Z" fill="#6331D8"/>
<path d="M117.264 110.22V141.605H148.709H180.184L148.798 110.22C131.543 92.9652 117.383 78.8343 117.353 78.8343C117.293 78.8343 117.264 92.9652 117.264 110.22Z" fill="#6331D8"/>
<path d="M213.951 170.969C228.885 185.993 242.986 200.154 245.247 202.444L249.352 206.609V175.134V143.689H218.056H186.76L213.951 170.969Z" fill="#6331D8"/>
<path d="M252.624 175.134V206.609L284.01 175.223C301.264 157.969 315.395 143.808 315.395 143.778C315.395 143.719 301.264 143.689 284.01 143.689H252.624V175.134Z" fill="#6331D8"/>
<path d="M147.907 175.965C165.162 193.22 179.322 207.351 179.352 207.351C179.412 207.351 179.441 193.22 179.441 175.965V144.579H147.996H116.521L147.907 175.965Z" fill="#6331D8"/>
<path d="M288.383 175.996L257.027 207.501L288.353 207.59C305.578 207.62 319.709 207.62 319.769 207.561C319.828 207.501 319.828 193.281 319.799 175.967L319.709 144.492L288.383 175.996Z" fill="#6331D8"/>
<path d="M322.237 176.026V207.501L353.623 176.115C370.878 158.86 385.009 144.7 385.009 144.67C385.009 144.611 370.878 144.581 353.623 144.581H322.237V176.026Z" fill="#6331D8"/>
<path d="M182.714 176.263V207.648H214.159H245.634L214.248 176.263C196.994 159.008 182.833 144.877 182.803 144.877C182.744 144.877 182.714 159.008 182.714 176.263Z" fill="#6331D8"/>
<path d="M217.223 243.498C234.478 260.752 248.639 274.883 248.669 274.883C248.728 274.883 248.758 260.752 248.758 243.498V212.112H217.313H185.838L217.223 243.498Z" fill="#6331D8"/>
<path d="M253.813 243.556V275.031L285.199 243.646C302.454 226.391 316.585 212.23 316.585 212.201C316.585 212.141 302.454 212.111 285.199 212.111H253.813V243.556Z" fill="#6331D8"/>
</g>
</mask>
<g mask="url(#mask0_2570_2270)">
<rect x="-44.9824" y="-34.4463" width="620.036" height="390.393" fill="white" fill-opacity="0.71"/>
</g>
<defs>
<clipPath id="clip0_2570_2270">
<rect width="505.145" height="276.669" fill="white" transform="translate(0.945312)"/>
</clipPath>
</defs>
</svg>
