<svg width="933" height="381" viewBox="0 0 933 381" fill="none" xmlns="http://www.w3.org/2000/svg">
<path opacity="0.56" d="M877.97 -29.5203C1005.22 -210.576 482.394 -140.649 351.899 -169.645L64.0628 -150.311C14.425 -99.3014 -125.97 -9.50529 -101.726 97.9994C-71.4208 232.38 10.7079 242.706 63.1848 211.182C115.662 179.658 164.638 64.9105 291.857 39.9073C484.603 2.02574 718.906 196.799 877.97 -29.5203Z" fill="url(#paint0_linear_2922_2570)"/>
<path d="M861.726 -61.7811C988.977 -242.837 466.149 -172.91 335.655 -201.906L47.8184 -182.572C-1.81948 -131.562 -142.214 -41.7661 -117.97 65.7386C-87.6653 200.12 -5.53655 210.446 46.9404 178.921C99.4173 147.397 154.281 54.5032 281.5 29.5C474.246 -8.38158 702.662 164.539 861.726 -61.7811Z" fill="url(#paint1_linear_2922_2570)"/>
<defs>
<linearGradient id="paint0_linear_2922_2570" x1="146.747" y1="-223.718" x2="585.19" y2="24.6372" gradientUnits="userSpaceOnUse">
<stop stop-color="#6331D8"/>
<stop offset="1" stop-color="#C0C5F7"/>
</linearGradient>
<linearGradient id="paint1_linear_2922_2570" x1="130.503" y1="-255.978" x2="568.946" y2="-7.62355" gradientUnits="userSpaceOnUse">
<stop stop-color="#6331D8"/>
<stop offset="1" stop-color="#C0C5F7"/>
</linearGradient>
</defs>
</svg>
